<?xml version="1.0" encoding="UTF-8"?>
<svg xmlns="http://www.w3.org/2000/svg" xmlns:xlink="http://www.w3.org/1999/xlink" width="600pt" height="50pt" viewBox="0 0 600 50" version="1.1">
<g id="surface2282">
<path style="fill-rule:evenodd;fill:rgb(100%,0%,0%);fill-opacity:1;stroke-width:1;stroke-linecap:round;stroke-linejoin:round;stroke:rgb(100%,0%,0%);stroke-opacity:1;stroke-miterlimit:10;" d="M 0 50 C 16.667969 50 33.332031 50 50 50 C 50 33.332031 50 16.667969 50 0 C 33.332031 0 16.667969 0 0 0 C 0 16.667969 0 33.332031 0 50 "/>
<path style="fill-rule:evenodd;fill:rgb(99.607843%,9.803922%,0%);fill-opacity:1;stroke-width:1;stroke-linecap:round;stroke-linejoin:round;stroke:rgb(99.607843%,9.803922%,0%);stroke-opacity:1;stroke-miterlimit:10;" d="M 50 50 C 66.667969 50 83.332031 50 100 50 C 100 33.332031 100 16.667969 100 0 C 83.332031 0 66.667969 0 50 0 C 50 16.667969 50 33.332031 50 50 "/>
<path style="fill-rule:evenodd;fill:rgb(100%,20%,0%);fill-opacity:1;stroke-width:1;stroke-linecap:round;stroke-linejoin:round;stroke:rgb(100%,20%,0%);stroke-opacity:1;stroke-miterlimit:10;" d="M 100 50 C 116.667969 50 133.332031 50 150 50 C 150 33.332031 150 16.667969 150 0 C 133.332031 0 116.667969 0 100 0 C 100 16.667969 100 33.332031 100 50 "/>
<path style="fill-rule:evenodd;fill:rgb(99.607843%,29.803922%,0%);fill-opacity:1;stroke-width:1;stroke-linecap:round;stroke-linejoin:round;stroke:rgb(99.607843%,29.803922%,0%);stroke-opacity:1;stroke-miterlimit:10;" d="M 150 50 C 166.667969 50 183.332031 50 200 50 C 200 33.332031 200 16.667969 200 0 C 183.332031 0 166.667969 0 150 0 C 150 16.667969 150 33.332031 150 50 "/>
<path style="fill-rule:evenodd;fill:rgb(100%,40%,0%);fill-opacity:1;stroke-width:1;stroke-linecap:round;stroke-linejoin:round;stroke:rgb(100%,40%,0%);stroke-opacity:1;stroke-miterlimit:10;" d="M 200 50 C 216.667969 50 233.332031 50 250 50 C 250 33.332031 250 16.667969 250 0 C 233.332031 0 216.667969 0 200 0 C 200 16.667969 200 33.332031 200 50 "/>
<path style="fill-rule:evenodd;fill:rgb(99.607843%,49.803922%,0%);fill-opacity:1;stroke-width:1;stroke-linecap:round;stroke-linejoin:round;stroke:rgb(99.607843%,49.803922%,0%);stroke-opacity:1;stroke-miterlimit:10;" d="M 250 50 C 266.667969 50 283.332031 50 300 50 C 300 33.332031 300 16.667969 300 0 C 283.332031 0 266.667969 0 250 0 C 250 16.667969 250 33.332031 250 50 "/>
<path style="fill-rule:evenodd;fill:rgb(100%,60%,0%);fill-opacity:1;stroke-width:1;stroke-linecap:round;stroke-linejoin:round;stroke:rgb(100%,60%,0%);stroke-opacity:1;stroke-miterlimit:10;" d="M 300 50 C 316.667969 50 333.332031 50 350 50 C 350 33.332031 350 16.667969 350 0 C 333.332031 0 316.667969 0 300 0 C 300 16.667969 300 33.332031 300 50 "/>
<path style="fill-rule:evenodd;fill:rgb(99.607843%,69.803922%,0%);fill-opacity:1;stroke-width:1;stroke-linecap:round;stroke-linejoin:round;stroke:rgb(99.607843%,69.803922%,0%);stroke-opacity:1;stroke-miterlimit:10;" d="M 350 50 C 366.667969 50 383.332031 50 400 50 C 400 33.332031 400 16.667969 400 0 C 383.332031 0 366.667969 0 350 0 C 350 16.667969 350 33.332031 350 50 "/>
<path style="fill-rule:evenodd;fill:rgb(99.607843%,79.607843%,0%);fill-opacity:1;stroke-width:1;stroke-linecap:round;stroke-linejoin:round;stroke:rgb(99.607843%,79.607843%,0%);stroke-opacity:1;stroke-miterlimit:10;" d="M 400 50 C 416.667969 50 433.332031 50 450 50 C 450 33.332031 450 16.667969 450 0 C 433.332031 0 416.667969 0 400 0 C 400 16.667969 400 33.332031 400 50 "/>
<path style="fill-rule:evenodd;fill:rgb(99.607843%,89.803922%,0%);fill-opacity:1;stroke-width:1;stroke-linecap:round;stroke-linejoin:round;stroke:rgb(99.607843%,89.803922%,0%);stroke-opacity:1;stroke-miterlimit:10;" d="M 450 50 C 466.667969 50 483.332031 50 500 50 C 500 33.332031 500 16.667969 500 0 C 483.332031 0 466.667969 0 450 0 C 450 16.667969 450 33.332031 450 50 "/>
<path style="fill-rule:evenodd;fill:rgb(99.607843%,99.607843%,0%);fill-opacity:1;stroke-width:1;stroke-linecap:round;stroke-linejoin:round;stroke:rgb(99.607843%,99.607843%,0%);stroke-opacity:1;stroke-miterlimit:10;" d="M 500 50 C 516.667969 50 533.332031 50 550 50 C 550 33.332031 550 16.667969 550 0 C 533.332031 0 516.667969 0 500 0 C 500 16.667969 500 33.332031 500 50 "/>
<path style="fill-rule:evenodd;fill:rgb(100%,100%,0%);fill-opacity:1;stroke-width:1;stroke-linecap:round;stroke-linejoin:round;stroke:rgb(100%,100%,0%);stroke-opacity:1;stroke-miterlimit:10;" d="M 550 50 C 566.667969 50 583.332031 50 600 50 C 600 33.332031 600 16.667969 600 0 C 583.332031 0 566.667969 0 550 0 C 550 16.667969 550 33.332031 550 50 "/>
</g>
</svg>
