<?xml version="1.0" encoding="UTF-8"?>
<svg xmlns="http://www.w3.org/2000/svg" xmlns:xlink="http://www.w3.org/1999/xlink" width="400pt" height="100pt" viewBox="0 0 400 100" version="1.1">
<g id="surface310">
<path style=" stroke:none;fill-rule:nonzero;fill:rgb(0%,0%,0%);fill-opacity:1;" d="M 95.453125 50 C 95.453125 37.945312 90.664062 26.382812 82.140625 17.859375 C 73.617188 9.335938 62.054688 4.546875 50 4.546875 C 37.945312 4.546875 26.382812 9.335938 17.859375 17.859375 C 9.335938 26.382812 4.546875 37.945312 4.546875 50 C 4.546875 62.054688 9.335938 73.617188 17.859375 82.140625 C 26.382812 90.664062 37.945312 95.453125 50 95.453125 C 62.054688 95.453125 73.617188 90.664062 82.140625 82.140625 C 90.664062 73.617188 95.453125 62.054688 95.453125 50 Z M 72.726562 50 C 72.726562 43.972656 70.332031 38.191406 66.070312 33.929688 C 61.808594 29.667969 56.027344 27.273438 50 27.273438 C 43.972656 27.273438 38.191406 29.667969 33.929688 33.929688 C 29.667969 38.191406 27.273438 43.972656 27.273438 50 C 27.273438 56.027344 29.667969 61.808594 33.929688 66.070312 C 38.191406 70.332031 43.972656 72.726562 50 72.726562 C 56.027344 72.726562 61.808594 70.332031 66.070312 66.070312 C 70.332031 61.808594 72.726562 56.027344 72.726562 50 Z M 72.726562 50 "/>
<path style=" stroke:none;fill-rule:nonzero;fill:rgb(0%,0%,0%);fill-opacity:1;" d="M 195.453125 50 C 195.453125 37.945312 190.664062 26.382812 182.140625 17.859375 C 173.617188 9.335938 162.054688 4.546875 150 4.546875 C 137.945312 4.546875 126.382812 9.335938 117.859375 17.859375 C 109.335938 26.382812 104.546875 37.945312 104.546875 50 C 104.546875 62.054688 109.335938 73.617188 117.859375 82.140625 C 126.382812 90.664062 137.945312 95.453125 150 95.453125 C 162.054688 95.453125 173.617188 90.664062 182.140625 82.140625 C 190.664062 73.617188 195.453125 62.054688 195.453125 50 Z M 172.726562 50 C 172.726562 56.027344 170.332031 61.808594 166.070312 66.070312 C 161.808594 70.332031 156.027344 72.726562 150 72.726562 C 143.972656 72.726562 138.191406 70.332031 133.929688 66.070312 C 129.667969 61.808594 127.273438 56.027344 127.273438 50 C 127.273438 43.972656 129.667969 38.191406 133.929688 33.929688 C 138.191406 29.667969 143.972656 27.273438 150 27.273438 C 156.027344 27.273438 161.808594 29.667969 166.070312 33.929688 C 170.332031 38.191406 172.726562 43.972656 172.726562 50 Z M 172.726562 50 "/>
<path style=" stroke:none;fill-rule:nonzero;fill:rgb(0%,0%,0%);fill-opacity:1;" d="M 295.453125 50 C 295.453125 62.054688 290.664062 73.617188 282.140625 82.140625 C 273.617188 90.664062 262.054688 95.453125 250 95.453125 C 237.945312 95.453125 226.382812 90.664062 217.859375 82.140625 C 209.335938 73.617188 204.546875 62.054688 204.546875 50 C 204.546875 37.945312 209.335938 26.382812 217.859375 17.859375 C 226.382812 9.335938 237.945312 4.546875 250 4.546875 C 262.054688 4.546875 273.617188 9.335938 282.140625 17.859375 C 290.664062 26.382812 295.453125 37.945312 295.453125 50 Z M 272.726562 50 C 272.726562 43.972656 270.332031 38.191406 266.070312 33.929688 C 261.808594 29.667969 256.027344 27.273438 250 27.273438 C 243.972656 27.273438 238.191406 29.667969 233.929688 33.929688 C 229.667969 38.191406 227.273438 43.972656 227.273438 50 C 227.273438 56.027344 229.667969 61.808594 233.929688 66.070312 C 238.191406 70.332031 243.972656 72.726562 250 72.726562 C 256.027344 72.726562 261.808594 70.332031 266.070312 66.070312 C 270.332031 61.808594 272.726562 56.027344 272.726562 50 Z M 272.726562 50 "/>
<path style=" stroke:none;fill-rule:nonzero;fill:rgb(0%,0%,0%);fill-opacity:1;" d="M 395.453125 50 C 395.453125 62.054688 390.664062 73.617188 382.140625 82.140625 C 373.617188 90.664062 362.054688 95.453125 350 95.453125 C 337.945312 95.453125 326.382812 90.664062 317.859375 82.140625 C 309.335938 73.617188 304.546875 62.054688 304.546875 50 C 304.546875 37.945312 309.335938 26.382812 317.859375 17.859375 C 326.382812 9.335938 337.945312 4.546875 350 4.546875 C 362.054688 4.546875 373.617188 9.335938 382.140625 17.859375 C 390.664062 26.382812 395.453125 37.945312 395.453125 50 Z M 372.726562 50 C 372.726562 56.027344 370.332031 61.808594 366.070312 66.070312 C 361.808594 70.332031 356.027344 72.726562 350 72.726562 C 343.972656 72.726562 338.191406 70.332031 333.929688 66.070312 C 329.667969 61.808594 327.273438 56.027344 327.273438 50 C 327.273438 43.972656 329.667969 38.191406 333.929688 33.929688 C 338.191406 29.667969 343.972656 27.273438 350 27.273438 C 356.027344 27.273438 361.808594 29.667969 366.070312 33.929688 C 370.332031 38.191406 372.726562 43.972656 372.726562 50 Z M 372.726562 50 "/>
</g>
</svg>
