<?xml version="1.0" encoding="UTF-8"?>
<svg xmlns="http://www.w3.org/2000/svg" xmlns:xlink="http://www.w3.org/1999/xlink" width="300pt" height="300pt" viewBox="0 0 300 300" version="1.1">
<g id="surface72386">
<path style="fill-rule:evenodd;fill:rgb(100%,0%,0%);fill-opacity:1;stroke-width:1;stroke-linecap:round;stroke-linejoin:round;stroke:rgb(100%,0%,0%);stroke-opacity:1;stroke-miterlimit:10;" d="M 25 275 C 66.667969 202.832031 108.332031 130.664062 150 58.492188 C 191.667969 130.664062 233.332031 202.832031 275 275 C 191.667969 275 108.332031 275 25 275 "/>
<path style="fill:none;stroke-width:1;stroke-linecap:round;stroke-linejoin:round;stroke:rgb(0%,0%,0%);stroke-opacity:1;stroke-miterlimit:10;" d="M 25 275 C 66.667969 202.832031 108.332031 130.664062 150 58.492188 C 191.667969 130.664062 233.332031 202.832031 275 275 C 191.667969 275 108.332031 275 25 275 "/>
<path style="fill-rule:evenodd;fill:rgb(99.607843%,31.372549%,0%);fill-opacity:1;stroke-width:1;stroke-linecap:round;stroke-linejoin:round;stroke:rgb(99.607843%,31.372549%,0%);stroke-opacity:1;stroke-miterlimit:10;" d="M 40 249.019531 C 81.667969 194.171875 123.332031 139.324219 165 84.472656 C 191.667969 147.984375 218.332031 211.492188 245 275 C 176.667969 266.339844 108.332031 257.679688 40 249.019531 "/>
<path style="fill:none;stroke-width:1;stroke-linecap:round;stroke-linejoin:round;stroke:rgb(0%,0%,0%);stroke-opacity:1;stroke-miterlimit:10;" d="M 40 249.019531 C 81.667969 194.171875 123.332031 139.324219 165 84.472656 C 191.667969 147.984375 218.332031 211.492188 245 275 C 176.667969 266.339844 108.332031 257.679688 40 249.019531 "/>
<path style="fill-rule:evenodd;fill:rgb(99.607843%,41.176471%,0%);fill-opacity:1;stroke-width:1;stroke-linecap:round;stroke-linejoin:round;stroke:rgb(99.607843%,41.176471%,0%);stroke-opacity:1;stroke-miterlimit:10;" d="M 55 229.273438 C 94.867188 188.628906 134.734375 147.984375 174.601562 107.335938 C 189.867188 162.1875 205.132812 217.035156 220.398438 271.882812 C 165.265625 257.679688 110.132812 243.476562 55 229.273438 "/>
<path style="fill:none;stroke-width:1;stroke-linecap:round;stroke-linejoin:round;stroke:rgb(0%,0%,0%);stroke-opacity:1;stroke-miterlimit:10;" d="M 55 229.273438 C 94.867188 188.628906 134.734375 147.984375 174.601562 107.335938 C 189.867188 162.1875 205.132812 217.035156 220.398438 271.882812 C 165.265625 257.679688 110.132812 243.476562 55 229.273438 "/>
<path style="fill-rule:evenodd;fill:rgb(99.607843%,48.627451%,0%);fill-opacity:1;stroke-width:1;stroke-linecap:round;stroke-linejoin:round;stroke:rgb(99.607843%,48.627451%,0%);stroke-opacity:1;stroke-miterlimit:10;" d="M 69.351562 214.640625 C 106.265625 185.457031 143.179688 156.269531 180.097656 127.082031 C 186.914062 173.644531 193.734375 220.207031 200.550781 266.769531 C 156.820312 249.394531 113.085938 232.015625 69.351562 214.640625 "/>
<path style="fill:none;stroke-width:1;stroke-linecap:round;stroke-linejoin:round;stroke:rgb(0%,0%,0%);stroke-opacity:1;stroke-miterlimit:10;" d="M 69.351562 214.640625 C 106.265625 185.457031 143.179688 156.269531 180.097656 127.082031 C 186.914062 173.644531 193.734375 220.207031 200.550781 266.769531 C 156.820312 249.394531 113.085938 232.015625 69.351562 214.640625 "/>
<path style="fill-rule:evenodd;fill:rgb(99.607843%,54.509804%,0%);fill-opacity:1;stroke-width:1;stroke-linecap:round;stroke-linejoin:round;stroke:rgb(99.607843%,54.509804%,0%);stroke-opacity:1;stroke-miterlimit:10;" d="M 82.640625 204.132812 C 115.945312 184.039062 149.246094 163.941406 182.550781 143.84375 C 183.304688 182.734375 184.054688 221.625 184.808594 260.515625 C 150.753906 241.722656 116.695312 222.925781 82.640625 204.132812 "/>
<path style="fill:none;stroke-width:1;stroke-linecap:round;stroke-linejoin:round;stroke:rgb(0%,0%,0%);stroke-opacity:1;stroke-miterlimit:10;" d="M 82.640625 204.132812 C 115.945312 184.039062 149.246094 163.941406 182.550781 143.84375 C 183.304688 182.734375 184.054688 221.625 184.808594 260.515625 C 150.753906 241.722656 116.695312 222.925781 82.640625 204.132812 "/>
<path style="fill-rule:evenodd;fill:rgb(99.607843%,59.607843%,0%);fill-opacity:1;stroke-width:1;stroke-linecap:round;stroke-linejoin:round;stroke:rgb(99.607843%,59.607843%,0%);stroke-opacity:1;stroke-miterlimit:10;" d="M 94.628906 196.898438 C 124.027344 183.882812 153.425781 170.863281 182.820312 157.84375 C 179.398438 189.8125 175.972656 221.78125 172.546875 253.75 C 146.574219 234.800781 120.601562 215.847656 94.628906 196.898438 "/>
<path style="fill:none;stroke-width:1;stroke-linecap:round;stroke-linejoin:round;stroke:rgb(0%,0%,0%);stroke-opacity:1;stroke-miterlimit:10;" d="M 94.628906 196.898438 C 124.027344 183.882812 153.425781 170.863281 182.820312 157.84375 C 179.398438 189.8125 175.972656 221.78125 172.546875 253.75 C 146.574219 234.800781 120.601562 215.847656 94.628906 196.898438 "/>
<path style="fill-rule:evenodd;fill:rgb(99.607843%,64.313725%,0%);fill-opacity:1;stroke-width:1;stroke-linecap:round;stroke-linejoin:round;stroke:rgb(99.607843%,64.313725%,0%);stroke-opacity:1;stroke-miterlimit:10;" d="M 105.214844 192.214844 C 130.671875 184.59375 156.128906 176.972656 181.589844 169.355469 C 175.457031 195.210938 169.328125 221.070312 163.199219 246.925781 C 143.871094 228.6875 124.542969 210.449219 105.214844 192.214844 "/>
<path style="fill:none;stroke-width:1;stroke-linecap:round;stroke-linejoin:round;stroke:rgb(0%,0%,0%);stroke-opacity:1;stroke-miterlimit:10;" d="M 105.214844 192.214844 C 130.671875 184.59375 156.128906 176.972656 181.589844 169.355469 C 175.457031 195.210938 169.328125 221.070312 163.199219 246.925781 C 143.871094 228.6875 124.542969 210.449219 105.214844 192.214844 "/>
<path style="fill-rule:evenodd;fill:rgb(99.607843%,68.235294%,0%);fill-opacity:1;stroke-width:1;stroke-linecap:round;stroke-linejoin:round;stroke:rgb(99.607843%,68.235294%,0%);stroke-opacity:1;stroke-miterlimit:10;" d="M 114.378906 189.46875 C 136.046875 185.867188 157.714844 182.265625 179.382812 178.664062 C 171.667969 199.230469 163.953125 219.792969 156.238281 240.359375 C 142.285156 223.398438 128.332031 206.433594 114.378906 189.46875 "/>
<path style="fill:none;stroke-width:1;stroke-linecap:round;stroke-linejoin:round;stroke:rgb(0%,0%,0%);stroke-opacity:1;stroke-miterlimit:10;" d="M 114.378906 189.46875 C 136.046875 185.867188 157.714844 182.265625 179.382812 178.664062 C 171.667969 199.230469 163.953125 219.792969 156.238281 240.359375 C 142.285156 223.398438 128.332031 206.433594 114.378906 189.46875 "/>
<path style="fill-rule:evenodd;fill:rgb(99.607843%,72.156863%,0%);fill-opacity:1;stroke-width:1;stroke-linecap:round;stroke-linejoin:round;stroke:rgb(99.607843%,72.156863%,0%);stroke-opacity:1;stroke-miterlimit:10;" d="M 122.179688 188.171875 C 140.320312 187.472656 158.460938 186.769531 176.605469 186.066406 C 168.140625 202.128906 159.679688 218.191406 151.214844 234.253906 C 141.539062 218.894531 131.859375 203.535156 122.179688 188.171875 "/>
<path style="fill:none;stroke-width:1;stroke-linecap:round;stroke-linejoin:round;stroke:rgb(0%,0%,0%);stroke-opacity:1;stroke-miterlimit:10;" d="M 122.179688 188.171875 C 140.320312 187.472656 158.460938 186.769531 176.605469 186.066406 C 168.140625 202.128906 159.679688 218.191406 151.214844 234.253906 C 141.539062 218.894531 131.859375 203.535156 122.179688 188.171875 "/>
<path style="fill-rule:evenodd;fill:rgb(99.607843%,75.686275%,0%);fill-opacity:1;stroke-width:1;stroke-linecap:round;stroke-linejoin:round;stroke:rgb(99.607843%,75.686275%,0%);stroke-opacity:1;stroke-miterlimit:10;" d="M 128.710938 187.921875 C 143.660156 189.230469 158.609375 190.539062 173.558594 191.847656 C 164.949219 204.140625 156.339844 216.433594 147.730469 228.722656 C 141.390625 215.121094 135.050781 201.523438 128.710938 187.921875 "/>
<path style="fill:none;stroke-width:1;stroke-linecap:round;stroke-linejoin:round;stroke:rgb(0%,0%,0%);stroke-opacity:1;stroke-miterlimit:10;" d="M 128.710938 187.921875 C 143.660156 189.230469 158.609375 190.539062 173.558594 191.847656 C 164.949219 204.140625 156.339844 216.433594 147.730469 228.722656 C 141.390625 215.121094 135.050781 201.523438 128.710938 187.921875 "/>
<path style="fill-rule:evenodd;fill:rgb(99.607843%,78.823529%,0%);fill-opacity:1;stroke-width:1;stroke-linecap:round;stroke-linejoin:round;stroke:rgb(99.607843%,78.823529%,0%);stroke-opacity:1;stroke-miterlimit:10;" d="M 134.089844 188.390625 C 146.214844 191.019531 158.335938 193.648438 170.460938 196.273438 C 162.121094 205.457031 153.785156 214.644531 145.449219 223.828125 C 141.664062 212.015625 137.878906 200.203125 134.089844 188.390625 "/>
<path style="fill:none;stroke-width:1;stroke-linecap:round;stroke-linejoin:round;stroke:rgb(0%,0%,0%);stroke-opacity:1;stroke-miterlimit:10;" d="M 134.089844 188.390625 C 146.214844 191.019531 158.335938 193.648438 170.460938 196.273438 C 162.121094 205.457031 153.785156 214.644531 145.449219 223.828125 C 141.664062 212.015625 137.878906 200.203125 134.089844 188.390625 "/>
<path style="fill-rule:evenodd;fill:rgb(99.607843%,81.960784%,0%);fill-opacity:1;stroke-width:1;stroke-linecap:round;stroke-linejoin:round;stroke:rgb(99.607843%,81.960784%,0%);stroke-opacity:1;stroke-miterlimit:10;" d="M 138.457031 189.335938 C 148.125 192.75 157.789062 196.167969 167.457031 199.582031 C 159.667969 206.246094 151.875 212.910156 144.085938 219.574219 C 142.210938 209.496094 140.332031 199.417969 138.457031 189.335938 "/>
<path style="fill:none;stroke-width:1;stroke-linecap:round;stroke-linejoin:round;stroke:rgb(0%,0%,0%);stroke-opacity:1;stroke-miterlimit:10;" d="M 138.457031 189.335938 C 148.125 192.75 157.789062 196.167969 167.457031 199.582031 C 159.667969 206.246094 151.875 212.910156 144.085938 219.574219 C 142.210938 209.496094 140.332031 199.417969 138.457031 189.335938 "/>
<path style="fill-rule:evenodd;fill:rgb(99.607843%,84.705882%,0%);fill-opacity:1;stroke-width:1;stroke-linecap:round;stroke-linejoin:round;stroke:rgb(99.607843%,84.705882%,0%);stroke-opacity:1;stroke-miterlimit:10;" d="M 141.9375 190.566406 C 149.507812 194.371094 157.082031 198.175781 164.652344 201.980469 C 157.574219 206.636719 150.492188 211.292969 143.410156 215.945312 C 142.917969 207.488281 142.425781 199.027344 141.9375 190.566406 "/>
<path style="fill:none;stroke-width:1;stroke-linecap:round;stroke-linejoin:round;stroke:rgb(0%,0%,0%);stroke-opacity:1;stroke-miterlimit:10;" d="M 141.9375 190.566406 C 149.507812 194.371094 157.082031 198.175781 164.652344 201.980469 C 157.574219 206.636719 150.492188 211.292969 143.410156 215.945312 C 142.917969 207.488281 142.425781 199.027344 141.9375 190.566406 "/>
<path style="fill-rule:evenodd;fill:rgb(99.607843%,87.45098%,0%);fill-opacity:1;stroke-width:1;stroke-linecap:round;stroke-linejoin:round;stroke:rgb(99.607843%,87.45098%,0%);stroke-opacity:1;stroke-miterlimit:10;" d="M 144.664062 191.9375 C 150.476562 195.84375 156.289062 199.75 162.105469 203.65625 C 155.8125 206.738281 149.523438 209.820312 143.234375 212.902344 C 143.710938 205.914062 144.1875 198.925781 144.664062 191.9375 "/>
<path style="fill:none;stroke-width:1;stroke-linecap:round;stroke-linejoin:round;stroke:rgb(0%,0%,0%);stroke-opacity:1;stroke-miterlimit:10;" d="M 144.664062 191.9375 C 150.476562 195.84375 156.289062 199.75 162.105469 203.65625 C 155.8125 206.738281 149.523438 209.820312 143.234375 212.902344 C 143.710938 205.914062 144.1875 198.925781 144.664062 191.9375 "/>
<path style="fill-rule:evenodd;fill:rgb(99.607843%,90.196078%,0%);fill-opacity:1;stroke-width:1;stroke-linecap:round;stroke-linejoin:round;stroke:rgb(99.607843%,90.196078%,0%);stroke-opacity:1;stroke-miterlimit:10;" d="M 146.753906 193.34375 C 151.117188 197.148438 155.476562 200.957031 159.839844 204.765625 C 154.363281 206.640625 148.882812 208.511719 143.40625 210.386719 C 144.523438 204.703125 145.636719 199.023438 146.753906 193.34375 "/>
<path style="fill:none;stroke-width:1;stroke-linecap:round;stroke-linejoin:round;stroke:rgb(0%,0%,0%);stroke-opacity:1;stroke-miterlimit:10;" d="M 146.753906 193.34375 C 151.117188 197.148438 155.476562 200.957031 159.839844 204.765625 C 154.363281 206.640625 148.882812 208.511719 143.40625 210.386719 C 144.523438 204.703125 145.636719 199.023438 146.753906 193.34375 "/>
<path style="fill-rule:evenodd;fill:rgb(99.607843%,92.941176%,0%);fill-opacity:1;stroke-width:1;stroke-linecap:round;stroke-linejoin:round;stroke:rgb(99.607843%,92.941176%,0%);stroke-opacity:1;stroke-miterlimit:10;" d="M 148.324219 194.714844 C 151.507812 198.289062 154.6875 201.863281 157.867188 205.441406 C 153.179688 206.40625 148.492188 207.375 143.808594 208.339844 C 145.3125 203.796875 146.820312 199.253906 148.324219 194.714844 "/>
<path style="fill:none;stroke-width:1;stroke-linecap:round;stroke-linejoin:round;stroke:rgb(0%,0%,0%);stroke-opacity:1;stroke-miterlimit:10;" d="M 148.324219 194.714844 C 151.507812 198.289062 154.6875 201.863281 157.867188 205.441406 C 153.179688 206.40625 148.492188 207.375 143.808594 208.339844 C 145.3125 203.796875 146.820312 199.253906 148.324219 194.714844 "/>
<path style="fill-rule:evenodd;fill:rgb(99.607843%,95.294118%,0%);fill-opacity:1;stroke-width:1;stroke-linecap:round;stroke-linejoin:round;stroke:rgb(99.607843%,95.294118%,0%);stroke-opacity:1;stroke-miterlimit:10;" d="M 149.46875 196 C 151.707031 199.261719 153.945312 202.527344 156.179688 205.789062 C 152.238281 206.09375 148.292969 206.398438 144.347656 206.707031 C 146.054688 203.136719 147.761719 199.570312 149.46875 196 "/>
<path style="fill:none;stroke-width:1;stroke-linecap:round;stroke-linejoin:round;stroke:rgb(0%,0%,0%);stroke-opacity:1;stroke-miterlimit:10;" d="M 149.46875 196 C 151.707031 199.261719 153.945312 202.527344 156.179688 205.789062 C 152.238281 206.09375 148.292969 206.398438 144.347656 206.707031 C 146.054688 203.136719 147.761719 199.570312 149.46875 196 "/>
<path style="fill-rule:evenodd;fill:rgb(99.607843%,97.647059%,0%);fill-opacity:1;stroke-width:1;stroke-linecap:round;stroke-linejoin:round;stroke:rgb(99.607843%,97.647059%,0%);stroke-opacity:1;stroke-miterlimit:10;" d="M 150.277344 197.175781 C 151.769531 200.082031 153.265625 202.992188 154.761719 205.898438 C 151.496094 205.738281 148.230469 205.578125 144.964844 205.421875 C 146.734375 202.671875 148.503906 199.921875 150.277344 197.175781 "/>
<path style="fill:none;stroke-width:1;stroke-linecap:round;stroke-linejoin:round;stroke:rgb(0%,0%,0%);stroke-opacity:1;stroke-miterlimit:10;" d="M 150.277344 197.175781 C 151.769531 200.082031 153.265625 202.992188 154.761719 205.898438 C 151.496094 205.738281 148.230469 205.578125 144.964844 205.421875 C 146.734375 202.671875 148.503906 199.921875 150.277344 197.175781 "/>
</g>
</svg>
