<?xml version="1.0" encoding="UTF-8"?>
<svg xmlns="http://www.w3.org/2000/svg" xmlns:xlink="http://www.w3.org/1999/xlink" width="200pt" height="100pt" viewBox="0 0 200 100" version="1.1">
<g id="surface320">
<path style=" stroke:none;fill-rule:nonzero;fill:rgb(0%,0%,0%);fill-opacity:1;" d="M 95.453125 50 C 95.453125 37.945312 90.664062 26.382812 82.140625 17.859375 C 73.617188 9.335938 62.054688 4.546875 50 4.546875 C 37.945312 4.546875 26.382812 9.335938 17.859375 17.859375 C 9.335938 26.382812 4.546875 37.945312 4.546875 50 C 4.546875 62.054688 9.335938 73.617188 17.859375 82.140625 C 26.382812 90.664062 37.945312 95.453125 50 95.453125 C 62.054688 95.453125 73.617188 90.664062 82.140625 82.140625 C 90.664062 73.617188 95.453125 62.054688 95.453125 50 Z M 84.089844 50 C 84.089844 59.042969 80.5 67.710938 74.105469 74.105469 C 67.710938 80.5 59.042969 84.089844 50 84.089844 C 40.957031 84.089844 32.289062 80.5 25.894531 74.105469 C 19.5 67.710938 15.910156 59.042969 15.910156 50 C 15.910156 40.957031 19.5 32.289062 25.894531 25.894531 C 32.289062 19.5 40.957031 15.910156 50 15.910156 C 59.042969 15.910156 67.710938 19.5 74.105469 25.894531 C 80.5 32.289062 84.089844 40.957031 84.089844 50 Z M 72.726562 50 C 72.726562 43.972656 70.332031 38.191406 66.070312 33.929688 C 61.808594 29.667969 56.027344 27.273438 50 27.273438 C 43.972656 27.273438 38.191406 29.667969 33.929688 33.929688 C 29.667969 38.191406 27.273438 43.972656 27.273438 50 C 27.273438 56.027344 29.667969 61.808594 33.929688 66.070312 C 38.191406 70.332031 43.972656 72.726562 50 72.726562 C 56.027344 72.726562 61.808594 70.332031 66.070312 66.070312 C 70.332031 61.808594 72.726562 56.027344 72.726562 50 Z M 61.363281 50 C 61.363281 53.015625 60.167969 55.902344 58.035156 58.035156 C 55.902344 60.167969 53.015625 61.363281 50 61.363281 C 46.984375 61.363281 44.097656 60.167969 41.964844 58.035156 C 39.832031 55.902344 38.636719 53.015625 38.636719 50 C 38.636719 46.984375 39.832031 44.097656 41.964844 41.964844 C 44.097656 39.832031 46.984375 38.636719 50 38.636719 C 53.015625 38.636719 55.902344 39.832031 58.035156 41.964844 C 60.167969 44.097656 61.363281 46.984375 61.363281 50 Z M 61.363281 50 "/>
<path style=" stroke:none;fill-rule:nonzero;fill:rgb(0%,0%,0%);fill-opacity:1;" d="M 195.453125 50 C 195.453125 62.054688 190.664062 73.617188 182.140625 82.140625 C 173.617188 90.664062 162.054688 95.453125 150 95.453125 C 137.945312 95.453125 126.382812 90.664062 117.859375 82.140625 C 109.335938 73.617188 104.546875 62.054688 104.546875 50 C 104.546875 37.945312 109.335938 26.382812 117.859375 17.859375 C 126.382812 9.335938 137.945312 4.546875 150 4.546875 C 162.054688 4.546875 173.617188 9.335938 182.140625 17.859375 C 190.664062 26.382812 195.453125 37.945312 195.453125 50 Z M 184.089844 50 C 184.089844 40.957031 180.5 32.289062 174.105469 25.894531 C 167.710938 19.5 159.042969 15.910156 150 15.910156 C 140.957031 15.910156 132.289062 19.5 125.894531 25.894531 C 119.5 32.289062 115.910156 40.957031 115.910156 50 C 115.910156 59.042969 119.5 67.710938 125.894531 74.105469 C 132.289062 80.5 140.957031 84.089844 150 84.089844 C 159.042969 84.089844 167.710938 80.5 174.105469 74.105469 C 180.5 67.710938 184.089844 59.042969 184.089844 50 Z M 172.726562 50 C 172.726562 56.027344 170.332031 61.808594 166.070312 66.070312 C 161.808594 70.332031 156.027344 72.726562 150 72.726562 C 143.972656 72.726562 138.191406 70.332031 133.929688 66.070312 C 129.667969 61.808594 127.273438 56.027344 127.273438 50 C 127.273438 43.972656 129.667969 38.191406 133.929688 33.929688 C 138.191406 29.667969 143.972656 27.273438 150 27.273438 C 156.027344 27.273438 161.808594 29.667969 166.070312 33.929688 C 170.332031 38.191406 172.726562 43.972656 172.726562 50 Z M 161.363281 50 C 161.363281 46.984375 160.167969 44.097656 158.035156 41.964844 C 155.902344 39.832031 153.015625 38.636719 150 38.636719 C 146.984375 38.636719 144.097656 39.832031 141.964844 41.964844 C 139.832031 44.097656 138.636719 46.984375 138.636719 50 C 138.636719 53.015625 139.832031 55.902344 141.964844 58.035156 C 144.097656 60.167969 146.984375 61.363281 150 61.363281 C 153.015625 61.363281 155.902344 60.167969 158.035156 58.035156 C 160.167969 55.902344 161.363281 53.015625 161.363281 50 Z M 161.363281 50 "/>
</g>
</svg>
