<?xml version="1.0" encoding="UTF-8"?>
<svg xmlns="http://www.w3.org/2000/svg" xmlns:xlink="http://www.w3.org/1999/xlink" width="110pt" height="110pt" viewBox="0 0 110 110" version="1.1">
<g id="surface2339">
<path style="fill:none;stroke-width:1;stroke-linecap:round;stroke-linejoin:round;stroke:rgb(0%,0%,0%);stroke-opacity:1;stroke-miterlimit:10;" d="M 5 105 C 5 71.667969 5 38.332031 5 5 "/>
<path style="fill:none;stroke-width:1;stroke-linecap:round;stroke-linejoin:round;stroke:rgb(0%,0%,0%);stroke-opacity:1;stroke-miterlimit:10;" d="M 38.332031 105 C 38.332031 71.667969 38.332031 38.332031 38.332031 5 "/>
<path style="fill:none;stroke-width:1;stroke-linecap:round;stroke-linejoin:round;stroke:rgb(0%,0%,0%);stroke-opacity:1;stroke-miterlimit:10;" d="M 71.667969 105 C 71.667969 71.667969 71.667969 38.332031 71.667969 5 "/>
<path style="fill:none;stroke-width:1;stroke-linecap:round;stroke-linejoin:round;stroke:rgb(0%,0%,0%);stroke-opacity:1;stroke-miterlimit:10;" d="M 105 105 C 105 71.667969 105 38.332031 105 5 "/>
<path style="fill:none;stroke-width:1;stroke-linecap:round;stroke-linejoin:round;stroke:rgb(0%,0%,0%);stroke-opacity:1;stroke-miterlimit:10;" d="M 5 105 C 38.332031 105 71.667969 105 105 105 "/>
<path style="fill:none;stroke-width:1;stroke-linecap:round;stroke-linejoin:round;stroke:rgb(0%,0%,0%);stroke-opacity:1;stroke-miterlimit:10;" d="M 5 71.667969 C 38.332031 71.667969 71.667969 71.667969 105 71.667969 "/>
<path style="fill:none;stroke-width:1;stroke-linecap:round;stroke-linejoin:round;stroke:rgb(0%,0%,0%);stroke-opacity:1;stroke-miterlimit:10;" d="M 5 38.332031 C 38.332031 38.332031 71.667969 38.332031 105 38.332031 "/>
<path style="fill:none;stroke-width:1;stroke-linecap:round;stroke-linejoin:round;stroke:rgb(0%,0%,0%);stroke-opacity:1;stroke-miterlimit:10;" d="M 5 5 C 38.332031 5 71.667969 5 105 5 "/>
<path style="fill-rule:evenodd;fill:rgb(0%,0%,0%);fill-opacity:1;stroke-width:1;stroke-linecap:round;stroke-linejoin:round;stroke:rgb(0%,0%,0%);stroke-opacity:1;stroke-miterlimit:10;" d="M 35.667969 88.332031 C 35.667969 84.621094 34.191406 81.058594 31.566406 78.433594 C 28.941406 75.808594 25.378906 74.332031 21.667969 74.332031 C 17.953125 74.332031 14.394531 75.808594 11.765625 78.433594 C 9.140625 81.058594 7.667969 84.621094 7.667969 88.332031 C 7.667969 92.046875 9.140625 95.605469 11.765625 98.234375 C 14.394531 100.859375 17.953125 102.332031 21.667969 102.332031 C 25.378906 102.332031 28.941406 100.859375 31.566406 98.234375 C 34.191406 95.605469 35.667969 92.046875 35.667969 88.332031 "/>
<path style="fill-rule:evenodd;fill:rgb(0%,0%,0%);fill-opacity:1;stroke-width:1;stroke-linecap:round;stroke-linejoin:round;stroke:rgb(0%,0%,0%);stroke-opacity:1;stroke-miterlimit:10;" d="M 69 88.332031 C 69 84.621094 67.523438 81.058594 64.898438 78.433594 C 62.273438 75.808594 58.714844 74.332031 55 74.332031 C 51.285156 74.332031 47.726562 75.808594 45.101562 78.433594 C 42.476562 81.058594 41 84.621094 41 88.332031 C 41 92.046875 42.476562 95.605469 45.101562 98.234375 C 47.726562 100.859375 51.285156 102.332031 55 102.332031 C 58.714844 102.332031 62.273438 100.859375 64.898438 98.234375 C 67.523438 95.605469 69 92.046875 69 88.332031 "/>
<path style="fill-rule:evenodd;fill:rgb(0%,0%,0%);fill-opacity:1;stroke-width:1;stroke-linecap:round;stroke-linejoin:round;stroke:rgb(0%,0%,0%);stroke-opacity:1;stroke-miterlimit:10;" d="M 102.332031 88.332031 C 102.332031 84.621094 100.859375 81.058594 98.234375 78.433594 C 95.605469 75.808594 92.046875 74.332031 88.332031 74.332031 C 84.621094 74.332031 81.058594 75.808594 78.433594 78.433594 C 75.808594 81.058594 74.332031 84.621094 74.332031 88.332031 C 74.332031 92.046875 75.808594 95.605469 78.433594 98.234375 C 81.058594 100.859375 84.621094 102.332031 88.332031 102.332031 C 92.046875 102.332031 95.605469 100.859375 98.234375 98.234375 C 100.859375 95.605469 102.332031 92.046875 102.332031 88.332031 "/>
<path style="fill-rule:evenodd;fill:rgb(0%,0%,0%);fill-opacity:1;stroke-width:1;stroke-linecap:round;stroke-linejoin:round;stroke:rgb(0%,0%,0%);stroke-opacity:1;stroke-miterlimit:10;" d="M 102.332031 55 C 102.332031 51.285156 100.859375 47.726562 98.234375 45.101562 C 95.605469 42.476562 92.046875 41 88.332031 41 C 84.621094 41 81.058594 42.476562 78.433594 45.101562 C 75.808594 47.726562 74.332031 51.285156 74.332031 55 C 74.332031 58.714844 75.808594 62.273438 78.433594 64.898438 C 81.058594 67.523438 84.621094 69 88.332031 69 C 92.046875 69 95.605469 67.523438 98.234375 64.898438 C 100.859375 62.273438 102.332031 58.714844 102.332031 55 "/>
<path style="fill-rule:evenodd;fill:rgb(0%,0%,0%);fill-opacity:1;stroke-width:1;stroke-linecap:round;stroke-linejoin:round;stroke:rgb(0%,0%,0%);stroke-opacity:1;stroke-miterlimit:10;" d="M 69 21.667969 C 69 17.953125 67.523438 14.394531 64.898438 11.765625 C 62.273438 9.140625 58.714844 7.667969 55 7.667969 C 51.285156 7.667969 47.726562 9.140625 45.101562 11.765625 C 42.476562 14.394531 41 17.953125 41 21.667969 C 41 25.378906 42.476562 28.941406 45.101562 31.566406 C 47.726562 34.191406 51.285156 35.667969 55 35.667969 C 58.714844 35.667969 62.273438 34.191406 64.898438 31.566406 C 67.523438 28.941406 69 25.378906 69 21.667969 "/>
</g>
</svg>
