<?xml version="1.0" encoding="UTF-8"?>
<svg xmlns="http://www.w3.org/2000/svg" xmlns:xlink="http://www.w3.org/1999/xlink" width="200pt" height="100pt" viewBox="0 0 200 100" version="1.1">
<g id="surface315">
<path style=" stroke:none;fill-rule:nonzero;fill:rgb(0%,0%,0%);fill-opacity:1;" d="M 84.089844 50 C 84.089844 40.957031 80.5 32.289062 74.105469 25.894531 C 67.710938 19.5 59.042969 15.910156 50 15.910156 C 40.957031 15.910156 32.289062 19.5 25.894531 25.894531 C 19.5 32.289062 15.910156 40.957031 15.910156 50 C 15.910156 59.042969 19.5 67.710938 25.894531 74.105469 C 32.289062 80.5 40.957031 84.089844 50 84.089844 C 59.042969 84.089844 67.710938 80.5 74.105469 74.105469 C 80.5 67.710938 84.089844 59.042969 84.089844 50 Z M 72.726562 50 C 72.726562 56.027344 70.332031 61.808594 66.070312 66.070312 C 61.808594 70.332031 56.027344 72.726562 50 72.726562 C 43.972656 72.726562 38.191406 70.332031 33.929688 66.070312 C 29.667969 61.808594 27.273438 56.027344 27.273438 50 C 27.273438 43.972656 29.667969 38.191406 33.929688 33.929688 C 38.191406 29.667969 43.972656 27.273438 50 27.273438 C 56.027344 27.273438 61.808594 29.667969 66.070312 33.929688 C 70.332031 38.191406 72.726562 43.972656 72.726562 50 Z M 61.363281 50 C 61.363281 46.984375 60.167969 44.097656 58.035156 41.964844 C 55.902344 39.832031 53.015625 38.636719 50 38.636719 C 46.984375 38.636719 44.097656 39.832031 41.964844 41.964844 C 39.832031 44.097656 38.636719 46.984375 38.636719 50 C 38.636719 53.015625 39.832031 55.902344 41.964844 58.035156 C 44.097656 60.167969 46.984375 61.363281 50 61.363281 C 53.015625 61.363281 55.902344 60.167969 58.035156 58.035156 C 60.167969 55.902344 61.363281 53.015625 61.363281 50 Z M 61.363281 50 "/>
<path style=" stroke:none;fill-rule:nonzero;fill:rgb(0%,0%,0%);fill-opacity:1;" d="M 184.089844 50 C 184.089844 59.042969 180.5 67.710938 174.105469 74.105469 C 167.710938 80.5 159.042969 84.089844 150 84.089844 C 140.957031 84.089844 132.289062 80.5 125.894531 74.105469 C 119.5 67.710938 115.910156 59.042969 115.910156 50 C 115.910156 40.957031 119.5 32.289062 125.894531 25.894531 C 132.289062 19.5 140.957031 15.910156 150 15.910156 C 159.042969 15.910156 167.710938 19.5 174.105469 25.894531 C 180.5 32.289062 184.089844 40.957031 184.089844 50 Z M 172.726562 50 C 172.726562 43.972656 170.332031 38.191406 166.070312 33.929688 C 161.808594 29.667969 156.027344 27.273438 150 27.273438 C 143.972656 27.273438 138.191406 29.667969 133.929688 33.929688 C 129.667969 38.191406 127.273438 43.972656 127.273438 50 C 127.273438 56.027344 129.667969 61.808594 133.929688 66.070312 C 138.191406 70.332031 143.972656 72.726562 150 72.726562 C 156.027344 72.726562 161.808594 70.332031 166.070312 66.070312 C 170.332031 61.808594 172.726562 56.027344 172.726562 50 Z M 161.363281 50 C 161.363281 53.015625 160.167969 55.902344 158.035156 58.035156 C 155.902344 60.167969 153.015625 61.363281 150 61.363281 C 146.984375 61.363281 144.097656 60.167969 141.964844 58.035156 C 139.832031 55.902344 138.636719 53.015625 138.636719 50 C 138.636719 46.984375 139.832031 44.097656 141.964844 41.964844 C 144.097656 39.832031 146.984375 38.636719 150 38.636719 C 153.015625 38.636719 155.902344 39.832031 158.035156 41.964844 C 160.167969 44.097656 161.363281 46.984375 161.363281 50 Z M 161.363281 50 "/>
</g>
</svg>
