<?xml version="1.0" encoding="UTF-8"?>
<svg xmlns="http://www.w3.org/2000/svg" xmlns:xlink="http://www.w3.org/1999/xlink" width="200pt" height="100pt" viewBox="0 0 200 100" version="1.1">
<g id="surface305">
<path style=" stroke:none;fill-rule:nonzero;fill:rgb(0%,0%,0%);fill-opacity:1;" d="M 95.453125 50 C 95.453125 37.945312 90.664062 26.382812 82.140625 17.859375 C 73.617188 9.335938 62.054688 4.546875 50 4.546875 C 37.945312 4.546875 26.382812 9.335938 17.859375 17.859375 C 9.335938 26.382812 4.546875 37.945312 4.546875 50 C 4.546875 62.054688 9.335938 73.617188 17.859375 82.140625 C 26.382812 90.664062 37.945312 95.453125 50 95.453125 C 62.054688 95.453125 73.617188 90.664062 82.140625 82.140625 C 90.664062 73.617188 95.453125 62.054688 95.453125 50 Z M 95.453125 50 "/>
<path style=" stroke:none;fill-rule:nonzero;fill:rgb(0%,0%,0%);fill-opacity:1;" d="M 195.453125 50 C 195.453125 62.054688 190.664062 73.617188 182.140625 82.140625 C 173.617188 90.664062 162.054688 95.453125 150 95.453125 C 137.945312 95.453125 126.382812 90.664062 117.859375 82.140625 C 109.335938 73.617188 104.546875 62.054688 104.546875 50 C 104.546875 37.945312 109.335938 26.382812 117.859375 17.859375 C 126.382812 9.335938 137.945312 4.546875 150 4.546875 C 162.054688 4.546875 173.617188 9.335938 182.140625 17.859375 C 190.664062 26.382812 195.453125 37.945312 195.453125 50 Z M 195.453125 50 "/>
</g>
</svg>
