<?xml version="1.0" encoding="UTF-8"?>
<svg xmlns="http://www.w3.org/2000/svg" xmlns:xlink="http://www.w3.org/1999/xlink" width="200pt" height="100pt" viewBox="0 0 200 100" version="1.1">
<defs>
<clipPath id="clip1">
  <path d="M 0 50 C 66.667969 50 133.332031 50 200 50 C 200 33.332031 200 16.667969 200 0 C 133.332031 0 66.667969 0 0 0 C 0 16.667969 0 33.332031 0 50 "/>
</clipPath>
<clipPath id="clip2">
  <path d="M 0 96.667969 C 66.667969 96.667969 133.332031 96.667969 200 96.667969 C 200 80 200 63.332031 200 46.667969 C 133.332031 46.667969 66.667969 46.667969 0 46.667969 C 0 63.332031 0 80 0 96.667969 "/>
</clipPath>
</defs>
<g id="surface72459">
<g clip-path="url(#clip1)" clip-rule="evenodd">
<path style="fill-rule:evenodd;fill:rgb(93.333333%,19.607843%,30.588235%);fill-opacity:1;stroke-width:1;stroke-linecap:round;stroke-linejoin:round;stroke:rgb(93.333333%,19.607843%,30.588235%);stroke-opacity:1;stroke-miterlimit:10;" d="M 198.332031 33.332031 C 198.332031 24.933594 194.996094 16.878906 189.058594 10.941406 C 183.121094 5.003906 175.066406 1.667969 166.667969 1.667969 C 158.269531 1.667969 150.214844 5.003906 144.273438 10.941406 C 138.335938 16.878906 135 24.933594 135 33.332031 C 135 41.730469 138.335938 49.785156 144.273438 55.726562 C 150.214844 61.664062 158.269531 65 166.667969 65 C 175.066406 65 183.121094 61.664062 189.058594 55.726562 C 194.996094 49.785156 198.332031 41.730469 198.332031 33.332031 C 196.109375 33.332031 193.890625 33.332031 191.667969 33.332031 C 191.667969 26.703125 189.03125 20.34375 184.34375 15.65625 C 179.65625 10.96875 173.296875 8.332031 166.667969 8.332031 C 160.035156 8.332031 153.675781 10.96875 148.988281 15.65625 C 144.300781 20.34375 141.667969 26.703125 141.667969 33.332031 C 141.667969 39.964844 144.300781 46.324219 148.988281 51.011719 C 153.675781 55.699219 160.035156 58.332031 166.667969 58.332031 C 173.296875 58.332031 179.65625 55.699219 184.34375 51.011719 C 189.03125 46.324219 191.667969 39.964844 191.667969 33.332031 "/>
<path style="fill:none;stroke-width:4;stroke-linecap:round;stroke-linejoin:round;stroke:rgb(100%,100%,100%);stroke-opacity:1;stroke-miterlimit:10;" d="M 198.332031 33.332031 C 198.332031 24.933594 194.996094 16.878906 189.058594 10.941406 C 183.121094 5.003906 175.066406 1.667969 166.667969 1.667969 C 158.269531 1.667969 150.214844 5.003906 144.273438 10.941406 C 138.335938 16.878906 135 24.933594 135 33.332031 C 135 41.730469 138.335938 49.785156 144.273438 55.726562 C 150.214844 61.664062 158.269531 65 166.667969 65 C 175.066406 65 183.121094 61.664062 189.058594 55.726562 C 194.996094 49.785156 198.332031 41.730469 198.332031 33.332031 "/>
<path style="fill:none;stroke-width:4;stroke-linecap:round;stroke-linejoin:round;stroke:rgb(100%,100%,100%);stroke-opacity:1;stroke-miterlimit:10;" d="M 191.667969 33.332031 C 191.667969 26.703125 189.03125 20.34375 184.34375 15.65625 C 179.65625 10.96875 173.296875 8.332031 166.667969 8.332031 C 160.035156 8.332031 153.675781 10.96875 148.988281 15.65625 C 144.300781 20.34375 141.667969 26.703125 141.667969 33.332031 C 141.667969 39.964844 144.300781 46.324219 148.988281 51.011719 C 153.675781 55.699219 160.035156 58.332031 166.667969 58.332031 C 173.296875 58.332031 179.65625 55.699219 184.34375 51.011719 C 189.03125 46.324219 191.667969 39.964844 191.667969 33.332031 "/>
<path style="fill-rule:evenodd;fill:rgb(0%,61.568627%,34.117647%);fill-opacity:1;stroke-width:1;stroke-linecap:round;stroke-linejoin:round;stroke:rgb(0%,61.568627%,34.117647%);stroke-opacity:1;stroke-miterlimit:10;" d="M 165 63.332031 C 165 54.933594 161.664062 46.878906 155.726562 40.941406 C 149.785156 35.003906 141.730469 31.667969 133.332031 31.667969 C 124.933594 31.667969 116.878906 35.003906 110.941406 40.941406 C 105.003906 46.878906 101.667969 54.933594 101.667969 63.332031 C 101.667969 71.730469 105.003906 79.785156 110.941406 85.726562 C 116.878906 91.664062 124.933594 95 133.332031 95 C 141.730469 95 149.785156 91.664062 155.726562 85.726562 C 161.664062 79.785156 165 71.730469 165 63.332031 C 162.777344 63.332031 160.554688 63.332031 158.332031 63.332031 C 158.332031 56.703125 155.699219 50.34375 151.011719 45.65625 C 146.324219 40.96875 139.964844 38.332031 133.332031 38.332031 C 126.703125 38.332031 120.34375 40.96875 115.65625 45.65625 C 110.96875 50.34375 108.332031 56.703125 108.332031 63.332031 C 108.332031 69.964844 110.96875 76.324219 115.65625 81.011719 C 120.34375 85.699219 126.703125 88.332031 133.332031 88.332031 C 139.964844 88.332031 146.324219 85.699219 151.011719 81.011719 C 155.699219 76.324219 158.332031 69.964844 158.332031 63.332031 "/>
<path style="fill:none;stroke-width:4;stroke-linecap:round;stroke-linejoin:round;stroke:rgb(100%,100%,100%);stroke-opacity:1;stroke-miterlimit:10;" d="M 165 63.332031 C 165 54.933594 161.664062 46.878906 155.726562 40.941406 C 149.785156 35.003906 141.730469 31.667969 133.332031 31.667969 C 124.933594 31.667969 116.878906 35.003906 110.941406 40.941406 C 105.003906 46.878906 101.667969 54.933594 101.667969 63.332031 C 101.667969 71.730469 105.003906 79.785156 110.941406 85.726562 C 116.878906 91.664062 124.933594 95 133.332031 95 C 141.730469 95 149.785156 91.664062 155.726562 85.726562 C 161.664062 79.785156 165 71.730469 165 63.332031 "/>
<path style="fill:none;stroke-width:4;stroke-linecap:round;stroke-linejoin:round;stroke:rgb(100%,100%,100%);stroke-opacity:1;stroke-miterlimit:10;" d="M 158.332031 63.332031 C 158.332031 56.703125 155.699219 50.34375 151.011719 45.65625 C 146.324219 40.96875 139.964844 38.332031 133.332031 38.332031 C 126.703125 38.332031 120.34375 40.96875 115.65625 45.65625 C 110.96875 50.34375 108.332031 56.703125 108.332031 63.332031 C 108.332031 69.964844 110.96875 76.324219 115.65625 81.011719 C 120.34375 85.699219 126.703125 88.332031 133.332031 88.332031 C 139.964844 88.332031 146.324219 85.699219 151.011719 81.011719 C 155.699219 76.324219 158.332031 69.964844 158.332031 63.332031 "/>
<path style="fill-rule:evenodd;fill:rgb(13.72549%,13.333333%,13.72549%);fill-opacity:1;stroke-width:1;stroke-linecap:round;stroke-linejoin:round;stroke:rgb(13.72549%,13.333333%,13.72549%);stroke-opacity:1;stroke-miterlimit:10;" d="M 131.667969 33.332031 C 131.667969 24.933594 128.332031 16.878906 122.390625 10.941406 C 116.453125 5.003906 108.398438 1.667969 100 1.667969 C 91.601562 1.667969 83.546875 5.003906 77.609375 10.941406 C 71.667969 16.878906 68.332031 24.933594 68.332031 33.332031 C 68.332031 41.730469 71.667969 49.785156 77.609375 55.726562 C 83.546875 61.664062 91.601562 65 100 65 C 108.398438 65 116.453125 61.664062 122.390625 55.726562 C 128.332031 49.785156 131.667969 41.730469 131.667969 33.332031 C 129.445312 33.332031 127.222656 33.332031 125 33.332031 C 125 26.703125 122.367188 20.34375 117.675781 15.65625 C 112.988281 10.96875 106.628906 8.332031 100 8.332031 C 93.371094 8.332031 87.011719 10.96875 82.324219 15.65625 C 77.632812 20.34375 75 26.703125 75 33.332031 C 75 39.964844 77.632812 46.324219 82.324219 51.011719 C 87.011719 55.699219 93.371094 58.332031 100 58.332031 C 106.628906 58.332031 112.988281 55.699219 117.675781 51.011719 C 122.367188 46.324219 125 39.964844 125 33.332031 "/>
<path style="fill:none;stroke-width:4;stroke-linecap:round;stroke-linejoin:round;stroke:rgb(100%,100%,100%);stroke-opacity:1;stroke-miterlimit:10;" d="M 131.667969 33.332031 C 131.667969 24.933594 128.332031 16.878906 122.390625 10.941406 C 116.453125 5.003906 108.398438 1.667969 100 1.667969 C 91.601562 1.667969 83.546875 5.003906 77.609375 10.941406 C 71.667969 16.878906 68.332031 24.933594 68.332031 33.332031 C 68.332031 41.730469 71.667969 49.785156 77.609375 55.726562 C 83.546875 61.664062 91.601562 65 100 65 C 108.398438 65 116.453125 61.664062 122.390625 55.726562 C 128.332031 49.785156 131.667969 41.730469 131.667969 33.332031 "/>
<path style="fill:none;stroke-width:4;stroke-linecap:round;stroke-linejoin:round;stroke:rgb(100%,100%,100%);stroke-opacity:1;stroke-miterlimit:10;" d="M 125 33.332031 C 125 26.703125 122.367188 20.34375 117.675781 15.65625 C 112.988281 10.96875 106.628906 8.332031 100 8.332031 C 93.371094 8.332031 87.011719 10.96875 82.324219 15.65625 C 77.632812 20.34375 75 26.703125 75 33.332031 C 75 39.964844 77.632812 46.324219 82.324219 51.011719 C 87.011719 55.699219 93.371094 58.332031 100 58.332031 C 106.628906 58.332031 112.988281 55.699219 117.675781 51.011719 C 122.367188 46.324219 125 39.964844 125 33.332031 "/>
<path style="fill-rule:evenodd;fill:rgb(98.823529%,69.411765%,19.215686%);fill-opacity:1;stroke-width:1;stroke-linecap:round;stroke-linejoin:round;stroke:rgb(98.823529%,69.411765%,19.215686%);stroke-opacity:1;stroke-miterlimit:10;" d="M 98.332031 63.332031 C 98.332031 54.933594 94.996094 46.878906 89.058594 40.941406 C 83.121094 35.003906 75.066406 31.667969 66.667969 31.667969 C 58.269531 31.667969 50.214844 35.003906 44.273438 40.941406 C 38.335938 46.878906 35 54.933594 35 63.332031 C 35 71.730469 38.335938 79.785156 44.273438 85.726562 C 50.214844 91.664062 58.269531 95 66.667969 95 C 75.066406 95 83.121094 91.664062 89.058594 85.726562 C 94.996094 79.785156 98.332031 71.730469 98.332031 63.332031 C 96.109375 63.332031 93.890625 63.332031 91.667969 63.332031 C 91.667969 56.703125 89.03125 50.34375 84.34375 45.65625 C 79.65625 40.96875 73.296875 38.332031 66.667969 38.332031 C 60.035156 38.332031 53.675781 40.96875 48.988281 45.65625 C 44.300781 50.34375 41.667969 56.703125 41.667969 63.332031 C 41.667969 69.964844 44.300781 76.324219 48.988281 81.011719 C 53.675781 85.699219 60.035156 88.332031 66.667969 88.332031 C 73.296875 88.332031 79.65625 85.699219 84.34375 81.011719 C 89.03125 76.324219 91.667969 69.964844 91.667969 63.332031 "/>
<path style="fill:none;stroke-width:4;stroke-linecap:round;stroke-linejoin:round;stroke:rgb(100%,100%,100%);stroke-opacity:1;stroke-miterlimit:10;" d="M 98.332031 63.332031 C 98.332031 54.933594 94.996094 46.878906 89.058594 40.941406 C 83.121094 35.003906 75.066406 31.667969 66.667969 31.667969 C 58.269531 31.667969 50.214844 35.003906 44.273438 40.941406 C 38.335938 46.878906 35 54.933594 35 63.332031 C 35 71.730469 38.335938 79.785156 44.273438 85.726562 C 50.214844 91.664062 58.269531 95 66.667969 95 C 75.066406 95 83.121094 91.664062 89.058594 85.726562 C 94.996094 79.785156 98.332031 71.730469 98.332031 63.332031 "/>
<path style="fill:none;stroke-width:4;stroke-linecap:round;stroke-linejoin:round;stroke:rgb(100%,100%,100%);stroke-opacity:1;stroke-miterlimit:10;" d="M 91.667969 63.332031 C 91.667969 56.703125 89.03125 50.34375 84.34375 45.65625 C 79.65625 40.96875 73.296875 38.332031 66.667969 38.332031 C 60.035156 38.332031 53.675781 40.96875 48.988281 45.65625 C 44.300781 50.34375 41.667969 56.703125 41.667969 63.332031 C 41.667969 69.964844 44.300781 76.324219 48.988281 81.011719 C 53.675781 85.699219 60.035156 88.332031 66.667969 88.332031 C 73.296875 88.332031 79.65625 85.699219 84.34375 81.011719 C 89.03125 76.324219 91.667969 69.964844 91.667969 63.332031 "/>
<path style="fill-rule:evenodd;fill:rgb(0%,50.588235%,73.72549%);fill-opacity:1;stroke-width:1;stroke-linecap:round;stroke-linejoin:round;stroke:rgb(0%,50.588235%,73.72549%);stroke-opacity:1;stroke-miterlimit:10;" d="M 65 33.332031 C 65 24.933594 61.664062 16.878906 55.726562 10.941406 C 49.785156 5.003906 41.730469 1.667969 33.332031 1.667969 C 24.933594 1.667969 16.878906 5.003906 10.941406 10.941406 C 5.003906 16.878906 1.667969 24.933594 1.667969 33.332031 C 1.667969 41.730469 5.003906 49.785156 10.941406 55.726562 C 16.878906 61.664062 24.933594 65 33.332031 65 C 41.730469 65 49.785156 61.664062 55.726562 55.726562 C 61.664062 49.785156 65 41.730469 65 33.332031 C 62.777344 33.332031 60.554688 33.332031 58.332031 33.332031 C 58.332031 26.703125 55.699219 20.34375 51.011719 15.65625 C 46.324219 10.96875 39.964844 8.332031 33.332031 8.332031 C 26.703125 8.332031 20.34375 10.96875 15.65625 15.65625 C 10.96875 20.34375 8.332031 26.703125 8.332031 33.332031 C 8.332031 39.964844 10.96875 46.324219 15.65625 51.011719 C 20.34375 55.699219 26.703125 58.332031 33.332031 58.332031 C 39.964844 58.332031 46.324219 55.699219 51.011719 51.011719 C 55.699219 46.324219 58.332031 39.964844 58.332031 33.332031 "/>
<path style="fill:none;stroke-width:4;stroke-linecap:round;stroke-linejoin:round;stroke:rgb(100%,100%,100%);stroke-opacity:1;stroke-miterlimit:10;" d="M 65 33.332031 C 65 24.933594 61.664062 16.878906 55.726562 10.941406 C 49.785156 5.003906 41.730469 1.667969 33.332031 1.667969 C 24.933594 1.667969 16.878906 5.003906 10.941406 10.941406 C 5.003906 16.878906 1.667969 24.933594 1.667969 33.332031 C 1.667969 41.730469 5.003906 49.785156 10.941406 55.726562 C 16.878906 61.664062 24.933594 65 33.332031 65 C 41.730469 65 49.785156 61.664062 55.726562 55.726562 C 61.664062 49.785156 65 41.730469 65 33.332031 "/>
<path style="fill:none;stroke-width:4;stroke-linecap:round;stroke-linejoin:round;stroke:rgb(100%,100%,100%);stroke-opacity:1;stroke-miterlimit:10;" d="M 58.332031 33.332031 C 58.332031 26.703125 55.699219 20.34375 51.011719 15.65625 C 46.324219 10.96875 39.964844 8.332031 33.332031 8.332031 C 26.703125 8.332031 20.34375 10.96875 15.65625 15.65625 C 10.96875 20.34375 8.332031 26.703125 8.332031 33.332031 C 8.332031 39.964844 10.96875 46.324219 15.65625 51.011719 C 20.34375 55.699219 26.703125 58.332031 33.332031 58.332031 C 39.964844 58.332031 46.324219 55.699219 51.011719 51.011719 C 55.699219 46.324219 58.332031 39.964844 58.332031 33.332031 "/>
</g>
<g clip-path="url(#clip2)" clip-rule="evenodd">
<path style="fill-rule:evenodd;fill:rgb(0%,50.588235%,73.72549%);fill-opacity:1;stroke-width:1;stroke-linecap:round;stroke-linejoin:round;stroke:rgb(0%,50.588235%,73.72549%);stroke-opacity:1;stroke-miterlimit:10;" d="M 65 33.332031 C 65 24.933594 61.664062 16.878906 55.726562 10.941406 C 49.785156 5.003906 41.730469 1.667969 33.332031 1.667969 C 24.933594 1.667969 16.878906 5.003906 10.941406 10.941406 C 5.003906 16.878906 1.667969 24.933594 1.667969 33.332031 C 1.667969 41.730469 5.003906 49.785156 10.941406 55.726562 C 16.878906 61.664062 24.933594 65 33.332031 65 C 41.730469 65 49.785156 61.664062 55.726562 55.726562 C 61.664062 49.785156 65 41.730469 65 33.332031 C 62.777344 33.332031 60.554688 33.332031 58.332031 33.332031 C 58.332031 26.703125 55.699219 20.34375 51.011719 15.65625 C 46.324219 10.96875 39.964844 8.332031 33.332031 8.332031 C 26.703125 8.332031 20.34375 10.96875 15.65625 15.65625 C 10.96875 20.34375 8.332031 26.703125 8.332031 33.332031 C 8.332031 39.964844 10.96875 46.324219 15.65625 51.011719 C 20.34375 55.699219 26.703125 58.332031 33.332031 58.332031 C 39.964844 58.332031 46.324219 55.699219 51.011719 51.011719 C 55.699219 46.324219 58.332031 39.964844 58.332031 33.332031 "/>
<path style="fill:none;stroke-width:4;stroke-linecap:round;stroke-linejoin:round;stroke:rgb(100%,100%,100%);stroke-opacity:1;stroke-miterlimit:10;" d="M 65 33.332031 C 65 24.933594 61.664062 16.878906 55.726562 10.941406 C 49.785156 5.003906 41.730469 1.667969 33.332031 1.667969 C 24.933594 1.667969 16.878906 5.003906 10.941406 10.941406 C 5.003906 16.878906 1.667969 24.933594 1.667969 33.332031 C 1.667969 41.730469 5.003906 49.785156 10.941406 55.726562 C 16.878906 61.664062 24.933594 65 33.332031 65 C 41.730469 65 49.785156 61.664062 55.726562 55.726562 C 61.664062 49.785156 65 41.730469 65 33.332031 "/>
<path style="fill:none;stroke-width:4;stroke-linecap:round;stroke-linejoin:round;stroke:rgb(100%,100%,100%);stroke-opacity:1;stroke-miterlimit:10;" d="M 58.332031 33.332031 C 58.332031 26.703125 55.699219 20.34375 51.011719 15.65625 C 46.324219 10.96875 39.964844 8.332031 33.332031 8.332031 C 26.703125 8.332031 20.34375 10.96875 15.65625 15.65625 C 10.96875 20.34375 8.332031 26.703125 8.332031 33.332031 C 8.332031 39.964844 10.96875 46.324219 15.65625 51.011719 C 20.34375 55.699219 26.703125 58.332031 33.332031 58.332031 C 39.964844 58.332031 46.324219 55.699219 51.011719 51.011719 C 55.699219 46.324219 58.332031 39.964844 58.332031 33.332031 "/>
<path style="fill-rule:evenodd;fill:rgb(98.823529%,69.411765%,19.215686%);fill-opacity:1;stroke-width:1;stroke-linecap:round;stroke-linejoin:round;stroke:rgb(98.823529%,69.411765%,19.215686%);stroke-opacity:1;stroke-miterlimit:10;" d="M 98.332031 63.332031 C 98.332031 54.933594 94.996094 46.878906 89.058594 40.941406 C 83.121094 35.003906 75.066406 31.667969 66.667969 31.667969 C 58.269531 31.667969 50.214844 35.003906 44.273438 40.941406 C 38.335938 46.878906 35 54.933594 35 63.332031 C 35 71.730469 38.335938 79.785156 44.273438 85.726562 C 50.214844 91.664062 58.269531 95 66.667969 95 C 75.066406 95 83.121094 91.664062 89.058594 85.726562 C 94.996094 79.785156 98.332031 71.730469 98.332031 63.332031 C 96.109375 63.332031 93.890625 63.332031 91.667969 63.332031 C 91.667969 56.703125 89.03125 50.34375 84.34375 45.65625 C 79.65625 40.96875 73.296875 38.332031 66.667969 38.332031 C 60.035156 38.332031 53.675781 40.96875 48.988281 45.65625 C 44.300781 50.34375 41.667969 56.703125 41.667969 63.332031 C 41.667969 69.964844 44.300781 76.324219 48.988281 81.011719 C 53.675781 85.699219 60.035156 88.332031 66.667969 88.332031 C 73.296875 88.332031 79.65625 85.699219 84.34375 81.011719 C 89.03125 76.324219 91.667969 69.964844 91.667969 63.332031 "/>
<path style="fill:none;stroke-width:4;stroke-linecap:round;stroke-linejoin:round;stroke:rgb(100%,100%,100%);stroke-opacity:1;stroke-miterlimit:10;" d="M 98.332031 63.332031 C 98.332031 54.933594 94.996094 46.878906 89.058594 40.941406 C 83.121094 35.003906 75.066406 31.667969 66.667969 31.667969 C 58.269531 31.667969 50.214844 35.003906 44.273438 40.941406 C 38.335938 46.878906 35 54.933594 35 63.332031 C 35 71.730469 38.335938 79.785156 44.273438 85.726562 C 50.214844 91.664062 58.269531 95 66.667969 95 C 75.066406 95 83.121094 91.664062 89.058594 85.726562 C 94.996094 79.785156 98.332031 71.730469 98.332031 63.332031 "/>
<path style="fill:none;stroke-width:4;stroke-linecap:round;stroke-linejoin:round;stroke:rgb(100%,100%,100%);stroke-opacity:1;stroke-miterlimit:10;" d="M 91.667969 63.332031 C 91.667969 56.703125 89.03125 50.34375 84.34375 45.65625 C 79.65625 40.96875 73.296875 38.332031 66.667969 38.332031 C 60.035156 38.332031 53.675781 40.96875 48.988281 45.65625 C 44.300781 50.34375 41.667969 56.703125 41.667969 63.332031 C 41.667969 69.964844 44.300781 76.324219 48.988281 81.011719 C 53.675781 85.699219 60.035156 88.332031 66.667969 88.332031 C 73.296875 88.332031 79.65625 85.699219 84.34375 81.011719 C 89.03125 76.324219 91.667969 69.964844 91.667969 63.332031 "/>
<path style="fill-rule:evenodd;fill:rgb(13.72549%,13.333333%,13.72549%);fill-opacity:1;stroke-width:1;stroke-linecap:round;stroke-linejoin:round;stroke:rgb(13.72549%,13.333333%,13.72549%);stroke-opacity:1;stroke-miterlimit:10;" d="M 131.667969 33.332031 C 131.667969 24.933594 128.332031 16.878906 122.390625 10.941406 C 116.453125 5.003906 108.398438 1.667969 100 1.667969 C 91.601562 1.667969 83.546875 5.003906 77.609375 10.941406 C 71.667969 16.878906 68.332031 24.933594 68.332031 33.332031 C 68.332031 41.730469 71.667969 49.785156 77.609375 55.726562 C 83.546875 61.664062 91.601562 65 100 65 C 108.398438 65 116.453125 61.664062 122.390625 55.726562 C 128.332031 49.785156 131.667969 41.730469 131.667969 33.332031 C 129.445312 33.332031 127.222656 33.332031 125 33.332031 C 125 26.703125 122.367188 20.34375 117.675781 15.65625 C 112.988281 10.96875 106.628906 8.332031 100 8.332031 C 93.371094 8.332031 87.011719 10.96875 82.324219 15.65625 C 77.632812 20.34375 75 26.703125 75 33.332031 C 75 39.964844 77.632812 46.324219 82.324219 51.011719 C 87.011719 55.699219 93.371094 58.332031 100 58.332031 C 106.628906 58.332031 112.988281 55.699219 117.675781 51.011719 C 122.367188 46.324219 125 39.964844 125 33.332031 "/>
<path style="fill:none;stroke-width:4;stroke-linecap:round;stroke-linejoin:round;stroke:rgb(100%,100%,100%);stroke-opacity:1;stroke-miterlimit:10;" d="M 131.667969 33.332031 C 131.667969 24.933594 128.332031 16.878906 122.390625 10.941406 C 116.453125 5.003906 108.398438 1.667969 100 1.667969 C 91.601562 1.667969 83.546875 5.003906 77.609375 10.941406 C 71.667969 16.878906 68.332031 24.933594 68.332031 33.332031 C 68.332031 41.730469 71.667969 49.785156 77.609375 55.726562 C 83.546875 61.664062 91.601562 65 100 65 C 108.398438 65 116.453125 61.664062 122.390625 55.726562 C 128.332031 49.785156 131.667969 41.730469 131.667969 33.332031 "/>
<path style="fill:none;stroke-width:4;stroke-linecap:round;stroke-linejoin:round;stroke:rgb(100%,100%,100%);stroke-opacity:1;stroke-miterlimit:10;" d="M 125 33.332031 C 125 26.703125 122.367188 20.34375 117.675781 15.65625 C 112.988281 10.96875 106.628906 8.332031 100 8.332031 C 93.371094 8.332031 87.011719 10.96875 82.324219 15.65625 C 77.632812 20.34375 75 26.703125 75 33.332031 C 75 39.964844 77.632812 46.324219 82.324219 51.011719 C 87.011719 55.699219 93.371094 58.332031 100 58.332031 C 106.628906 58.332031 112.988281 55.699219 117.675781 51.011719 C 122.367188 46.324219 125 39.964844 125 33.332031 "/>
<path style="fill-rule:evenodd;fill:rgb(0%,61.568627%,34.117647%);fill-opacity:1;stroke-width:1;stroke-linecap:round;stroke-linejoin:round;stroke:rgb(0%,61.568627%,34.117647%);stroke-opacity:1;stroke-miterlimit:10;" d="M 165 63.332031 C 165 54.933594 161.664062 46.878906 155.726562 40.941406 C 149.785156 35.003906 141.730469 31.667969 133.332031 31.667969 C 124.933594 31.667969 116.878906 35.003906 110.941406 40.941406 C 105.003906 46.878906 101.667969 54.933594 101.667969 63.332031 C 101.667969 71.730469 105.003906 79.785156 110.941406 85.726562 C 116.878906 91.664062 124.933594 95 133.332031 95 C 141.730469 95 149.785156 91.664062 155.726562 85.726562 C 161.664062 79.785156 165 71.730469 165 63.332031 C 162.777344 63.332031 160.554688 63.332031 158.332031 63.332031 C 158.332031 56.703125 155.699219 50.34375 151.011719 45.65625 C 146.324219 40.96875 139.964844 38.332031 133.332031 38.332031 C 126.703125 38.332031 120.34375 40.96875 115.65625 45.65625 C 110.96875 50.34375 108.332031 56.703125 108.332031 63.332031 C 108.332031 69.964844 110.96875 76.324219 115.65625 81.011719 C 120.34375 85.699219 126.703125 88.332031 133.332031 88.332031 C 139.964844 88.332031 146.324219 85.699219 151.011719 81.011719 C 155.699219 76.324219 158.332031 69.964844 158.332031 63.332031 "/>
<path style="fill:none;stroke-width:4;stroke-linecap:round;stroke-linejoin:round;stroke:rgb(100%,100%,100%);stroke-opacity:1;stroke-miterlimit:10;" d="M 165 63.332031 C 165 54.933594 161.664062 46.878906 155.726562 40.941406 C 149.785156 35.003906 141.730469 31.667969 133.332031 31.667969 C 124.933594 31.667969 116.878906 35.003906 110.941406 40.941406 C 105.003906 46.878906 101.667969 54.933594 101.667969 63.332031 C 101.667969 71.730469 105.003906 79.785156 110.941406 85.726562 C 116.878906 91.664062 124.933594 95 133.332031 95 C 141.730469 95 149.785156 91.664062 155.726562 85.726562 C 161.664062 79.785156 165 71.730469 165 63.332031 "/>
<path style="fill:none;stroke-width:4;stroke-linecap:round;stroke-linejoin:round;stroke:rgb(100%,100%,100%);stroke-opacity:1;stroke-miterlimit:10;" d="M 158.332031 63.332031 C 158.332031 56.703125 155.699219 50.34375 151.011719 45.65625 C 146.324219 40.96875 139.964844 38.332031 133.332031 38.332031 C 126.703125 38.332031 120.34375 40.96875 115.65625 45.65625 C 110.96875 50.34375 108.332031 56.703125 108.332031 63.332031 C 108.332031 69.964844 110.96875 76.324219 115.65625 81.011719 C 120.34375 85.699219 126.703125 88.332031 133.332031 88.332031 C 139.964844 88.332031 146.324219 85.699219 151.011719 81.011719 C 155.699219 76.324219 158.332031 69.964844 158.332031 63.332031 "/>
<path style="fill-rule:evenodd;fill:rgb(93.333333%,19.607843%,30.588235%);fill-opacity:1;stroke-width:1;stroke-linecap:round;stroke-linejoin:round;stroke:rgb(93.333333%,19.607843%,30.588235%);stroke-opacity:1;stroke-miterlimit:10;" d="M 198.332031 33.332031 C 198.332031 24.933594 194.996094 16.878906 189.058594 10.941406 C 183.121094 5.003906 175.066406 1.667969 166.667969 1.667969 C 158.269531 1.667969 150.214844 5.003906 144.273438 10.941406 C 138.335938 16.878906 135 24.933594 135 33.332031 C 135 41.730469 138.335938 49.785156 144.273438 55.726562 C 150.214844 61.664062 158.269531 65 166.667969 65 C 175.066406 65 183.121094 61.664062 189.058594 55.726562 C 194.996094 49.785156 198.332031 41.730469 198.332031 33.332031 C 196.109375 33.332031 193.890625 33.332031 191.667969 33.332031 C 191.667969 26.703125 189.03125 20.34375 184.34375 15.65625 C 179.65625 10.96875 173.296875 8.332031 166.667969 8.332031 C 160.035156 8.332031 153.675781 10.96875 148.988281 15.65625 C 144.300781 20.34375 141.667969 26.703125 141.667969 33.332031 C 141.667969 39.964844 144.300781 46.324219 148.988281 51.011719 C 153.675781 55.699219 160.035156 58.332031 166.667969 58.332031 C 173.296875 58.332031 179.65625 55.699219 184.34375 51.011719 C 189.03125 46.324219 191.667969 39.964844 191.667969 33.332031 "/>
<path style="fill:none;stroke-width:4;stroke-linecap:round;stroke-linejoin:round;stroke:rgb(100%,100%,100%);stroke-opacity:1;stroke-miterlimit:10;" d="M 198.332031 33.332031 C 198.332031 24.933594 194.996094 16.878906 189.058594 10.941406 C 183.121094 5.003906 175.066406 1.667969 166.667969 1.667969 C 158.269531 1.667969 150.214844 5.003906 144.273438 10.941406 C 138.335938 16.878906 135 24.933594 135 33.332031 C 135 41.730469 138.335938 49.785156 144.273438 55.726562 C 150.214844 61.664062 158.269531 65 166.667969 65 C 175.066406 65 183.121094 61.664062 189.058594 55.726562 C 194.996094 49.785156 198.332031 41.730469 198.332031 33.332031 "/>
<path style="fill:none;stroke-width:4;stroke-linecap:round;stroke-linejoin:round;stroke:rgb(100%,100%,100%);stroke-opacity:1;stroke-miterlimit:10;" d="M 191.667969 33.332031 C 191.667969 26.703125 189.03125 20.34375 184.34375 15.65625 C 179.65625 10.96875 173.296875 8.332031 166.667969 8.332031 C 160.035156 8.332031 153.675781 10.96875 148.988281 15.65625 C 144.300781 20.34375 141.667969 26.703125 141.667969 33.332031 C 141.667969 39.964844 144.300781 46.324219 148.988281 51.011719 C 153.675781 55.699219 160.035156 58.332031 166.667969 58.332031 C 173.296875 58.332031 179.65625 55.699219 184.34375 51.011719 C 189.03125 46.324219 191.667969 39.964844 191.667969 33.332031 "/>
</g>
</g>
</svg>
