<?xml version="1.0" encoding="UTF-8"?>
<svg xmlns="http://www.w3.org/2000/svg" xmlns:xlink="http://www.w3.org/1999/xlink" width="404pt" height="350.666667pt" viewBox="0 0 404 350.666667" version="1.1">
<g id="surface277">
<path style="fill:none;stroke-width:1;stroke-linecap:round;stroke-linejoin:round;stroke:rgb(74.509804%,74.509804%,74.509804%);stroke-opacity:1;stroke-miterlimit:10;" d="M 28.667969 348.667969 C 28.667969 233.109375 28.667969 117.554688 28.667969 2 "/>
<path style="fill:none;stroke-width:1;stroke-linecap:round;stroke-linejoin:round;stroke:rgb(74.509804%,74.509804%,74.509804%);stroke-opacity:1;stroke-miterlimit:10;" d="M 55.332031 348.667969 C 55.332031 233.109375 55.332031 117.554688 55.332031 2 "/>
<path style="fill:none;stroke-width:1;stroke-linecap:round;stroke-linejoin:round;stroke:rgb(74.509804%,74.509804%,74.509804%);stroke-opacity:1;stroke-miterlimit:10;" d="M 82 348.667969 C 82 233.109375 82 117.554688 82 2 "/>
<path style="fill:none;stroke-width:1;stroke-linecap:round;stroke-linejoin:round;stroke:rgb(74.509804%,74.509804%,74.509804%);stroke-opacity:1;stroke-miterlimit:10;" d="M 108.667969 348.667969 C 108.667969 233.109375 108.667969 117.554688 108.667969 2 "/>
<path style="fill:none;stroke-width:1;stroke-linecap:round;stroke-linejoin:round;stroke:rgb(74.509804%,74.509804%,74.509804%);stroke-opacity:1;stroke-miterlimit:10;" d="M 135.332031 348.667969 C 135.332031 233.109375 135.332031 117.554688 135.332031 2 "/>
<path style="fill:none;stroke-width:1;stroke-linecap:round;stroke-linejoin:round;stroke:rgb(74.509804%,74.509804%,74.509804%);stroke-opacity:1;stroke-miterlimit:10;" d="M 162 348.667969 C 162 233.109375 162 117.554688 162 2 "/>
<path style="fill:none;stroke-width:1;stroke-linecap:round;stroke-linejoin:round;stroke:rgb(74.509804%,74.509804%,74.509804%);stroke-opacity:1;stroke-miterlimit:10;" d="M 188.667969 348.667969 C 188.667969 233.109375 188.667969 117.554688 188.667969 2 "/>
<path style="fill:none;stroke-width:1;stroke-linecap:round;stroke-linejoin:round;stroke:rgb(74.509804%,74.509804%,74.509804%);stroke-opacity:1;stroke-miterlimit:10;" d="M 215.332031 348.667969 C 215.332031 233.109375 215.332031 117.554688 215.332031 2 "/>
<path style="fill:none;stroke-width:1;stroke-linecap:round;stroke-linejoin:round;stroke:rgb(74.509804%,74.509804%,74.509804%);stroke-opacity:1;stroke-miterlimit:10;" d="M 242 348.667969 C 242 233.109375 242 117.554688 242 2 "/>
<path style="fill:none;stroke-width:1;stroke-linecap:round;stroke-linejoin:round;stroke:rgb(74.509804%,74.509804%,74.509804%);stroke-opacity:1;stroke-miterlimit:10;" d="M 268.667969 348.667969 C 268.667969 233.109375 268.667969 117.554688 268.667969 2 "/>
<path style="fill:none;stroke-width:1;stroke-linecap:round;stroke-linejoin:round;stroke:rgb(74.509804%,74.509804%,74.509804%);stroke-opacity:1;stroke-miterlimit:10;" d="M 295.332031 348.667969 C 295.332031 233.109375 295.332031 117.554688 295.332031 2 "/>
<path style="fill:none;stroke-width:1;stroke-linecap:round;stroke-linejoin:round;stroke:rgb(74.509804%,74.509804%,74.509804%);stroke-opacity:1;stroke-miterlimit:10;" d="M 322 348.667969 C 322 233.109375 322 117.554688 322 2 "/>
<path style="fill:none;stroke-width:1;stroke-linecap:round;stroke-linejoin:round;stroke:rgb(74.509804%,74.509804%,74.509804%);stroke-opacity:1;stroke-miterlimit:10;" d="M 348.667969 348.667969 C 348.667969 233.109375 348.667969 117.554688 348.667969 2 "/>
<path style="fill:none;stroke-width:1;stroke-linecap:round;stroke-linejoin:round;stroke:rgb(74.509804%,74.509804%,74.509804%);stroke-opacity:1;stroke-miterlimit:10;" d="M 375.332031 348.667969 C 375.332031 233.109375 375.332031 117.554688 375.332031 2 "/>
<path style="fill:none;stroke-width:1;stroke-linecap:round;stroke-linejoin:round;stroke:rgb(74.509804%,74.509804%,74.509804%);stroke-opacity:1;stroke-miterlimit:10;" d="M 402 348.667969 C 402 233.109375 402 117.554688 402 2 "/>
<path style="fill:none;stroke-width:1;stroke-linecap:round;stroke-linejoin:round;stroke:rgb(74.509804%,74.509804%,74.509804%);stroke-opacity:1;stroke-miterlimit:10;" d="M 28.667969 348.667969 C 28.667969 233.109375 28.667969 117.554688 28.667969 2 "/>
<path style="fill:none;stroke-width:1;stroke-linecap:round;stroke-linejoin:round;stroke:rgb(74.509804%,74.509804%,74.509804%);stroke-opacity:1;stroke-miterlimit:10;" d="M 2 348.667969 C 2 233.109375 2 117.554688 2 2 "/>
<path style="fill:none;stroke-width:1;stroke-linecap:round;stroke-linejoin:round;stroke:rgb(74.509804%,74.509804%,74.509804%);stroke-opacity:1;stroke-miterlimit:10;" d="M 2 322 C 135.332031 322 268.667969 322 402 322 "/>
<path style="fill:none;stroke-width:1;stroke-linecap:round;stroke-linejoin:round;stroke:rgb(74.509804%,74.509804%,74.509804%);stroke-opacity:1;stroke-miterlimit:10;" d="M 2 295.332031 C 135.332031 295.332031 268.667969 295.332031 402 295.332031 "/>
<path style="fill:none;stroke-width:1;stroke-linecap:round;stroke-linejoin:round;stroke:rgb(74.509804%,74.509804%,74.509804%);stroke-opacity:1;stroke-miterlimit:10;" d="M 2 268.667969 C 135.332031 268.667969 268.667969 268.667969 402 268.667969 "/>
<path style="fill:none;stroke-width:1;stroke-linecap:round;stroke-linejoin:round;stroke:rgb(74.509804%,74.509804%,74.509804%);stroke-opacity:1;stroke-miterlimit:10;" d="M 2 242 C 135.332031 242 268.667969 242 402 242 "/>
<path style="fill:none;stroke-width:1;stroke-linecap:round;stroke-linejoin:round;stroke:rgb(74.509804%,74.509804%,74.509804%);stroke-opacity:1;stroke-miterlimit:10;" d="M 2 215.332031 C 135.332031 215.332031 268.667969 215.332031 402 215.332031 "/>
<path style="fill:none;stroke-width:1;stroke-linecap:round;stroke-linejoin:round;stroke:rgb(74.509804%,74.509804%,74.509804%);stroke-opacity:1;stroke-miterlimit:10;" d="M 2 188.667969 C 135.332031 188.667969 268.667969 188.667969 402 188.667969 "/>
<path style="fill:none;stroke-width:1;stroke-linecap:round;stroke-linejoin:round;stroke:rgb(74.509804%,74.509804%,74.509804%);stroke-opacity:1;stroke-miterlimit:10;" d="M 2 162 C 135.332031 162 268.667969 162 402 162 "/>
<path style="fill:none;stroke-width:1;stroke-linecap:round;stroke-linejoin:round;stroke:rgb(74.509804%,74.509804%,74.509804%);stroke-opacity:1;stroke-miterlimit:10;" d="M 2 135.332031 C 135.332031 135.332031 268.667969 135.332031 402 135.332031 "/>
<path style="fill:none;stroke-width:1;stroke-linecap:round;stroke-linejoin:round;stroke:rgb(74.509804%,74.509804%,74.509804%);stroke-opacity:1;stroke-miterlimit:10;" d="M 2 108.667969 C 135.332031 108.667969 268.667969 108.667969 402 108.667969 "/>
<path style="fill:none;stroke-width:1;stroke-linecap:round;stroke-linejoin:round;stroke:rgb(74.509804%,74.509804%,74.509804%);stroke-opacity:1;stroke-miterlimit:10;" d="M 2 82 C 135.332031 82 268.667969 82 402 82 "/>
<path style="fill:none;stroke-width:1;stroke-linecap:round;stroke-linejoin:round;stroke:rgb(74.509804%,74.509804%,74.509804%);stroke-opacity:1;stroke-miterlimit:10;" d="M 2 55.332031 C 135.332031 55.332031 268.667969 55.332031 402 55.332031 "/>
<path style="fill:none;stroke-width:1;stroke-linecap:round;stroke-linejoin:round;stroke:rgb(74.509804%,74.509804%,74.509804%);stroke-opacity:1;stroke-miterlimit:10;" d="M 2 28.667969 C 135.332031 28.667969 268.667969 28.667969 402 28.667969 "/>
<path style="fill:none;stroke-width:1;stroke-linecap:round;stroke-linejoin:round;stroke:rgb(74.509804%,74.509804%,74.509804%);stroke-opacity:1;stroke-miterlimit:10;" d="M 2 2 C 135.332031 2 268.667969 2 402 2 "/>
<path style="fill:none;stroke-width:1;stroke-linecap:round;stroke-linejoin:round;stroke:rgb(74.509804%,74.509804%,74.509804%);stroke-opacity:1;stroke-miterlimit:10;" d="M 2 322 C 135.332031 322 268.667969 322 402 322 "/>
<path style="fill:none;stroke-width:1;stroke-linecap:round;stroke-linejoin:round;stroke:rgb(74.509804%,74.509804%,74.509804%);stroke-opacity:1;stroke-miterlimit:10;" d="M 2 348.667969 C 135.332031 348.667969 268.667969 348.667969 402 348.667969 "/>
<path style="fill-rule:evenodd;fill:rgb(100%,0%,20%);fill-opacity:0.7;stroke-width:1;stroke-linecap:round;stroke-linejoin:round;stroke:rgb(100%,0%,20%);stroke-opacity:0.7;stroke-miterlimit:10;" d="M 28.667969 162 C 99.777344 162 170.890625 162 242 162 C 242 135.332031 242 108.667969 242 82 C 170.890625 108.667969 99.777344 135.332031 28.667969 162 "/>
<path style="fill:none;stroke-width:1;stroke-linecap:round;stroke-linejoin:round;stroke:rgb(0%,0%,0%);stroke-opacity:1;stroke-miterlimit:10;" d="M 28.667969 162 C 99.777344 162 170.890625 162 242 162 C 242 135.332031 242 108.667969 242 82 C 170.890625 108.667969 99.777344 135.332031 28.667969 162 "/>
<path style="fill-rule:evenodd;fill:rgb(20%,80%,20%);fill-opacity:0.7;stroke-width:1;stroke-linecap:round;stroke-linejoin:round;stroke:rgb(20%,80%,20%);stroke-opacity:0.7;stroke-miterlimit:10;" d="M 242 162 C 286.445312 162 330.890625 162 375.332031 162 C 375.332031 144.222656 375.332031 126.445312 375.332031 108.667969 C 348.667969 108.667969 322 108.667969 295.332031 108.667969 C 295.332031 117.554688 295.332031 126.445312 295.332031 135.332031 C 277.554688 135.332031 259.777344 135.332031 242 135.332031 C 242 144.222656 242 153.109375 242 162 "/>
<path style="fill:none;stroke-width:1;stroke-linecap:round;stroke-linejoin:round;stroke:rgb(0%,0%,0%);stroke-opacity:1;stroke-miterlimit:10;" d="M 242 162 C 286.445312 162 330.890625 162 375.332031 162 C 375.332031 144.222656 375.332031 126.445312 375.332031 108.667969 C 348.667969 108.667969 322 108.667969 295.332031 108.667969 C 295.332031 117.554688 295.332031 126.445312 295.332031 135.332031 C 277.554688 135.332031 259.777344 135.332031 242 135.332031 C 242 144.222656 242 153.109375 242 162 "/>
<path style="fill-rule:evenodd;fill:rgb(100%,80%,20%);fill-opacity:0.7;stroke-width:1;stroke-linecap:round;stroke-linejoin:round;stroke:rgb(100%,80%,20%);stroke-opacity:0.7;stroke-miterlimit:10;" d="M 242 135.332031 C 259.777344 135.332031 277.554688 135.332031 295.332031 135.332031 C 295.332031 126.445312 295.332031 117.554688 295.332031 108.667969 C 322 108.667969 348.667969 108.667969 375.332031 108.667969 C 375.332031 99.777344 375.332031 90.890625 375.332031 82 C 330.890625 82 286.445312 82 242 82 C 242 99.777344 242 117.554688 242 135.332031 "/>
<path style="fill:none;stroke-width:1;stroke-linecap:round;stroke-linejoin:round;stroke:rgb(0%,0%,0%);stroke-opacity:1;stroke-miterlimit:10;" d="M 242 135.332031 C 259.777344 135.332031 277.554688 135.332031 295.332031 135.332031 C 295.332031 126.445312 295.332031 117.554688 295.332031 108.667969 C 322 108.667969 348.667969 108.667969 375.332031 108.667969 C 375.332031 99.777344 375.332031 90.890625 375.332031 82 C 330.890625 82 286.445312 82 242 82 C 242 99.777344 242 117.554688 242 135.332031 "/>
<path style="fill-rule:evenodd;fill:rgb(20%,0%,100%);fill-opacity:0.7;stroke-width:1;stroke-linecap:round;stroke-linejoin:round;stroke:rgb(20%,0%,100%);stroke-opacity:0.7;stroke-miterlimit:10;" d="M 242 82 C 286.445312 82 330.890625 82 375.332031 82 C 375.332031 64.222656 375.332031 46.445312 375.332031 28.667969 C 330.890625 46.445312 286.445312 64.222656 242 82 "/>
<path style="fill:none;stroke-width:1;stroke-linecap:round;stroke-linejoin:round;stroke:rgb(0%,0%,0%);stroke-opacity:1;stroke-miterlimit:10;" d="M 242 82 C 286.445312 82 330.890625 82 375.332031 82 C 375.332031 64.222656 375.332031 46.445312 375.332031 28.667969 C 330.890625 46.445312 286.445312 64.222656 242 82 "/>
<path style="fill-rule:evenodd;fill:rgb(100%,0%,20%);fill-opacity:0.7;stroke-width:1;stroke-linecap:round;stroke-linejoin:round;stroke:rgb(100%,0%,20%);stroke-opacity:0.7;stroke-miterlimit:10;" d="M 162 268.667969 C 233.109375 268.667969 304.222656 268.667969 375.332031 268.667969 C 375.332031 242 375.332031 215.332031 375.332031 188.667969 C 304.222656 215.332031 233.109375 242 162 268.667969 "/>
<path style="fill:none;stroke-width:1;stroke-linecap:round;stroke-linejoin:round;stroke:rgb(0%,0%,0%);stroke-opacity:1;stroke-miterlimit:10;" d="M 162 268.667969 C 233.109375 268.667969 304.222656 268.667969 375.332031 268.667969 C 375.332031 242 375.332031 215.332031 375.332031 188.667969 C 304.222656 215.332031 233.109375 242 162 268.667969 "/>
<path style="fill-rule:evenodd;fill:rgb(20%,80%,20%);fill-opacity:0.7;stroke-width:1;stroke-linecap:round;stroke-linejoin:round;stroke:rgb(20%,80%,20%);stroke-opacity:0.7;stroke-miterlimit:10;" d="M 242 322 C 286.445312 322 330.890625 322 375.332031 322 C 375.332031 304.222656 375.332031 286.445312 375.332031 268.667969 C 348.667969 268.667969 322 268.667969 295.332031 268.667969 C 295.332031 277.554688 295.332031 286.445312 295.332031 295.332031 C 277.554688 295.332031 259.777344 295.332031 242 295.332031 C 242 304.222656 242 313.109375 242 322 "/>
<path style="fill:none;stroke-width:1;stroke-linecap:round;stroke-linejoin:round;stroke:rgb(0%,0%,0%);stroke-opacity:1;stroke-miterlimit:10;" d="M 242 322 C 286.445312 322 330.890625 322 375.332031 322 C 375.332031 304.222656 375.332031 286.445312 375.332031 268.667969 C 348.667969 268.667969 322 268.667969 295.332031 268.667969 C 295.332031 277.554688 295.332031 286.445312 295.332031 295.332031 C 277.554688 295.332031 259.777344 295.332031 242 295.332031 C 242 304.222656 242 313.109375 242 322 "/>
<path style="fill-rule:evenodd;fill:rgb(100%,80%,20%);fill-opacity:0.7;stroke-width:1;stroke-linecap:round;stroke-linejoin:round;stroke:rgb(100%,80%,20%);stroke-opacity:0.7;stroke-miterlimit:10;" d="M 162 322 C 179.777344 322 197.554688 322 215.332031 322 C 215.332031 313.109375 215.332031 304.222656 215.332031 295.332031 C 242 295.332031 268.667969 295.332031 295.332031 295.332031 C 295.332031 286.445312 295.332031 277.554688 295.332031 268.667969 C 250.890625 268.667969 206.445312 268.667969 162 268.667969 C 162 286.445312 162 304.222656 162 322 "/>
<path style="fill:none;stroke-width:1;stroke-linecap:round;stroke-linejoin:round;stroke:rgb(0%,0%,0%);stroke-opacity:1;stroke-miterlimit:10;" d="M 162 322 C 179.777344 322 197.554688 322 215.332031 322 C 215.332031 313.109375 215.332031 304.222656 215.332031 295.332031 C 242 295.332031 268.667969 295.332031 295.332031 295.332031 C 295.332031 286.445312 295.332031 277.554688 295.332031 268.667969 C 250.890625 268.667969 206.445312 268.667969 162 268.667969 C 162 286.445312 162 304.222656 162 322 "/>
<path style="fill-rule:evenodd;fill:rgb(20%,0%,100%);fill-opacity:0.7;stroke-width:1;stroke-linecap:round;stroke-linejoin:round;stroke:rgb(20%,0%,100%);stroke-opacity:0.7;stroke-miterlimit:10;" d="M 28.667969 322 C 73.109375 322 117.554688 322 162 322 C 162 304.222656 162 286.445312 162 268.667969 C 117.554688 286.445312 73.109375 304.222656 28.667969 322 "/>
<path style="fill:none;stroke-width:1;stroke-linecap:round;stroke-linejoin:round;stroke:rgb(0%,0%,0%);stroke-opacity:1;stroke-miterlimit:10;" d="M 28.667969 322 C 73.109375 322 117.554688 322 162 322 C 162 304.222656 162 286.445312 162 268.667969 C 117.554688 286.445312 73.109375 304.222656 28.667969 322 "/>
</g>
</svg>
