<?xml version="1.0" encoding="UTF-8"?>
<svg xmlns="http://www.w3.org/2000/svg" xmlns:xlink="http://www.w3.org/1999/xlink" width="200pt" height="100pt" viewBox="0 0 200 100" version="1.1">
<g id="surface118">
<path style="fill:none;stroke-width:4;stroke-linecap:round;stroke-linejoin:round;stroke:rgb(0%,0%,0%);stroke-opacity:1;stroke-miterlimit:10;" d="M 14.285156 85.714844 C 14.285156 71.429688 57.144531 57.144531 85.714844 85.714844 "/>
<path style="fill:none;stroke-width:4;stroke-linecap:round;stroke-linejoin:round;stroke:rgb(100%,0%,0%);stroke-opacity:1;stroke-miterlimit:10;" d="M 114.285156 85.714844 C 114.285156 82.144531 116.964844 78.570312 121.429688 75.667969 "/>
<path style="fill:none;stroke-width:4;stroke-linecap:round;stroke-linejoin:round;stroke:rgb(0%,0%,0%);stroke-opacity:1;stroke-miterlimit:10;" d="M 14.285156 85.714844 C 14.285156 71.429688 57.144531 57.144531 85.714844 85.714844 "/>
<path style="fill:none;stroke-width:4;stroke-linecap:round;stroke-linejoin:round;stroke:rgb(0%,0%,100%);stroke-opacity:1;stroke-miterlimit:10;" d="M 121.429688 75.667969 C 125.894531 72.769531 132.144531 70.535156 139.285156 69.644531 "/>
<path style="fill:none;stroke-width:4;stroke-linecap:round;stroke-linejoin:round;stroke:rgb(0%,0%,0%);stroke-opacity:1;stroke-miterlimit:10;" d="M 14.285156 85.714844 C 14.285156 71.429688 57.144531 57.144531 85.714844 85.714844 "/>
<path style="fill:none;stroke-width:4;stroke-linecap:round;stroke-linejoin:round;stroke:rgb(0%,100%,0%);stroke-opacity:1;stroke-miterlimit:10;" d="M 139.285156 69.644531 C 146.429688 68.75 154.464844 69.195312 162.5 71.652344 "/>
<path style="fill:none;stroke-width:4;stroke-linecap:round;stroke-linejoin:round;stroke:rgb(0%,0%,0%);stroke-opacity:1;stroke-miterlimit:10;" d="M 14.285156 85.714844 C 14.285156 71.429688 57.144531 57.144531 85.714844 85.714844 "/>
<path style="fill:none;stroke-width:4;stroke-linecap:round;stroke-linejoin:round;stroke:rgb(100%,0%,100%);stroke-opacity:1;stroke-miterlimit:10;" d="M 162.5 71.652344 C 170.535156 74.105469 178.570312 78.570312 185.714844 85.714844 "/>
</g>
</svg>
