<?xml version="1.0" encoding="UTF-8"?>
<svg xmlns="http://www.w3.org/2000/svg" xmlns:xlink="http://www.w3.org/1999/xlink" width="106" height="106" viewBox="0 0 106 106" version="1.1">
<g id="surface473">
<path style="fill:none;stroke-width:1;stroke-linecap:round;stroke-linejoin:round;stroke:rgb(0%,0%,0%);stroke-opacity:1;stroke-miterlimit:10;" d="M 50 50 C 65.152344 50 80.304688 50 95.453125 50 " transform="matrix(1,0,0,1,3,3)"/>
<path style="fill:none;stroke-width:1;stroke-linecap:round;stroke-linejoin:round;stroke:rgb(0%,0%,0%);stroke-opacity:1;stroke-miterlimit:10;" d="M 24.742188 79.289062 C 24.742188 69.527344 24.742188 59.761719 24.742188 50 C 24.742188 40.238281 24.742188 30.472656 24.742188 20.710938 C 48.3125 30.472656 71.882812 40.238281 95.453125 50 C 71.882812 59.761719 48.3125 69.527344 24.742188 79.289062 " transform="matrix(1,0,0,1,3,3)"/>
<path style=" stroke:none;fill-rule:nonzero;fill:rgb(0%,0%,0%);fill-opacity:1;" d="M 27.742188 82.289062 C 27.742188 72.527344 27.742188 62.761719 27.742188 53 C 27.742188 43.238281 27.742188 33.472656 27.742188 23.710938 C 51.3125 33.472656 74.882812 43.238281 98.453125 53 C 74.882812 62.761719 51.3125 72.527344 27.742188 82.289062 Z M 27.742188 82.289062 "/>
</g>
</svg>
