<?xml version="1.0" encoding="UTF-8"?>
<svg xmlns="http://www.w3.org/2000/svg" xmlns:xlink="http://www.w3.org/1999/xlink" width="206" height="206" viewBox="0 0 206 206" version="1.1">
<g id="surface183">
<path style="fill:none;stroke-width:1;stroke-linecap:round;stroke-linejoin:round;stroke:rgb(0%,0%,0%);stroke-opacity:1;stroke-miterlimit:10;" d="M 100 100 C 130.304688 69.695312 160.605469 39.394531 190.910156 9.089844 " transform="matrix(1,0,0,1,3,3)"/>
<path style="fill:none;stroke-width:1;stroke-linecap:round;stroke-linejoin:round;stroke:rgb(0%,0%,0%);stroke-opacity:1;stroke-miterlimit:10;" d="M 188.566406 14.746094 C 188.171875 14.046875 187.75 13.363281 187.308594 12.691406 C 186.636719 12.25 185.953125 11.828125 185.253906 11.433594 C 187.261719 10.988281 189.175781 10.195312 190.910156 9.089844 C 189.804688 10.824219 189.011719 12.738281 188.566406 14.746094 " transform="matrix(1,0,0,1,3,3)"/>
<path style=" stroke:none;fill-rule:nonzero;fill:rgb(0%,0%,0%);fill-opacity:1;" d="M 191.566406 17.746094 C 191.171875 17.046875 190.75 16.363281 190.308594 15.691406 C 189.636719 15.25 188.953125 14.828125 188.253906 14.433594 C 190.261719 13.988281 192.175781 13.195312 193.910156 12.089844 C 192.804688 13.824219 192.011719 15.738281 191.566406 17.746094 Z M 191.566406 17.746094 "/>
<path style="fill:none;stroke-width:1;stroke-linecap:round;stroke-linejoin:round;stroke:rgb(0%,0%,0%);stroke-opacity:1;stroke-miterlimit:10;" d="M 9.089844 9.089844 C 24.242188 24.242188 39.394531 39.394531 54.546875 54.546875 " transform="matrix(1,0,0,1,3,3)"/>
<path style="fill:none;stroke-width:1;stroke-linecap:round;stroke-linejoin:round;stroke:rgb(0%,0%,0%);stroke-opacity:1;stroke-miterlimit:10;" d="M 43.230469 49.859375 C 44.632812 49.070312 46.003906 48.230469 47.34375 47.34375 C 48.230469 46.003906 49.070312 44.632812 49.859375 43.230469 C 50.75 47.246094 52.335938 51.078125 54.546875 54.546875 C 51.078125 52.335938 47.246094 50.75 43.230469 49.859375 " transform="matrix(1,0,0,1,3,3)"/>
<path style=" stroke:none;fill-rule:nonzero;fill:rgb(0%,0%,0%);fill-opacity:1;" d="M 46.230469 52.859375 C 47.632812 52.070312 49.003906 51.230469 50.34375 50.34375 C 51.230469 49.003906 52.070312 47.632812 52.859375 46.230469 C 53.75 50.246094 55.335938 54.078125 57.546875 57.546875 C 54.078125 55.335938 50.246094 53.75 46.230469 52.859375 Z M 46.230469 52.859375 "/>
<path style="fill:none;stroke-width:1;stroke-linecap:round;stroke-linejoin:round;stroke:rgb(0%,0%,0%);stroke-opacity:1;stroke-miterlimit:10;" d="M 9.089844 100 C 9.089844 124.109375 18.667969 147.234375 35.71875 164.28125 C 52.765625 181.332031 75.890625 190.910156 100 190.910156 C 124.109375 190.910156 147.234375 181.332031 164.28125 164.28125 C 181.332031 147.234375 190.910156 124.109375 190.910156 100 " transform="matrix(1,0,0,1,3,3)"/>
<path style="fill:none;stroke-width:1;stroke-linecap:round;stroke-linejoin:round;stroke:rgb(0%,0%,0%);stroke-opacity:1;stroke-miterlimit:10;" d="M 200.28125 122.628906 C 197.183594 121.765625 194.058594 121.007812 190.910156 120.363281 C 187.757812 121.007812 184.632812 121.765625 181.535156 122.628906 C 185.957031 115.6875 189.128906 108.03125 190.910156 100 C 192.691406 108.03125 195.863281 115.6875 200.28125 122.628906 " transform="matrix(1,0,0,1,3,3)"/>
<path style=" stroke:none;fill-rule:nonzero;fill:rgb(0%,0%,0%);fill-opacity:1;" d="M 203.28125 125.628906 C 200.183594 124.765625 197.058594 124.007812 193.910156 123.363281 C 190.757812 124.007812 187.632812 124.765625 184.535156 125.628906 C 188.957031 118.6875 192.128906 111.03125 193.910156 103 C 195.691406 111.03125 198.863281 118.6875 203.28125 125.628906 Z M 203.28125 125.628906 "/>
</g>
</svg>
