<?xml version="1.0" encoding="UTF-8"?>
<svg xmlns="http://www.w3.org/2000/svg" xmlns:xlink="http://www.w3.org/1999/xlink" width="206" height="206" viewBox="0 0 206 206" version="1.1">
<defs>
<clipPath id="clip1">
  <path d="M 25 53 L 103 53 L 103 153 L 25 153 Z M 25 53 "/>
</clipPath>
<clipPath id="clip2">
  <path d="M 3 203 C 36.332031 203 69.667969 203 103 203 C 103 136.332031 103 69.667969 103 3 C 69.667969 3 36.332031 3 3 3 C 3 69.667969 3 136.332031 3 203 "/>
</clipPath>
<clipPath id="clip3">
  <path d="M 103 53 L 181 53 L 181 153 L 103 153 Z M 103 53 "/>
</clipPath>
<clipPath id="clip4">
  <path d="M 103 203 C 136.332031 203 169.667969 203 203 203 C 203 136.332031 203 69.667969 203 3 C 169.667969 3 136.332031 3 103 3 C 103 69.667969 103 136.332031 103 203 "/>
</clipPath>
</defs>
<g id="surface806">
<g clip-path="url(#clip1)" clip-rule="nonzero">
<g clip-path="url(#clip2)" clip-rule="evenodd">
<path style=" stroke:none;fill-rule:nonzero;fill:rgb(80%,0%,0%);fill-opacity:1;" d="M 125.222656 103 C 125.222656 89.738281 119.953125 77.019531 110.578125 67.644531 C 101.199219 58.269531 88.484375 53 75.222656 53 C 61.960938 53 49.242188 58.269531 39.867188 67.644531 C 30.488281 77.019531 25.222656 89.738281 25.222656 103 C 25.222656 116.261719 30.488281 128.980469 39.867188 138.355469 C 49.242188 147.730469 61.960938 153 75.222656 153 C 88.484375 153 101.199219 147.730469 110.578125 138.355469 C 119.953125 128.980469 125.222656 116.261719 125.222656 103 Z M 180.777344 103 C 180.777344 116.261719 175.511719 128.980469 166.132812 138.355469 C 156.757812 147.730469 144.039062 153 130.777344 153 C 117.515625 153 104.800781 147.730469 95.421875 138.355469 C 86.046875 128.980469 80.777344 116.261719 80.777344 103 C 80.777344 89.738281 86.046875 77.019531 95.421875 67.644531 C 104.800781 58.269531 117.515625 53 130.777344 53 C 144.039062 53 156.757812 58.269531 166.132812 67.644531 C 175.511719 77.019531 180.777344 89.738281 180.777344 103 Z M 180.777344 103 "/>
</g>
</g>
<g clip-path="url(#clip3)" clip-rule="nonzero">
<g clip-path="url(#clip4)" clip-rule="evenodd">
<path style=" stroke:none;fill-rule:nonzero;fill:rgb(0%,0%,80%);fill-opacity:1;" d="M 125.222656 103 C 125.222656 116.261719 119.953125 128.980469 110.578125 138.355469 C 101.199219 147.730469 88.484375 153 75.222656 153 C 61.960938 153 49.242188 147.730469 39.867188 138.355469 C 30.488281 128.980469 25.222656 116.261719 25.222656 103 C 25.222656 89.738281 30.488281 77.019531 39.867188 67.644531 C 49.242188 58.269531 61.960938 53 75.222656 53 C 88.484375 53 101.199219 58.269531 110.578125 67.644531 C 119.953125 77.019531 125.222656 89.738281 125.222656 103 Z M 180.777344 103 C 180.777344 89.738281 175.511719 77.019531 166.132812 67.644531 C 156.757812 58.269531 144.039062 53 130.777344 53 C 117.515625 53 104.800781 58.269531 95.421875 67.644531 C 86.046875 77.019531 80.777344 89.738281 80.777344 103 C 80.777344 116.261719 86.046875 128.980469 95.421875 138.355469 C 104.800781 147.730469 117.515625 153 130.777344 153 C 144.039062 153 156.757812 147.730469 166.132812 138.355469 C 175.511719 128.980469 180.777344 116.261719 180.777344 103 Z M 180.777344 103 "/>
</g>
</g>
<path style="fill:none;stroke-width:1;stroke-linecap:round;stroke-linejoin:round;stroke:rgb(0%,0%,0%);stroke-opacity:1;stroke-miterlimit:10;" d="M 122.222656 100 C 122.222656 86.738281 116.953125 74.019531 107.578125 64.644531 C 98.199219 55.269531 85.484375 50 72.222656 50 C 58.960938 50 46.242188 55.269531 36.867188 64.644531 C 27.488281 74.019531 22.222656 86.738281 22.222656 100 C 22.222656 113.261719 27.488281 125.980469 36.867188 135.355469 C 46.242188 144.730469 58.960938 150 72.222656 150 C 85.484375 150 98.199219 144.730469 107.578125 135.355469 C 116.953125 125.980469 122.222656 113.261719 122.222656 100 " transform="matrix(1,0,0,1,3,3)"/>
<path style="fill:none;stroke-width:1;stroke-linecap:round;stroke-linejoin:round;stroke:rgb(0%,0%,0%);stroke-opacity:1;stroke-miterlimit:10;" d="M 177.777344 100 C 177.777344 86.738281 172.511719 74.019531 163.132812 64.644531 C 153.757812 55.269531 141.039062 50 127.777344 50 C 114.515625 50 101.800781 55.269531 92.421875 64.644531 C 83.046875 74.019531 77.777344 86.738281 77.777344 100 C 77.777344 113.261719 83.046875 125.980469 92.421875 135.355469 C 101.800781 144.730469 114.515625 150 127.777344 150 C 141.039062 150 153.757812 144.730469 163.132812 135.355469 C 172.511719 125.980469 177.777344 113.261719 177.777344 100 " transform="matrix(1,0,0,1,3,3)"/>
</g>
</svg>
