<?xml version="1.0" encoding="UTF-8"?>
<svg xmlns="http://www.w3.org/2000/svg" xmlns:xlink="http://www.w3.org/1999/xlink" width="406" height="206" viewBox="0 0 406 206" version="1.1">
<g id="surface7105">
<path style="fill:none;stroke-width:1;stroke-linecap:round;stroke-linejoin:round;stroke:rgb(0%,0%,0%);stroke-opacity:1;stroke-miterlimit:10;" d="M 309.433594 176.316406 C 320.886719 165.011719 332.335938 153.707031 343.785156 142.402344 " transform="matrix(1,0,0,1,3,3)"/>
<path style="fill:none;stroke-width:1;stroke-linecap:round;stroke-linejoin:round;stroke:rgb(0%,0%,0%);stroke-opacity:1;stroke-miterlimit:10;" d="M 299.519531 24.09375 C 268.21875 21.628906 236.917969 19.160156 205.617188 16.695312 " transform="matrix(1,0,0,1,3,3)"/>
<path style="fill:none;stroke-width:1;stroke-linecap:round;stroke-linejoin:round;stroke:rgb(0%,0%,0%);stroke-opacity:1;stroke-miterlimit:10;" d="M 343.785156 142.402344 C 344.128906 107.113281 344.472656 71.824219 344.816406 36.539062 " transform="matrix(1,0,0,1,3,3)"/>
<path style="fill:none;stroke-width:1;stroke-linecap:round;stroke-linejoin:round;stroke:rgb(0%,0%,0%);stroke-opacity:1;stroke-miterlimit:10;" d="M 205.617188 16.695312 C 175.222656 24.835938 144.824219 32.972656 114.429688 41.113281 " transform="matrix(1,0,0,1,3,3)"/>
<path style="fill:none;stroke-width:1;stroke-linecap:round;stroke-linejoin:round;stroke:rgb(0%,0%,0%);stroke-opacity:1;stroke-miterlimit:10;" d="M 51.597656 72.726562 C 58.613281 106.25 65.632812 139.773438 72.648438 173.296875 " transform="matrix(1,0,0,1,3,3)"/>
<path style="fill:none;stroke-width:1;stroke-linecap:round;stroke-linejoin:round;stroke:rgb(0%,0%,0%);stroke-opacity:1;stroke-miterlimit:10;" d="M 114.429688 41.113281 C 93.484375 51.652344 72.542969 62.1875 51.597656 72.726562 " transform="matrix(1,0,0,1,3,3)"/>
<path style="fill:none;stroke-width:1;stroke-linecap:round;stroke-linejoin:round;stroke:rgb(0%,0%,0%);stroke-opacity:1;stroke-miterlimit:10;" d="M 214.023438 177.632812 C 245.828125 177.195312 277.632812 176.757812 309.433594 176.316406 " transform="matrix(1,0,0,1,3,3)"/>
<path style="fill:none;stroke-width:1;stroke-linecap:round;stroke-linejoin:round;stroke:rgb(0%,0%,0%);stroke-opacity:1;stroke-miterlimit:10;" d="M 344.816406 36.539062 C 329.71875 32.390625 314.617188 28.242188 299.519531 24.09375 " transform="matrix(1,0,0,1,3,3)"/>
<path style="fill:none;stroke-width:1;stroke-linecap:round;stroke-linejoin:round;stroke:rgb(0%,0%,0%);stroke-opacity:1;stroke-miterlimit:10;" d="M 72.648438 173.296875 C 119.773438 174.742188 166.898438 176.1875 214.023438 177.632812 " transform="matrix(1,0,0,1,3,3)"/>
<path style="fill:none;stroke-width:6;stroke-linecap:round;stroke-linejoin:round;stroke:rgb(80%,0%,0%);stroke-opacity:1;stroke-miterlimit:10;" d="M 72.648438 173.296875 L 72.648438 173.296875 " transform="matrix(1,0,0,1,3,3)"/>
<path style="fill:none;stroke-width:6;stroke-linecap:round;stroke-linejoin:round;stroke:rgb(80%,0%,0%);stroke-opacity:1;stroke-miterlimit:10;" d="M 183.730469 175.390625 L 183.730469 175.390625 " transform="matrix(1,0,0,1,3,3)"/>
<path style="fill:none;stroke-width:6;stroke-linecap:round;stroke-linejoin:round;stroke:rgb(80%,0%,0%);stroke-opacity:1;stroke-miterlimit:10;" d="M 344.816406 36.539062 L 344.816406 36.539062 " transform="matrix(1,0,0,1,3,3)"/>
<path style="fill:none;stroke-width:6;stroke-linecap:round;stroke-linejoin:round;stroke:rgb(80%,0%,0%);stroke-opacity:1;stroke-miterlimit:10;" d="M 214.023438 177.632812 L 214.023438 177.632812 " transform="matrix(1,0,0,1,3,3)"/>
<path style="fill:none;stroke-width:6;stroke-linecap:round;stroke-linejoin:round;stroke:rgb(80%,0%,0%);stroke-opacity:1;stroke-miterlimit:10;" d="M 160.074219 67.359375 L 160.074219 67.359375 " transform="matrix(1,0,0,1,3,3)"/>
<path style="fill:none;stroke-width:6;stroke-linecap:round;stroke-linejoin:round;stroke:rgb(80%,0%,0%);stroke-opacity:1;stroke-miterlimit:10;" d="M 114.429688 41.113281 L 114.429688 41.113281 " transform="matrix(1,0,0,1,3,3)"/>
<path style="fill:none;stroke-width:6;stroke-linecap:round;stroke-linejoin:round;stroke:rgb(80%,0%,0%);stroke-opacity:1;stroke-miterlimit:10;" d="M 51.597656 72.726562 L 51.597656 72.726562 " transform="matrix(1,0,0,1,3,3)"/>
<path style="fill:none;stroke-width:6;stroke-linecap:round;stroke-linejoin:round;stroke:rgb(80%,0%,0%);stroke-opacity:1;stroke-miterlimit:10;" d="M 88.917969 165.378906 L 88.917969 165.378906 " transform="matrix(1,0,0,1,3,3)"/>
<path style="fill:none;stroke-width:6;stroke-linecap:round;stroke-linejoin:round;stroke:rgb(80%,0%,0%);stroke-opacity:1;stroke-miterlimit:10;" d="M 313.769531 167.457031 L 313.769531 167.457031 " transform="matrix(1,0,0,1,3,3)"/>
<path style="fill:none;stroke-width:6;stroke-linecap:round;stroke-linejoin:round;stroke:rgb(80%,0%,0%);stroke-opacity:1;stroke-miterlimit:10;" d="M 332.199219 93.429688 L 332.199219 93.429688 " transform="matrix(1,0,0,1,3,3)"/>
<path style="fill:none;stroke-width:6;stroke-linecap:round;stroke-linejoin:round;stroke:rgb(80%,0%,0%);stroke-opacity:1;stroke-miterlimit:10;" d="M 161.898438 151.105469 L 161.898438 151.105469 " transform="matrix(1,0,0,1,3,3)"/>
<path style="fill:none;stroke-width:6;stroke-linecap:round;stroke-linejoin:round;stroke:rgb(80%,0%,0%);stroke-opacity:1;stroke-miterlimit:10;" d="M 205.617188 16.695312 L 205.617188 16.695312 " transform="matrix(1,0,0,1,3,3)"/>
<path style="fill:none;stroke-width:6;stroke-linecap:round;stroke-linejoin:round;stroke:rgb(80%,0%,0%);stroke-opacity:1;stroke-miterlimit:10;" d="M 294.035156 54.011719 L 294.035156 54.011719 " transform="matrix(1,0,0,1,3,3)"/>
<path style="fill:none;stroke-width:6;stroke-linecap:round;stroke-linejoin:round;stroke:rgb(80%,0%,0%);stroke-opacity:1;stroke-miterlimit:10;" d="M 260.320312 102.382812 L 260.320312 102.382812 " transform="matrix(1,0,0,1,3,3)"/>
<path style="fill:none;stroke-width:6;stroke-linecap:round;stroke-linejoin:round;stroke:rgb(80%,0%,0%);stroke-opacity:1;stroke-miterlimit:10;" d="M 343.785156 142.402344 L 343.785156 142.402344 " transform="matrix(1,0,0,1,3,3)"/>
<path style="fill:none;stroke-width:6;stroke-linecap:round;stroke-linejoin:round;stroke:rgb(80%,0%,0%);stroke-opacity:1;stroke-miterlimit:10;" d="M 299.519531 24.09375 L 299.519531 24.09375 " transform="matrix(1,0,0,1,3,3)"/>
<path style="fill:none;stroke-width:6;stroke-linecap:round;stroke-linejoin:round;stroke:rgb(80%,0%,0%);stroke-opacity:1;stroke-miterlimit:10;" d="M 240.867188 132.023438 L 240.867188 132.023438 " transform="matrix(1,0,0,1,3,3)"/>
<path style="fill:none;stroke-width:6;stroke-linecap:round;stroke-linejoin:round;stroke:rgb(80%,0%,0%);stroke-opacity:1;stroke-miterlimit:10;" d="M 129.632812 58.796875 L 129.632812 58.796875 " transform="matrix(1,0,0,1,3,3)"/>
<path style="fill:none;stroke-width:6;stroke-linecap:round;stroke-linejoin:round;stroke:rgb(80%,0%,0%);stroke-opacity:1;stroke-miterlimit:10;" d="M 309.433594 176.316406 L 309.433594 176.316406 " transform="matrix(1,0,0,1,3,3)"/>
<path style="fill:none;stroke-width:6;stroke-linecap:round;stroke-linejoin:round;stroke:rgb(80%,0%,0%);stroke-opacity:1;stroke-miterlimit:10;" d="M 224.660156 144.992188 L 224.660156 144.992188 " transform="matrix(1,0,0,1,3,3)"/>
</g>
</svg>
