<?xml version="1.0" encoding="UTF-8"?>
<svg xmlns="http://www.w3.org/2000/svg" xmlns:xlink="http://www.w3.org/1999/xlink" width="106" height="106" viewBox="0 0 106 106" version="1.1">
<g id="surface675">
<path style="fill:none;stroke-width:1;stroke-linecap:round;stroke-linejoin:round;stroke:rgb(74.509804%,74.509804%,74.509804%);stroke-opacity:1;stroke-miterlimit:10;" d="M 95.453125 50 C 95.453125 37.945312 90.664062 26.382812 82.140625 17.859375 C 73.617188 9.335938 62.054688 4.546875 50 4.546875 C 37.945312 4.546875 26.382812 9.335938 17.859375 17.859375 C 9.335938 26.382812 4.546875 37.945312 4.546875 50 C 4.546875 62.054688 9.335938 73.617188 17.859375 82.140625 C 26.382812 90.664062 37.945312 95.453125 50 95.453125 C 62.054688 95.453125 73.617188 90.664062 82.140625 82.140625 C 90.664062 73.617188 95.453125 62.054688 95.453125 50 " transform="matrix(1,0,0,1,3,3)"/>
<path style="fill:none;stroke-width:1;stroke-linecap:round;stroke-linejoin:round;stroke:rgb(0%,0%,0%);stroke-opacity:1;stroke-miterlimit:10;" d="M 95.453125 50 C 80.304688 34.847656 65.152344 19.695312 50 4.546875 C 34.847656 19.695312 19.695312 34.847656 4.546875 50 C 19.695312 65.152344 34.847656 80.304688 50 95.453125 C 65.152344 80.304688 80.304688 65.152344 95.453125 50 " transform="matrix(1,0,0,1,3,3)"/>
</g>
</svg>
