<?xml version="1.0" encoding="UTF-8"?>
<svg xmlns="http://www.w3.org/2000/svg" xmlns:xlink="http://www.w3.org/1999/xlink" width="106" height="106" viewBox="0 0 106 106" version="1.1">
<g id="surface598">
<path style="fill:none;stroke-width:1;stroke-linecap:round;stroke-linejoin:round;stroke:rgb(100%,0%,0%);stroke-opacity:1;stroke-miterlimit:10;" d="M 50 50 C 65.152344 34.847656 80.304688 19.695312 95.453125 4.546875 " transform="matrix(1,0,0,1,3,3)"/>
<path style="fill:none;stroke-width:1;stroke-linecap:round;stroke-linejoin:round;stroke:rgb(100%,0%,0%);stroke-opacity:1;stroke-miterlimit:10;" d="M 90.769531 15.859375 C 90.007812 14.433594 89.195312 13.035156 88.335938 11.664062 C 86.964844 10.804688 85.566406 9.992188 84.140625 9.230469 C 88.15625 8.339844 91.984375 6.753906 95.453125 4.546875 C 93.246094 8.015625 91.660156 11.84375 90.769531 15.859375 " transform="matrix(1,0,0,1,3,3)"/>
<path style=" stroke:none;fill-rule:nonzero;fill:rgb(100%,0%,0%);fill-opacity:1;" d="M 93.769531 18.859375 C 93.007812 17.433594 92.195312 16.035156 91.335938 14.664062 C 89.964844 13.804688 88.566406 12.992188 87.140625 12.230469 C 91.15625 11.339844 94.984375 9.753906 98.453125 7.546875 C 96.246094 11.015625 94.660156 14.84375 93.769531 18.859375 Z M 93.769531 18.859375 "/>
<path style="fill:none;stroke-width:1;stroke-linecap:round;stroke-linejoin:round;stroke:rgb(0%,0%,0%);stroke-opacity:1;stroke-miterlimit:10;" d="M 4.546875 4.546875 C 12.121094 12.121094 19.695312 19.695312 27.273438 27.273438 " transform="matrix(1,0,0,1,3,3)"/>
<path style="fill:none;stroke-width:1;stroke-linecap:round;stroke-linejoin:round;stroke:rgb(0%,0%,0%);stroke-opacity:1;stroke-miterlimit:10;" d="M 15.960938 22.585938 C 17.386719 21.824219 18.785156 21.011719 20.152344 20.152344 C 21.011719 18.785156 21.824219 17.386719 22.585938 15.960938 C 23.476562 19.976562 25.0625 23.804688 27.273438 27.273438 C 23.804688 25.0625 19.976562 23.476562 15.960938 22.585938 " transform="matrix(1,0,0,1,3,3)"/>
<path style="fill:none;stroke-width:1;stroke-linecap:round;stroke-linejoin:round;stroke:rgb(0%,0%,100%);stroke-opacity:1;stroke-miterlimit:10;" d="M 4.546875 50 C 4.546875 62.054688 9.335938 73.617188 17.859375 82.140625 C 26.382812 90.664062 37.945312 95.453125 50 95.453125 C 62.054688 95.453125 73.617188 90.664062 82.140625 82.140625 C 90.664062 73.617188 95.453125 62.054688 95.453125 50 " transform="matrix(1,0,0,1,3,3)"/>
<path style=" stroke:none;fill-rule:nonzero;fill:rgb(0%,100%,100%);fill-opacity:1;" d="M 103.140625 64.3125 C 101.59375 63.84375 100.03125 63.429688 98.453125 63.070312 C 96.878906 63.429688 95.316406 63.84375 93.769531 64.3125 C 95.976562 60.84375 97.5625 57.015625 98.453125 53 C 99.34375 57.015625 100.929688 60.84375 103.140625 64.3125 Z M 103.140625 64.3125 "/>
<path style="fill:none;stroke-width:1;stroke-linecap:round;stroke-linejoin:round;stroke:rgb(0%,39.215686%,0%);stroke-opacity:1;stroke-miterlimit:10;" d="M 100.140625 61.3125 C 98.59375 60.84375 97.03125 60.429688 95.453125 60.070312 C 93.878906 60.429688 92.316406 60.84375 90.769531 61.3125 C 92.976562 57.84375 94.5625 54.015625 95.453125 50 C 96.34375 54.015625 97.929688 57.84375 100.140625 61.3125 " transform="matrix(1,0,0,1,3,3)"/>
</g>
</svg>
