<?xml version="1.0" encoding="UTF-8"?>
<svg xmlns="http://www.w3.org/2000/svg" xmlns:xlink="http://www.w3.org/1999/xlink" width="206" height="76" viewBox="0 0 206 76" version="1.1">
<g id="surface7160">
<path style="fill:none;stroke-width:1;stroke-linecap:round;stroke-linejoin:round;stroke:rgb(0%,0%,0%);stroke-opacity:1;stroke-miterlimit:10;" d="M 129.703125 59.304688 C 136.304688 43.101562 142.902344 26.898438 149.503906 10.695312 " transform="matrix(1,0,0,1,3,3)"/>
<path style="fill:none;stroke-width:1;stroke-linecap:round;stroke-linejoin:round;stroke:rgb(0%,0%,0%);stroke-opacity:1;stroke-miterlimit:10;" d="M 109.902344 59.304688 C 113.203125 59.304688 116.5 59.304688 119.800781 59.304688 " transform="matrix(1,0,0,1,3,3)"/>
<path style="fill:none;stroke-width:1;stroke-linecap:round;stroke-linejoin:round;stroke:rgb(0%,0%,0%);stroke-opacity:1;stroke-miterlimit:10;" d="M 149.503906 10.695312 C 133.003906 10.695312 116.5 10.695312 100 10.695312 " transform="matrix(1,0,0,1,3,3)"/>
<path style="fill:none;stroke-width:1;stroke-linecap:round;stroke-linejoin:round;stroke:rgb(0%,0%,0%);stroke-opacity:1;stroke-miterlimit:10;" d="M 119.800781 59.304688 C 123.101562 59.304688 126.402344 59.304688 129.703125 59.304688 " transform="matrix(1,0,0,1,3,3)"/>
<path style="fill:none;stroke-width:1;stroke-linecap:round;stroke-linejoin:round;stroke:rgb(0%,0%,0%);stroke-opacity:1;stroke-miterlimit:10;" d="M 100 10.695312 C 100 26.898438 100 43.101562 100 59.304688 " transform="matrix(1,0,0,1,3,3)"/>
<path style="fill:none;stroke-width:1;stroke-linecap:round;stroke-linejoin:round;stroke:rgb(0%,0%,0%);stroke-opacity:1;stroke-miterlimit:10;" d="M 100 59.304688 C 103.300781 59.304688 106.601562 59.304688 109.902344 59.304688 " transform="matrix(1,0,0,1,3,3)"/>
<path style="fill:none;stroke-width:6;stroke-linecap:round;stroke-linejoin:round;stroke:rgb(80%,0%,0%);stroke-opacity:1;stroke-miterlimit:10;" d="M 100 59.304688 L 100 59.304688 " transform="matrix(1,0,0,1,3,3)"/>
<path style="fill:none;stroke-width:6;stroke-linecap:round;stroke-linejoin:round;stroke:rgb(80%,0%,0%);stroke-opacity:1;stroke-miterlimit:10;" d="M 100 10.695312 L 100 10.695312 " transform="matrix(1,0,0,1,3,3)"/>
<path style="fill:none;stroke-width:6;stroke-linecap:round;stroke-linejoin:round;stroke:rgb(80%,0%,0%);stroke-opacity:1;stroke-miterlimit:10;" d="M 119.800781 59.304688 L 119.800781 59.304688 " transform="matrix(1,0,0,1,3,3)"/>
<path style="fill:none;stroke-width:6;stroke-linecap:round;stroke-linejoin:round;stroke:rgb(80%,0%,0%);stroke-opacity:1;stroke-miterlimit:10;" d="M 149.503906 10.695312 L 149.503906 10.695312 " transform="matrix(1,0,0,1,3,3)"/>
<path style="fill:none;stroke-width:6;stroke-linecap:round;stroke-linejoin:round;stroke:rgb(80%,0%,0%);stroke-opacity:1;stroke-miterlimit:10;" d="M 109.902344 59.304688 L 109.902344 59.304688 " transform="matrix(1,0,0,1,3,3)"/>
<path style="fill:none;stroke-width:6;stroke-linecap:round;stroke-linejoin:round;stroke:rgb(80%,0%,0%);stroke-opacity:1;stroke-miterlimit:10;" d="M 129.703125 59.304688 L 129.703125 59.304688 " transform="matrix(1,0,0,1,3,3)"/>
<path style="fill:none;stroke-width:6;stroke-linecap:round;stroke-linejoin:round;stroke:rgb(80%,0%,0%);stroke-opacity:1;stroke-miterlimit:10;" d="M 109.902344 49.582031 L 109.902344 49.582031 " transform="matrix(1,0,0,1,3,3)"/>
</g>
</svg>
