<?xml version="1.0" encoding="UTF-8"?>
<svg xmlns="http://www.w3.org/2000/svg" xmlns:xlink="http://www.w3.org/1999/xlink" width="106" height="106" viewBox="0 0 106 106" version="1.1">
<g id="surface492">
<path style="fill:none;stroke-width:1;stroke-linecap:round;stroke-linejoin:round;stroke:rgb(0%,0%,0%);stroke-opacity:1;stroke-miterlimit:10;" d="M 50 50 C 65.152344 50 80.304688 50 95.453125 50 " transform="matrix(1,0,0,1,3,3)"/>
<path style="fill:none;stroke-width:1;stroke-linecap:round;stroke-linejoin:round;stroke:rgb(0%,0%,0%);stroke-opacity:1;stroke-miterlimit:10;" d="M 89.796875 52.34375 C 90.03125 51.570312 90.238281 50.789062 90.421875 50 C 90.238281 49.210938 90.03125 48.429688 89.796875 47.65625 C 91.53125 48.761719 93.445312 49.554688 95.453125 50 C 93.445312 50.445312 91.53125 51.238281 89.796875 52.34375 " transform="matrix(1,0,0,1,3,3)"/>
<path style=" stroke:none;fill-rule:nonzero;fill:rgb(0%,0%,0%);fill-opacity:1;" d="M 92.796875 55.34375 C 93.03125 54.570312 93.238281 53.789062 93.421875 53 C 93.238281 52.210938 93.03125 51.429688 92.796875 50.65625 C 94.53125 51.761719 96.445312 52.554688 98.453125 53 C 96.445312 53.445312 94.53125 54.238281 92.796875 55.34375 Z M 92.796875 55.34375 "/>
</g>
</svg>
