<?xml version="1.0" encoding="UTF-8"?>
<svg xmlns="http://www.w3.org/2000/svg" xmlns:xlink="http://www.w3.org/1999/xlink" width="406" height="206" viewBox="0 0 406 206" version="1.1">
<g id="surface7874">
<path style="fill:none;stroke-width:5.969395;stroke-linecap:round;stroke-linejoin:round;stroke:rgb(0%,0%,0%);stroke-opacity:1;stroke-miterlimit:10;" d="M 227.660156 147.992188 C 227.34375 145.195312 227.023438 142.398438 226.707031 139.601562 "/>
<path style=" stroke:none;fill-rule:nonzero;fill:rgb(80%,0%,0%);fill-opacity:1;" d="M 235.136719 138.652344 C 235.0625 137.988281 234.101562 137.445312 232.464844 137.152344 C 230.832031 136.859375 228.65625 136.835938 226.421875 137.085938 C 224.183594 137.339844 222.070312 137.84375 220.542969 138.496094 C 219.015625 139.144531 218.199219 139.886719 218.273438 140.550781 C 218.351562 141.21875 219.3125 141.761719 220.945312 142.054688 C 222.582031 142.347656 224.757812 142.371094 226.992188 142.121094 C 229.230469 141.867188 231.34375 141.363281 232.871094 140.710938 C 234.398438 140.0625 235.214844 139.320312 235.136719 138.652344 Z M 235.136719 138.652344 "/>
<path style="fill:none;stroke-width:1;stroke-linecap:round;stroke-linejoin:round;stroke:rgb(0%,0%,0%);stroke-opacity:1;stroke-miterlimit:10;" d="M 235.136719 138.652344 C 235.0625 137.988281 234.101562 137.445312 232.464844 137.152344 C 230.832031 136.859375 228.65625 136.835938 226.421875 137.085938 C 224.183594 137.339844 222.070312 137.84375 220.542969 138.496094 C 219.015625 139.144531 218.199219 139.886719 218.273438 140.550781 C 218.351562 141.21875 219.3125 141.761719 220.945312 142.054688 C 222.582031 142.347656 224.757812 142.371094 226.992188 142.121094 C 229.230469 141.867188 231.34375 141.363281 232.871094 140.710938 C 234.398438 140.0625 235.214844 139.320312 235.136719 138.652344 "/>
<path style="fill:none;stroke-width:5.969395;stroke-linecap:round;stroke-linejoin:round;stroke:rgb(0%,0%,0%);stroke-opacity:1;stroke-miterlimit:10;" d="M 312.433594 179.316406 C 312.707031 176.515625 312.980469 173.714844 313.253906 170.914062 "/>
<path style=" stroke:none;fill-rule:nonzero;fill:rgb(80%,0%,0%);fill-opacity:1;" d="M 321.699219 171.726562 C 321.765625 171.058594 320.9375 170.332031 319.398438 169.707031 C 317.859375 169.082031 315.738281 168.609375 313.5 168.390625 C 311.257812 168.175781 309.085938 168.234375 307.453125 168.554688 C 305.824219 168.875 304.871094 169.429688 304.808594 170.101562 C 304.742188 170.769531 305.570312 171.496094 307.105469 172.121094 C 308.644531 172.746094 310.769531 173.21875 313.007812 173.433594 C 315.246094 173.652344 317.421875 173.589844 319.050781 173.269531 C 320.679688 172.949219 321.632812 172.394531 321.699219 171.726562 Z M 321.699219 171.726562 "/>
<path style="fill:none;stroke-width:1;stroke-linecap:round;stroke-linejoin:round;stroke:rgb(0%,0%,0%);stroke-opacity:1;stroke-miterlimit:10;" d="M 321.699219 171.726562 C 321.765625 171.058594 320.9375 170.332031 319.398438 169.707031 C 317.859375 169.082031 315.738281 168.609375 313.5 168.390625 C 311.257812 168.175781 309.085938 168.234375 307.453125 168.554688 C 305.824219 168.875 304.871094 169.429688 304.808594 170.101562 C 304.742188 170.769531 305.570312 171.496094 307.105469 172.121094 C 308.644531 172.746094 310.769531 173.21875 313.007812 173.433594 C 315.246094 173.652344 317.421875 173.589844 319.050781 173.269531 C 320.679688 172.949219 321.632812 172.394531 321.699219 171.726562 "/>
<path style="fill:none;stroke-width:5.969395;stroke-linecap:round;stroke-linejoin:round;stroke:rgb(0%,0%,0%);stroke-opacity:1;stroke-miterlimit:10;" d="M 132.632812 61.796875 C 132.308594 59 131.980469 56.203125 131.652344 53.410156 "/>
<path style=" stroke:none;fill-rule:nonzero;fill:rgb(80%,0%,0%);fill-opacity:1;" d="M 140.082031 52.433594 C 140.003906 51.765625 139.039062 51.230469 137.40625 50.941406 C 135.769531 50.652344 133.59375 50.632812 131.359375 50.890625 C 129.125 51.152344 127.011719 51.664062 125.484375 52.320312 C 123.960938 52.972656 123.148438 53.714844 123.226562 54.382812 C 123.304688 55.050781 124.265625 55.589844 125.902344 55.878906 C 127.539062 56.167969 129.710938 56.183594 131.949219 55.925781 C 134.183594 55.664062 136.296875 55.152344 137.820312 54.496094 C 139.347656 53.84375 140.160156 53.101562 140.082031 52.433594 Z M 140.082031 52.433594 "/>
<path style="fill:none;stroke-width:1;stroke-linecap:round;stroke-linejoin:round;stroke:rgb(0%,0%,0%);stroke-opacity:1;stroke-miterlimit:10;" d="M 140.082031 52.433594 C 140.003906 51.765625 139.039062 51.230469 137.40625 50.941406 C 135.769531 50.652344 133.59375 50.632812 131.359375 50.890625 C 129.125 51.152344 127.011719 51.664062 125.484375 52.320312 C 123.960938 52.972656 123.148438 53.714844 123.226562 54.382812 C 123.304688 55.050781 124.265625 55.589844 125.902344 55.878906 C 127.539062 56.167969 129.710938 56.183594 131.949219 55.925781 C 134.183594 55.664062 136.296875 55.152344 137.820312 54.496094 C 139.347656 53.84375 140.160156 53.101562 140.082031 52.433594 "/>
<path style="fill:none;stroke-width:5.969395;stroke-linecap:round;stroke-linejoin:round;stroke:rgb(0%,0%,0%);stroke-opacity:1;stroke-miterlimit:10;" d="M 243.867188 135.023438 C 243.484375 132.234375 243.097656 129.445312 242.714844 126.660156 "/>
<path style=" stroke:none;fill-rule:nonzero;fill:rgb(80%,0%,0%);fill-opacity:1;" d="M 251.121094 125.511719 C 251.03125 124.84375 250.054688 124.328125 248.414062 124.074219 C 246.773438 123.816406 244.597656 123.84375 242.367188 124.148438 C 240.140625 124.453125 238.039062 125.007812 236.527344 125.695312 C 235.015625 126.382812 234.214844 127.140625 234.308594 127.804688 C 234.398438 128.472656 235.375 128.988281 237.015625 129.246094 C 238.65625 129.5 240.832031 129.472656 243.0625 129.167969 C 245.289062 128.863281 247.390625 128.308594 248.902344 127.621094 C 250.414062 126.933594 251.214844 126.175781 251.121094 125.511719 Z M 251.121094 125.511719 "/>
<path style="fill:none;stroke-width:1;stroke-linecap:round;stroke-linejoin:round;stroke:rgb(0%,0%,0%);stroke-opacity:1;stroke-miterlimit:10;" d="M 251.121094 125.511719 C 251.03125 124.84375 250.054688 124.328125 248.414062 124.074219 C 246.773438 123.816406 244.597656 123.84375 242.367188 124.148438 C 240.140625 124.453125 238.039062 125.007812 236.527344 125.695312 C 235.015625 126.382812 234.214844 127.140625 234.308594 127.804688 C 234.398438 128.472656 235.375 128.988281 237.015625 129.246094 C 238.65625 129.5 240.832031 129.472656 243.0625 129.167969 C 245.289062 128.863281 247.390625 128.308594 248.902344 127.621094 C 250.414062 126.933594 251.214844 126.175781 251.121094 125.511719 "/>
<path style="fill:none;stroke-width:5.969395;stroke-linecap:round;stroke-linejoin:round;stroke:rgb(0%,0%,0%);stroke-opacity:1;stroke-miterlimit:10;" d="M 302.519531 27.09375 C 302.492188 24.277344 302.464844 21.464844 302.4375 18.652344 "/>
<path style=" stroke:none;fill-rule:nonzero;fill:rgb(80%,0%,0%);fill-opacity:1;" d="M 310.921875 18.566406 C 310.914062 17.894531 310.015625 17.261719 308.417969 16.800781 C 306.824219 16.339844 304.664062 16.09375 302.414062 16.117188 C 300.164062 16.140625 298.007812 16.425781 296.421875 16.917969 C 294.832031 17.410156 293.945312 18.0625 293.953125 18.734375 C 293.960938 19.40625 294.859375 20.039062 296.457031 20.5 C 298.050781 20.960938 300.210938 21.207031 302.460938 21.183594 C 304.714844 21.160156 306.867188 20.875 308.453125 20.382812 C 310.042969 19.890625 310.929688 19.238281 310.921875 18.566406 Z M 310.921875 18.566406 "/>
<path style="fill:none;stroke-width:1;stroke-linecap:round;stroke-linejoin:round;stroke:rgb(0%,0%,0%);stroke-opacity:1;stroke-miterlimit:10;" d="M 310.921875 18.566406 C 310.914062 17.894531 310.015625 17.261719 308.417969 16.800781 C 306.824219 16.339844 304.664062 16.09375 302.414062 16.117188 C 300.164062 16.140625 298.007812 16.425781 296.421875 16.917969 C 294.832031 17.410156 293.945312 18.0625 293.953125 18.734375 C 293.960938 19.40625 294.859375 20.039062 296.457031 20.5 C 298.050781 20.960938 300.210938 21.207031 302.460938 21.183594 C 304.714844 21.160156 306.867188 20.875 308.453125 20.382812 C 310.042969 19.890625 310.929688 19.238281 310.921875 18.566406 "/>
<path style="fill:none;stroke-width:5.969395;stroke-linecap:round;stroke-linejoin:round;stroke:rgb(0%,0%,0%);stroke-opacity:1;stroke-miterlimit:10;" d="M 346.785156 145.402344 C 347.203125 142.617188 347.617188 139.832031 348.035156 137.050781 "/>
<path style=" stroke:none;fill-rule:nonzero;fill:rgb(80%,0%,0%);fill-opacity:1;" d="M 356.429688 138.296875 C 356.527344 137.632812 355.738281 136.863281 354.238281 136.160156 C 352.734375 135.457031 350.636719 134.875 348.414062 134.542969 C 346.1875 134.214844 344.011719 134.160156 342.367188 134.398438 C 340.722656 134.632812 339.742188 135.140625 339.644531 135.804688 C 339.542969 136.46875 340.332031 137.238281 341.835938 137.941406 C 343.339844 138.644531 345.433594 139.222656 347.660156 139.554688 C 349.886719 139.886719 352.0625 139.9375 353.703125 139.703125 C 355.347656 139.464844 356.328125 138.960938 356.429688 138.296875 Z M 356.429688 138.296875 "/>
<path style="fill:none;stroke-width:1;stroke-linecap:round;stroke-linejoin:round;stroke:rgb(0%,0%,0%);stroke-opacity:1;stroke-miterlimit:10;" d="M 356.429688 138.296875 C 356.527344 137.632812 355.738281 136.863281 354.238281 136.160156 C 352.734375 135.457031 350.636719 134.875 348.414062 134.542969 C 346.1875 134.214844 344.011719 134.160156 342.367188 134.398438 C 340.722656 134.632812 339.742188 135.140625 339.644531 135.804688 C 339.542969 136.46875 340.332031 137.238281 341.835938 137.941406 C 343.339844 138.644531 345.433594 139.222656 347.660156 139.554688 C 349.886719 139.886719 352.0625 139.9375 353.703125 139.703125 C 355.347656 139.464844 356.328125 138.960938 356.429688 138.296875 "/>
<path style="fill:none;stroke-width:5.969395;stroke-linecap:round;stroke-linejoin:round;stroke:rgb(0%,0%,0%);stroke-opacity:1;stroke-miterlimit:10;" d="M 263.320312 105.382812 C 263.71875 102.59375 264.121094 99.808594 264.519531 97.023438 "/>
<path style=" stroke:none;fill-rule:nonzero;fill:rgb(80%,0%,0%);fill-opacity:1;" d="M 272.921875 98.21875 C 273.015625 97.550781 272.222656 96.789062 270.714844 96.09375 C 269.207031 95.398438 267.109375 94.832031 264.878906 94.515625 C 262.652344 94.199219 260.476562 94.160156 258.835938 94.40625 C 257.191406 94.652344 256.214844 95.164062 256.121094 95.828125 C 256.023438 96.492188 256.816406 97.257812 258.324219 97.949219 C 259.832031 98.644531 261.933594 99.214844 264.160156 99.53125 C 266.386719 99.847656 268.5625 99.886719 270.207031 99.640625 C 271.847656 99.394531 272.824219 98.882812 272.921875 98.21875 Z M 272.921875 98.21875 "/>
<path style="fill:none;stroke-width:1;stroke-linecap:round;stroke-linejoin:round;stroke:rgb(0%,0%,0%);stroke-opacity:1;stroke-miterlimit:10;" d="M 272.921875 98.21875 C 273.015625 97.550781 272.222656 96.789062 270.714844 96.09375 C 269.207031 95.398438 267.109375 94.832031 264.878906 94.515625 C 262.652344 94.199219 260.476562 94.160156 258.835938 94.40625 C 257.191406 94.652344 256.214844 95.164062 256.121094 95.828125 C 256.023438 96.492188 256.816406 97.257812 258.324219 97.949219 C 259.832031 98.644531 261.933594 99.214844 264.160156 99.53125 C 266.386719 99.847656 268.5625 99.886719 270.207031 99.640625 C 271.847656 99.394531 272.824219 98.882812 272.921875 98.21875 "/>
<path style="fill:none;stroke-width:5.969395;stroke-linecap:round;stroke-linejoin:round;stroke:rgb(0%,0%,0%);stroke-opacity:1;stroke-miterlimit:10;" d="M 297.035156 57.011719 C 297.023438 54.195312 297.007812 51.382812 296.996094 48.566406 "/>
<path style=" stroke:none;fill-rule:nonzero;fill:rgb(80%,0%,0%);fill-opacity:1;" d="M 305.480469 48.527344 C 305.476562 47.855469 304.582031 47.214844 302.988281 46.75 C 301.394531 46.28125 299.234375 46.023438 296.984375 46.035156 C 294.734375 46.046875 292.578125 46.320312 290.988281 46.804688 C 289.398438 47.285156 288.507812 47.933594 288.511719 48.605469 C 288.515625 49.277344 289.410156 49.917969 291.003906 50.386719 C 292.597656 50.855469 294.757812 51.109375 297.007812 51.101562 C 299.257812 51.089844 301.414062 50.8125 303.003906 50.332031 C 304.59375 49.847656 305.484375 49.199219 305.480469 48.527344 Z M 305.480469 48.527344 "/>
<path style="fill:none;stroke-width:1;stroke-linecap:round;stroke-linejoin:round;stroke:rgb(0%,0%,0%);stroke-opacity:1;stroke-miterlimit:10;" d="M 305.480469 48.527344 C 305.476562 47.855469 304.582031 47.214844 302.988281 46.75 C 301.394531 46.28125 299.234375 46.023438 296.984375 46.035156 C 294.734375 46.046875 292.578125 46.320312 290.988281 46.804688 C 289.398438 47.285156 288.507812 47.933594 288.511719 48.605469 C 288.515625 49.277344 289.410156 49.917969 291.003906 50.386719 C 292.597656 50.855469 294.757812 51.109375 297.007812 51.101562 C 299.257812 51.089844 301.414062 50.8125 303.003906 50.332031 C 304.59375 49.847656 305.484375 49.199219 305.480469 48.527344 "/>
<path style="fill:none;stroke-width:5.969395;stroke-linecap:round;stroke-linejoin:round;stroke:rgb(0%,0%,0%);stroke-opacity:1;stroke-miterlimit:10;" d="M 208.617188 19.695312 C 208.203125 16.910156 207.789062 14.128906 207.375 11.34375 "/>
<path style=" stroke:none;fill-rule:nonzero;fill:rgb(80%,0%,0%);fill-opacity:1;" d="M 215.769531 10.109375 C 215.671875 9.445312 214.691406 8.9375 213.050781 8.699219 C 211.40625 8.460938 209.230469 8.511719 207.003906 8.835938 C 204.777344 9.164062 202.683594 9.742188 201.179688 10.445312 C 199.671875 11.144531 198.882812 11.914062 198.984375 12.578125 C 199.082031 13.242188 200.058594 13.75 201.703125 13.988281 C 203.347656 14.226562 205.523438 14.175781 207.75 13.847656 C 209.976562 13.523438 212.070312 12.945312 213.574219 12.242188 C 215.078125 11.542969 215.871094 10.773438 215.769531 10.109375 Z M 215.769531 10.109375 "/>
<path style="fill:none;stroke-width:1;stroke-linecap:round;stroke-linejoin:round;stroke:rgb(0%,0%,0%);stroke-opacity:1;stroke-miterlimit:10;" d="M 215.769531 10.109375 C 215.671875 9.445312 214.691406 8.9375 213.050781 8.699219 C 211.40625 8.460938 209.230469 8.511719 207.003906 8.835938 C 204.777344 9.164062 202.683594 9.742188 201.179688 10.445312 C 199.671875 11.144531 198.882812 11.914062 198.984375 12.578125 C 199.082031 13.242188 200.058594 13.75 201.703125 13.988281 C 203.347656 14.226562 205.523438 14.175781 207.75 13.847656 C 209.976562 13.523438 212.070312 12.945312 213.574219 12.242188 C 215.078125 11.542969 215.871094 10.773438 215.769531 10.109375 "/>
<path style="fill:none;stroke-width:5.969395;stroke-linecap:round;stroke-linejoin:round;stroke:rgb(0%,0%,0%);stroke-opacity:1;stroke-miterlimit:10;" d="M 164.898438 154.105469 C 164.675781 151.300781 164.453125 148.492188 164.230469 145.6875 "/>
<path style=" stroke:none;fill-rule:nonzero;fill:rgb(80%,0%,0%);fill-opacity:1;" d="M 172.6875 145.019531 C 172.632812 144.351562 171.691406 143.78125 170.066406 143.429688 C 168.445312 143.082031 166.269531 142.984375 164.027344 143.164062 C 161.785156 143.339844 159.652344 143.777344 158.105469 144.375 C 156.558594 144.972656 155.714844 145.683594 155.769531 146.355469 C 155.824219 147.023438 156.765625 147.597656 158.390625 147.945312 C 160.015625 148.292969 162.1875 148.390625 164.429688 148.214844 C 166.671875 148.035156 168.804688 147.601562 170.351562 147.003906 C 171.902344 146.402344 172.742188 145.691406 172.6875 145.019531 Z M 172.6875 145.019531 "/>
<path style="fill:none;stroke-width:1;stroke-linecap:round;stroke-linejoin:round;stroke:rgb(0%,0%,0%);stroke-opacity:1;stroke-miterlimit:10;" d="M 172.6875 145.019531 C 172.632812 144.351562 171.691406 143.78125 170.066406 143.429688 C 168.445312 143.082031 166.269531 142.984375 164.027344 143.164062 C 161.785156 143.339844 159.652344 143.777344 158.105469 144.375 C 156.558594 144.972656 155.714844 145.683594 155.769531 146.355469 C 155.824219 147.023438 156.765625 147.597656 158.390625 147.945312 C 160.015625 148.292969 162.1875 148.390625 164.429688 148.214844 C 166.671875 148.035156 168.804688 147.601562 170.351562 147.003906 C 171.902344 146.402344 172.742188 145.691406 172.6875 145.019531 "/>
<path style="fill:none;stroke-width:5.969395;stroke-linecap:round;stroke-linejoin:round;stroke:rgb(0%,0%,0%);stroke-opacity:1;stroke-miterlimit:10;" d="M 335.199219 96.429688 C 335.226562 93.617188 335.253906 90.800781 335.28125 87.988281 "/>
<path style=" stroke:none;fill-rule:nonzero;fill:rgb(80%,0%,0%);fill-opacity:1;" d="M 343.765625 88.070312 C 343.773438 87.398438 342.886719 86.746094 341.300781 86.253906 C 339.714844 85.765625 337.558594 85.476562 335.308594 85.453125 C 333.058594 85.433594 330.898438 85.679688 329.300781 86.136719 C 327.703125 86.597656 326.804688 87.230469 326.796875 87.902344 C 326.789062 88.574219 327.679688 89.226562 329.265625 89.71875 C 330.851562 90.210938 333.007812 90.5 335.257812 90.519531 C 337.507812 90.542969 339.667969 90.296875 341.265625 89.835938 C 342.859375 89.378906 343.761719 88.742188 343.765625 88.070312 Z M 343.765625 88.070312 "/>
<path style="fill:none;stroke-width:1;stroke-linecap:round;stroke-linejoin:round;stroke:rgb(0%,0%,0%);stroke-opacity:1;stroke-miterlimit:10;" d="M 343.765625 88.070312 C 343.773438 87.398438 342.886719 86.746094 341.300781 86.253906 C 339.714844 85.765625 337.558594 85.476562 335.308594 85.453125 C 333.058594 85.433594 330.898438 85.679688 329.300781 86.136719 C 327.703125 86.597656 326.804688 87.230469 326.796875 87.902344 C 326.789062 88.574219 327.679688 89.226562 329.265625 89.71875 C 330.851562 90.210938 333.007812 90.5 335.257812 90.519531 C 337.507812 90.542969 339.667969 90.296875 341.265625 89.835938 C 342.859375 89.378906 343.761719 88.742188 343.765625 88.070312 "/>
<path style="fill:none;stroke-width:5.969395;stroke-linecap:round;stroke-linejoin:round;stroke:rgb(0%,0%,0%);stroke-opacity:1;stroke-miterlimit:10;" d="M 316.769531 170.457031 C 316.4375 167.660156 316.105469 164.867188 315.773438 162.070312 "/>
<path style=" stroke:none;fill-rule:nonzero;fill:rgb(80%,0%,0%);fill-opacity:1;" d="M 324.199219 161.082031 C 324.121094 160.414062 323.15625 159.878906 321.519531 159.59375 C 319.882812 159.304688 317.710938 159.292969 315.472656 159.554688 C 313.238281 159.820312 311.128906 160.335938 309.601562 160.992188 C 308.078125 161.652344 307.265625 162.394531 307.347656 163.0625 C 307.425781 163.730469 308.390625 164.265625 310.027344 164.550781 C 311.664062 164.835938 313.835938 164.851562 316.070312 164.585938 C 318.308594 164.324219 320.417969 163.808594 321.941406 163.148438 C 323.46875 162.492188 324.277344 161.75 324.199219 161.082031 Z M 324.199219 161.082031 "/>
<path style="fill:none;stroke-width:1;stroke-linecap:round;stroke-linejoin:round;stroke:rgb(0%,0%,0%);stroke-opacity:1;stroke-miterlimit:10;" d="M 324.199219 161.082031 C 324.121094 160.414062 323.15625 159.878906 321.519531 159.59375 C 319.882812 159.304688 317.710938 159.292969 315.472656 159.554688 C 313.238281 159.820312 311.128906 160.335938 309.601562 160.992188 C 308.078125 161.652344 307.265625 162.394531 307.347656 163.0625 C 307.425781 163.730469 308.390625 164.265625 310.027344 164.550781 C 311.664062 164.835938 313.835938 164.851562 316.070312 164.585938 C 318.308594 164.324219 320.417969 163.808594 321.941406 163.148438 C 323.46875 162.492188 324.277344 161.75 324.199219 161.082031 "/>
<path style="fill:none;stroke-width:5.969395;stroke-linecap:round;stroke-linejoin:round;stroke:rgb(0%,0%,0%);stroke-opacity:1;stroke-miterlimit:10;" d="M 91.917969 168.378906 C 91.585938 165.585938 91.253906 162.789062 90.921875 159.996094 "/>
<path style=" stroke:none;fill-rule:nonzero;fill:rgb(80%,0%,0%);fill-opacity:1;" d="M 99.351562 159.003906 C 99.269531 158.335938 98.304688 157.800781 96.671875 157.515625 C 95.035156 157.230469 92.859375 157.21875 90.625 157.480469 C 88.390625 157.742188 86.277344 158.261719 84.753906 158.917969 C 83.230469 159.574219 82.417969 160.320312 82.496094 160.988281 C 82.574219 161.65625 83.539062 162.191406 85.175781 162.476562 C 86.8125 162.761719 88.988281 162.773438 91.222656 162.511719 C 93.457031 162.25 95.570312 161.730469 97.09375 161.074219 C 98.617188 160.414062 99.429688 159.671875 99.351562 159.003906 Z M 99.351562 159.003906 "/>
<path style="fill:none;stroke-width:1;stroke-linecap:round;stroke-linejoin:round;stroke:rgb(0%,0%,0%);stroke-opacity:1;stroke-miterlimit:10;" d="M 99.351562 159.003906 C 99.269531 158.335938 98.304688 157.800781 96.671875 157.515625 C 95.035156 157.230469 92.859375 157.21875 90.625 157.480469 C 88.390625 157.742188 86.277344 158.261719 84.753906 158.917969 C 83.230469 159.574219 82.417969 160.320312 82.496094 160.988281 C 82.574219 161.65625 83.539062 162.191406 85.175781 162.476562 C 86.8125 162.761719 88.988281 162.773438 91.222656 162.511719 C 93.457031 162.25 95.570312 161.730469 97.09375 161.074219 C 98.617188 160.414062 99.429688 159.671875 99.351562 159.003906 "/>
<path style="fill:none;stroke-width:5.969395;stroke-linecap:round;stroke-linejoin:round;stroke:rgb(0%,0%,0%);stroke-opacity:1;stroke-miterlimit:10;" d="M 54.597656 75.726562 C 54.648438 72.914062 54.699219 70.097656 54.75 67.285156 "/>
<path style=" stroke:none;fill-rule:nonzero;fill:rgb(80%,0%,0%);fill-opacity:1;" d="M 63.234375 67.433594 C 63.246094 66.761719 62.363281 66.101562 60.78125 65.601562 C 59.195312 65.097656 57.042969 64.792969 54.792969 64.753906 C 52.542969 64.710938 50.382812 64.941406 48.78125 65.386719 C 47.183594 65.835938 46.277344 66.464844 46.265625 67.136719 C 46.253906 67.808594 47.136719 68.46875 48.71875 68.96875 C 50.300781 69.472656 52.453125 69.777344 54.703125 69.816406 C 56.953125 69.855469 59.117188 69.628906 60.714844 69.179688 C 62.316406 68.734375 63.21875 68.105469 63.234375 67.433594 Z M 63.234375 67.433594 "/>
<path style="fill:none;stroke-width:1;stroke-linecap:round;stroke-linejoin:round;stroke:rgb(0%,0%,0%);stroke-opacity:1;stroke-miterlimit:10;" d="M 63.234375 67.433594 C 63.246094 66.761719 62.363281 66.101562 60.78125 65.601562 C 59.195312 65.097656 57.042969 64.792969 54.792969 64.753906 C 52.542969 64.710938 50.382812 64.941406 48.78125 65.386719 C 47.183594 65.835938 46.277344 66.464844 46.265625 67.136719 C 46.253906 67.808594 47.136719 68.46875 48.71875 68.96875 C 50.300781 69.472656 52.453125 69.777344 54.703125 69.816406 C 56.953125 69.855469 59.117188 69.628906 60.714844 69.179688 C 62.316406 68.734375 63.21875 68.105469 63.234375 67.433594 "/>
<path style="fill:none;stroke-width:5.969395;stroke-linecap:round;stroke-linejoin:round;stroke:rgb(0%,0%,0%);stroke-opacity:1;stroke-miterlimit:10;" d="M 117.429688 44.113281 C 117.226562 41.304688 117.023438 38.5 116.820312 35.691406 "/>
<path style=" stroke:none;fill-rule:nonzero;fill:rgb(80%,0%,0%);fill-opacity:1;" d="M 125.285156 35.085938 C 125.234375 34.417969 124.296875 33.839844 122.675781 33.476562 C 121.054688 33.117188 118.882812 33.003906 116.636719 33.164062 C 114.394531 33.324219 112.261719 33.746094 110.707031 34.332031 C 109.152344 34.921875 108.308594 35.625 108.355469 36.296875 C 108.40625 36.964844 109.34375 37.546875 110.964844 37.90625 C 112.585938 38.265625 114.757812 38.378906 117.003906 38.21875 C 119.246094 38.058594 121.382812 37.636719 122.933594 37.050781 C 124.488281 36.464844 125.332031 35.757812 125.285156 35.085938 Z M 125.285156 35.085938 "/>
<path style="fill:none;stroke-width:1;stroke-linecap:round;stroke-linejoin:round;stroke:rgb(0%,0%,0%);stroke-opacity:1;stroke-miterlimit:10;" d="M 125.285156 35.085938 C 125.234375 34.417969 124.296875 33.839844 122.675781 33.476562 C 121.054688 33.117188 118.882812 33.003906 116.636719 33.164062 C 114.394531 33.324219 112.261719 33.746094 110.707031 34.332031 C 109.152344 34.921875 108.308594 35.625 108.355469 36.296875 C 108.40625 36.964844 109.34375 37.546875 110.964844 37.90625 C 112.585938 38.265625 114.757812 38.378906 117.003906 38.21875 C 119.246094 38.058594 121.382812 37.636719 122.933594 37.050781 C 124.488281 36.464844 125.332031 35.757812 125.285156 35.085938 "/>
<path style="fill:none;stroke-width:5.969395;stroke-linecap:round;stroke-linejoin:round;stroke:rgb(0%,0%,0%);stroke-opacity:1;stroke-miterlimit:10;" d="M 163.074219 70.359375 C 163.039062 67.546875 163.003906 64.730469 162.972656 61.917969 "/>
<path style=" stroke:none;fill-rule:nonzero;fill:rgb(80%,0%,0%);fill-opacity:1;" d="M 171.457031 61.816406 C 171.449219 61.144531 170.546875 60.511719 168.949219 60.054688 C 167.351562 59.597656 165.191406 59.355469 162.941406 59.382812 C 160.691406 59.410156 158.535156 59.703125 156.949219 60.199219 C 155.363281 60.691406 154.476562 61.347656 154.488281 62.019531 C 154.496094 62.691406 155.394531 63.324219 156.992188 63.78125 C 158.589844 64.234375 160.75 64.476562 163 64.449219 C 165.253906 64.421875 167.40625 64.128906 168.992188 63.636719 C 170.578125 63.140625 171.464844 62.488281 171.457031 61.816406 Z M 171.457031 61.816406 "/>
<path style="fill:none;stroke-width:1;stroke-linecap:round;stroke-linejoin:round;stroke:rgb(0%,0%,0%);stroke-opacity:1;stroke-miterlimit:10;" d="M 171.457031 61.816406 C 171.449219 61.144531 170.546875 60.511719 168.949219 60.054688 C 167.351562 59.597656 165.191406 59.355469 162.941406 59.382812 C 160.691406 59.410156 158.535156 59.703125 156.949219 60.199219 C 155.363281 60.691406 154.476562 61.347656 154.488281 62.019531 C 154.496094 62.691406 155.394531 63.324219 156.992188 63.78125 C 158.589844 64.234375 160.75 64.476562 163 64.449219 C 165.253906 64.421875 167.40625 64.128906 168.992188 63.636719 C 170.578125 63.140625 171.464844 62.488281 171.457031 61.816406 "/>
<path style="fill:none;stroke-width:5.969395;stroke-linecap:round;stroke-linejoin:round;stroke:rgb(0%,0%,0%);stroke-opacity:1;stroke-miterlimit:10;" d="M 217.023438 180.632812 C 217.269531 177.828125 217.515625 175.027344 217.765625 172.222656 "/>
<path style=" stroke:none;fill-rule:nonzero;fill:rgb(80%,0%,0%);fill-opacity:1;" d="M 226.21875 172.960938 C 226.277344 172.289062 225.441406 171.570312 223.898438 170.960938 C 222.355469 170.347656 220.230469 169.894531 217.988281 169.699219 C 215.746094 169.503906 213.570312 169.582031 211.945312 169.917969 C 210.316406 170.25 209.371094 170.816406 209.3125 171.484375 C 209.253906 172.152344 210.085938 172.871094 211.628906 173.484375 C 213.175781 174.097656 215.300781 174.550781 217.542969 174.746094 C 219.785156 174.941406 221.957031 174.863281 223.585938 174.527344 C 225.210938 174.191406 226.160156 173.628906 226.21875 172.960938 Z M 226.21875 172.960938 "/>
<path style="fill:none;stroke-width:1;stroke-linecap:round;stroke-linejoin:round;stroke:rgb(0%,0%,0%);stroke-opacity:1;stroke-miterlimit:10;" d="M 226.21875 172.960938 C 226.277344 172.289062 225.441406 171.570312 223.898438 170.960938 C 222.355469 170.347656 220.230469 169.894531 217.988281 169.699219 C 215.746094 169.503906 213.570312 169.582031 211.945312 169.917969 C 210.316406 170.25 209.371094 170.816406 209.3125 171.484375 C 209.253906 172.152344 210.085938 172.871094 211.628906 173.484375 C 213.175781 174.097656 215.300781 174.550781 217.542969 174.746094 C 219.785156 174.941406 221.957031 174.863281 223.585938 174.527344 C 225.210938 174.191406 226.160156 173.628906 226.21875 172.960938 "/>
<path style="fill:none;stroke-width:5.969395;stroke-linecap:round;stroke-linejoin:round;stroke:rgb(0%,0%,0%);stroke-opacity:1;stroke-miterlimit:10;" d="M 347.816406 39.539062 C 347.542969 36.738281 347.269531 33.933594 346.996094 31.132812 "/>
<path style=" stroke:none;fill-rule:nonzero;fill:rgb(80%,0%,0%);fill-opacity:1;" d="M 355.441406 30.320312 C 355.378906 29.652344 354.425781 29.097656 352.796875 28.777344 C 351.164062 28.457031 348.992188 28.398438 346.75 28.613281 C 344.511719 28.828125 342.390625 29.300781 340.851562 29.925781 C 339.3125 30.550781 338.488281 31.28125 338.550781 31.949219 C 338.617188 32.617188 339.570312 33.171875 341.199219 33.492188 C 342.828125 33.8125 345.003906 33.871094 347.242188 33.65625 C 349.484375 33.4375 351.605469 32.964844 353.144531 32.339844 C 354.679688 31.714844 355.507812 30.988281 355.441406 30.320312 Z M 355.441406 30.320312 "/>
<path style="fill:none;stroke-width:1;stroke-linecap:round;stroke-linejoin:round;stroke:rgb(0%,0%,0%);stroke-opacity:1;stroke-miterlimit:10;" d="M 355.441406 30.320312 C 355.378906 29.652344 354.425781 29.097656 352.796875 28.777344 C 351.164062 28.457031 348.992188 28.398438 346.75 28.613281 C 344.511719 28.828125 342.390625 29.300781 340.851562 29.925781 C 339.3125 30.550781 338.488281 31.28125 338.550781 31.949219 C 338.617188 32.617188 339.570312 33.171875 341.199219 33.492188 C 342.828125 33.8125 345.003906 33.871094 347.242188 33.65625 C 349.484375 33.4375 351.605469 32.964844 353.144531 32.339844 C 354.679688 31.714844 355.507812 30.988281 355.441406 30.320312 "/>
<path style="fill:none;stroke-width:5.969395;stroke-linecap:round;stroke-linejoin:round;stroke:rgb(0%,0%,0%);stroke-opacity:1;stroke-miterlimit:10;" d="M 186.730469 178.390625 C 186.609375 175.578125 186.484375 172.769531 186.359375 169.957031 "/>
<path style=" stroke:none;fill-rule:nonzero;fill:rgb(80%,0%,0%);fill-opacity:1;" d="M 194.835938 169.585938 C 194.808594 168.914062 193.886719 168.308594 192.273438 167.90625 C 190.664062 167.5 188.496094 167.328125 186.25 167.425781 C 184 167.523438 181.855469 167.882812 180.285156 168.429688 C 178.71875 168.972656 177.851562 169.65625 177.882812 170.328125 C 177.914062 170.996094 178.835938 171.601562 180.445312 172.007812 C 182.054688 172.414062 184.222656 172.585938 186.472656 172.488281 C 188.71875 172.386719 190.863281 172.027344 192.433594 171.484375 C 194.003906 170.9375 194.867188 170.257812 194.835938 169.585938 Z M 194.835938 169.585938 "/>
<path style="fill:none;stroke-width:1;stroke-linecap:round;stroke-linejoin:round;stroke:rgb(0%,0%,0%);stroke-opacity:1;stroke-miterlimit:10;" d="M 194.835938 169.585938 C 194.808594 168.914062 193.886719 168.308594 192.273438 167.90625 C 190.664062 167.5 188.496094 167.328125 186.25 167.425781 C 184 167.523438 181.855469 167.882812 180.285156 168.429688 C 178.71875 168.972656 177.851562 169.65625 177.882812 170.328125 C 177.914062 170.996094 178.835938 171.601562 180.445312 172.007812 C 182.054688 172.414062 184.222656 172.585938 186.472656 172.488281 C 188.71875 172.386719 190.863281 172.027344 192.433594 171.484375 C 194.003906 170.9375 194.867188 170.257812 194.835938 169.585938 "/>
<path style="fill:none;stroke-width:5.969395;stroke-linecap:round;stroke-linejoin:round;stroke:rgb(0%,0%,0%);stroke-opacity:1;stroke-miterlimit:10;" d="M 75.648438 176.296875 C 76.066406 173.515625 76.480469 170.730469 76.898438 167.949219 "/>
<path style=" stroke:none;fill-rule:nonzero;fill:rgb(80%,0%,0%);fill-opacity:1;" d="M 85.289062 169.191406 C 85.390625 168.523438 84.601562 167.757812 83.097656 167.054688 C 81.59375 166.351562 79.496094 165.773438 77.273438 165.441406 C 75.046875 165.113281 72.871094 165.058594 71.226562 165.296875 C 69.582031 165.535156 68.601562 166.039062 68.503906 166.707031 C 68.40625 167.371094 69.195312 168.136719 70.699219 168.839844 C 72.203125 169.542969 74.296875 170.125 76.523438 170.453125 C 78.75 170.78125 80.921875 170.835938 82.566406 170.597656 C 84.210938 170.359375 85.191406 169.855469 85.289062 169.191406 Z M 85.289062 169.191406 "/>
<path style="fill:none;stroke-width:1;stroke-linecap:round;stroke-linejoin:round;stroke:rgb(0%,0%,0%);stroke-opacity:1;stroke-miterlimit:10;" d="M 85.289062 169.191406 C 85.390625 168.523438 84.601562 167.757812 83.097656 167.054688 C 81.59375 166.351562 79.496094 165.773438 77.273438 165.441406 C 75.046875 165.113281 72.871094 165.058594 71.226562 165.296875 C 69.582031 165.535156 68.601562 166.039062 68.503906 166.707031 C 68.40625 167.371094 69.195312 168.136719 70.699219 168.839844 C 72.203125 169.542969 74.296875 170.125 76.523438 170.453125 C 78.75 170.78125 80.921875 170.835938 82.566406 170.597656 C 84.210938 170.359375 85.191406 169.855469 85.289062 169.191406 "/>
<path style="fill:none;stroke-width:1;stroke-linecap:round;stroke-linejoin:round;stroke:rgb(0%,0%,0%);stroke-opacity:1;stroke-miterlimit:10;" d="M 312.433594 179.316406 C 323.886719 168.011719 335.335938 156.707031 346.785156 145.402344 "/>
<path style="fill:none;stroke-width:1;stroke-linecap:round;stroke-linejoin:round;stroke:rgb(0%,0%,0%);stroke-opacity:1;stroke-miterlimit:10;" d="M 302.519531 27.09375 C 271.21875 24.628906 239.917969 22.160156 208.617188 19.695312 "/>
<path style="fill:none;stroke-width:1;stroke-linecap:round;stroke-linejoin:round;stroke:rgb(0%,0%,0%);stroke-opacity:1;stroke-miterlimit:10;" d="M 346.785156 145.402344 C 347.128906 110.113281 347.472656 74.824219 347.816406 39.539062 "/>
<path style="fill:none;stroke-width:1;stroke-linecap:round;stroke-linejoin:round;stroke:rgb(0%,0%,0%);stroke-opacity:1;stroke-miterlimit:10;" d="M 208.617188 19.695312 C 178.222656 27.835938 147.824219 35.972656 117.429688 44.113281 "/>
<path style="fill:none;stroke-width:1;stroke-linecap:round;stroke-linejoin:round;stroke:rgb(0%,0%,0%);stroke-opacity:1;stroke-miterlimit:10;" d="M 54.597656 75.726562 C 61.613281 109.25 68.632812 142.773438 75.648438 176.296875 "/>
<path style="fill:none;stroke-width:1;stroke-linecap:round;stroke-linejoin:round;stroke:rgb(0%,0%,0%);stroke-opacity:1;stroke-miterlimit:10;" d="M 117.429688 44.113281 C 96.484375 54.652344 75.542969 65.1875 54.597656 75.726562 "/>
<path style="fill:none;stroke-width:1;stroke-linecap:round;stroke-linejoin:round;stroke:rgb(0%,0%,0%);stroke-opacity:1;stroke-miterlimit:10;" d="M 217.023438 180.632812 C 248.828125 180.195312 280.632812 179.757812 312.433594 179.316406 "/>
<path style="fill:none;stroke-width:1;stroke-linecap:round;stroke-linejoin:round;stroke:rgb(0%,0%,0%);stroke-opacity:1;stroke-miterlimit:10;" d="M 347.816406 39.539062 C 332.71875 35.390625 317.617188 31.242188 302.519531 27.09375 "/>
<path style="fill:none;stroke-width:1;stroke-linecap:round;stroke-linejoin:round;stroke:rgb(0%,0%,0%);stroke-opacity:1;stroke-miterlimit:10;" d="M 75.648438 176.296875 C 122.773438 177.742188 169.898438 179.1875 217.023438 180.632812 "/>
</g>
</svg>
