<?xml version="1.0" encoding="UTF-8"?>
<svg xmlns="http://www.w3.org/2000/svg" xmlns:xlink="http://www.w3.org/1999/xlink" width="206" height="206" viewBox="0 0 206 206" version="1.1">
<g id="surface202">
<path style="fill:none;stroke-width:1;stroke-linecap:round;stroke-linejoin:round;stroke:rgb(0%,0%,0%);stroke-opacity:1;stroke-miterlimit:10;" d="M 100 100 C 130.304688 100 160.605469 100 190.910156 100 " transform="matrix(1,0,0,1,3,3)"/>
<path style="fill:none;stroke-width:1;stroke-linecap:round;stroke-linejoin:round;stroke:rgb(0%,0%,0%);stroke-opacity:1;stroke-miterlimit:10;" d="M 49.488281 158.578125 C 54.882812 139.222656 59.597656 119.683594 63.628906 100 C 59.597656 80.316406 54.882812 60.777344 49.488281 41.421875 C 92.851562 69.046875 140.710938 88.871094 190.910156 100 C 140.710938 111.128906 92.851562 130.953125 49.488281 158.578125 " transform="matrix(1,0,0,1,3,3)"/>
<path style=" stroke:none;fill-rule:nonzero;fill:rgb(0%,0%,0%);fill-opacity:1;" d="M 52.488281 161.578125 C 57.882812 142.222656 62.597656 122.683594 66.628906 103 C 62.597656 83.316406 57.882812 63.777344 52.488281 44.421875 C 95.851562 72.046875 143.710938 91.871094 193.910156 103 C 143.710938 114.128906 95.851562 133.953125 52.488281 161.578125 Z M 52.488281 161.578125 "/>
</g>
</svg>
