<?xml version="1.0" encoding="UTF-8"?>
<svg xmlns="http://www.w3.org/2000/svg" xmlns:xlink="http://www.w3.org/1999/xlink" width="106" height="106" viewBox="0 0 106 106" version="1.1">
<g id="surface546">
<path style="fill:none;stroke-width:1;stroke-linecap:round;stroke-linejoin:round;stroke:rgb(0%,0%,0%);stroke-opacity:1;stroke-miterlimit:10;" d="M 50 50 C 65.152344 34.847656 80.304688 19.695312 95.453125 4.546875 " transform="matrix(1,0,0,1,3,3)"/>
<path style="fill:none;stroke-width:1;stroke-linecap:round;stroke-linejoin:round;stroke:rgb(0%,0%,0%);stroke-opacity:1;stroke-miterlimit:10;" d="M 90.769531 15.859375 C 90.007812 14.433594 89.195312 13.035156 88.335938 11.664062 C 86.964844 10.804688 85.566406 9.992188 84.140625 9.230469 C 88.15625 8.339844 91.984375 6.753906 95.453125 4.546875 C 93.246094 8.015625 91.660156 11.84375 90.769531 15.859375 " transform="matrix(1,0,0,1,3,3)"/>
<path style=" stroke:none;fill-rule:nonzero;fill:rgb(0%,0%,0%);fill-opacity:1;" d="M 93.769531 18.859375 C 93.007812 17.433594 92.195312 16.035156 91.335938 14.664062 C 89.964844 13.804688 88.566406 12.992188 87.140625 12.230469 C 91.15625 11.339844 94.984375 9.753906 98.453125 7.546875 C 96.246094 11.015625 94.660156 14.84375 93.769531 18.859375 Z M 93.769531 18.859375 "/>
<path style="fill:none;stroke-width:1;stroke-linecap:round;stroke-linejoin:round;stroke:rgb(0%,0%,0%);stroke-opacity:1;stroke-miterlimit:10;" d="M 4.546875 4.546875 C 12.121094 12.121094 19.695312 19.695312 27.273438 27.273438 " transform="matrix(1,0,0,1,3,3)"/>
<path style="fill:none;stroke-width:1;stroke-linecap:round;stroke-linejoin:round;stroke:rgb(0%,0%,0%);stroke-opacity:1;stroke-miterlimit:10;" d="M 21.617188 24.929688 C 22.1875 24.398438 22.738281 23.84375 23.273438 23.273438 C 23.84375 22.738281 24.398438 22.1875 24.929688 21.617188 C 25.375 23.625 26.167969 25.539062 27.273438 27.273438 C 25.539062 26.167969 23.625 25.375 21.617188 24.929688 " transform="matrix(1,0,0,1,3,3)"/>
<path style=" stroke:none;fill-rule:nonzero;fill:rgb(0%,0%,0%);fill-opacity:1;" d="M 24.617188 27.929688 C 25.1875 27.398438 25.738281 26.84375 26.273438 26.273438 C 26.84375 25.738281 27.398438 25.1875 27.929688 24.617188 C 28.375 26.625 29.167969 28.539062 30.273438 30.273438 C 28.539062 29.167969 26.625 28.375 24.617188 27.929688 Z M 24.617188 27.929688 "/>
<path style="fill:none;stroke-width:1;stroke-linecap:round;stroke-linejoin:round;stroke:rgb(0%,0%,0%);stroke-opacity:1;stroke-miterlimit:10;" d="M 4.546875 50 C 4.546875 62.054688 9.335938 73.617188 17.859375 82.140625 C 26.382812 90.664062 37.945312 95.453125 50 95.453125 C 62.054688 95.453125 73.617188 90.664062 82.140625 82.140625 C 90.664062 73.617188 95.453125 62.054688 95.453125 50 " transform="matrix(1,0,0,1,3,3)"/>
<path style="fill:none;stroke-width:1;stroke-linecap:round;stroke-linejoin:round;stroke:rgb(0%,0%,0%);stroke-opacity:1;stroke-miterlimit:10;" d="M 96.96875 55.65625 C 96.472656 55.433594 95.96875 55.222656 95.453125 55.035156 C 94.941406 55.222656 94.4375 55.433594 93.9375 55.65625 C 94.769531 53.875 95.28125 51.960938 95.453125 50 C 95.625 51.960938 96.140625 53.875 96.96875 55.65625 " transform="matrix(1,0,0,1,3,3)"/>
<path style=" stroke:none;fill-rule:nonzero;fill:rgb(0%,0%,0%);fill-opacity:1;" d="M 99.96875 58.65625 C 99.472656 58.433594 98.96875 58.222656 98.453125 58.035156 C 97.941406 58.222656 97.4375 58.433594 96.9375 58.65625 C 97.769531 56.875 98.28125 54.960938 98.453125 53 C 98.625 54.960938 99.140625 56.875 99.96875 58.65625 Z M 99.96875 58.65625 "/>
<path style="fill:none;stroke-width:1;stroke-linecap:round;stroke-linejoin:round;stroke:rgb(0%,0%,0%);stroke-opacity:1;stroke-miterlimit:10;" d="M 95.453125 50 C 95.453125 62.054688 90.664062 73.617188 82.140625 82.140625 C 73.617188 90.664062 62.054688 95.453125 50 95.453125 C 37.945312 95.453125 26.382812 90.664062 17.859375 82.140625 C 9.335938 73.617188 4.546875 62.054688 4.546875 50 " transform="matrix(1,0,0,1,3,3)"/>
<path style="fill:none;stroke-width:1;stroke-linecap:round;stroke-linejoin:round;stroke:rgb(0%,0%,0%);stroke-opacity:1;stroke-miterlimit:10;" d="M 6.0625 55.65625 C 5.5625 55.433594 5.058594 55.222656 4.546875 55.035156 C 4.03125 55.222656 3.527344 55.433594 3.03125 55.65625 C 3.859375 53.875 4.375 51.960938 4.546875 50 C 4.71875 51.960938 5.230469 53.875 6.0625 55.65625 " transform="matrix(1,0,0,1,3,3)"/>
<path style=" stroke:none;fill-rule:nonzero;fill:rgb(0%,0%,0%);fill-opacity:1;" d="M 9.0625 58.65625 C 8.5625 58.433594 8.058594 58.222656 7.546875 58.035156 C 7.03125 58.222656 6.527344 58.433594 6.03125 58.65625 C 6.859375 56.875 7.375 54.960938 7.546875 53 C 7.71875 54.960938 8.230469 56.875 9.0625 58.65625 Z M 9.0625 58.65625 "/>
</g>
</svg>
