<?xml version="1.0" encoding="UTF-8"?>
<svg xmlns="http://www.w3.org/2000/svg" xmlns:xlink="http://www.w3.org/1999/xlink" width="616" height="216" viewBox="0 0 616 216" version="1.1">
<g id="surface6188">
<path style="fill:none;stroke-width:4;stroke-linecap:round;stroke-linejoin:round;stroke:rgb(0%,0%,0%);stroke-opacity:1;stroke-miterlimit:10;" d="M 405 105 C 405 78.476562 394.464844 53.042969 375.710938 34.289062 C 356.957031 15.535156 331.523438 5 305 5 C 278.476562 5 253.042969 15.535156 234.289062 34.289062 C 215.535156 53.042969 205 78.476562 205 105 C 205 131.523438 215.535156 156.957031 234.289062 175.710938 C 253.042969 194.464844 278.476562 205 305 205 C 331.523438 205 356.957031 194.464844 375.710938 175.710938 C 394.464844 156.957031 405 131.523438 405 105 " transform="matrix(1,0,0,1,3,3)"/>
<path style="fill:none;stroke-width:1;stroke-linecap:round;stroke-linejoin:round;stroke:rgb(0%,0%,0%);stroke-opacity:1;stroke-miterlimit:10;" d="M 305 5 C 305 8.332031 305 11.667969 305 15 " transform="matrix(1,0,0,1,3,3)"/>
<path style="fill:none;stroke-width:1;stroke-linecap:round;stroke-linejoin:round;stroke:rgb(0%,0%,0%);stroke-opacity:1;stroke-miterlimit:10;" d="M 315.453125 5.546875 C 315.277344 7.207031 315.105469 8.863281 314.929688 10.519531 " transform="matrix(1,0,0,1,3,3)"/>
<path style="fill:none;stroke-width:1;stroke-linecap:round;stroke-linejoin:round;stroke:rgb(0%,0%,0%);stroke-opacity:1;stroke-miterlimit:10;" d="M 325.792969 7.183594 C 325.445312 8.816406 325.097656 10.445312 324.75 12.074219 " transform="matrix(1,0,0,1,3,3)"/>
<path style="fill:none;stroke-width:1;stroke-linecap:round;stroke-linejoin:round;stroke:rgb(0%,0%,0%);stroke-opacity:1;stroke-miterlimit:10;" d="M 335.902344 9.894531 C 335.386719 11.480469 334.871094 13.066406 334.355469 14.648438 " transform="matrix(1,0,0,1,3,3)"/>
<path style="fill:none;stroke-width:1;stroke-linecap:round;stroke-linejoin:round;stroke:rgb(0%,0%,0%);stroke-opacity:1;stroke-miterlimit:10;" d="M 345.671875 13.644531 C 344.996094 15.167969 344.316406 16.691406 343.640625 18.214844 " transform="matrix(1,0,0,1,3,3)"/>
<path style="fill:none;stroke-width:1;stroke-linecap:round;stroke-linejoin:round;stroke:rgb(0%,0%,0%);stroke-opacity:1;stroke-miterlimit:10;" d="M 355 18.398438 C 353.332031 21.285156 351.667969 24.171875 350 27.058594 " transform="matrix(1,0,0,1,3,3)"/>
<path style="fill:none;stroke-width:1;stroke-linecap:round;stroke-linejoin:round;stroke:rgb(0%,0%,0%);stroke-opacity:1;stroke-miterlimit:10;" d="M 363.777344 24.097656 C 362.800781 25.445312 361.820312 26.796875 360.839844 28.144531 " transform="matrix(1,0,0,1,3,3)"/>
<path style="fill:none;stroke-width:1;stroke-linecap:round;stroke-linejoin:round;stroke:rgb(0%,0%,0%);stroke-opacity:1;stroke-miterlimit:10;" d="M 371.914062 30.683594 C 370.796875 31.925781 369.683594 33.164062 368.566406 34.402344 " transform="matrix(1,0,0,1,3,3)"/>
<path style="fill:none;stroke-width:1;stroke-linecap:round;stroke-linejoin:round;stroke:rgb(0%,0%,0%);stroke-opacity:1;stroke-miterlimit:10;" d="M 379.316406 38.085938 C 378.074219 39.203125 376.835938 40.316406 375.597656 41.433594 " transform="matrix(1,0,0,1,3,3)"/>
<path style="fill:none;stroke-width:1;stroke-linecap:round;stroke-linejoin:round;stroke:rgb(0%,0%,0%);stroke-opacity:1;stroke-miterlimit:10;" d="M 385.902344 46.222656 C 384.554688 47.199219 383.203125 48.179688 381.855469 49.160156 " transform="matrix(1,0,0,1,3,3)"/>
<path style="fill:none;stroke-width:1;stroke-linecap:round;stroke-linejoin:round;stroke:rgb(0%,0%,0%);stroke-opacity:1;stroke-miterlimit:10;" d="M 391.601562 55 C 388.714844 56.667969 385.828125 58.332031 382.941406 60 " transform="matrix(1,0,0,1,3,3)"/>
<path style="fill:none;stroke-width:1;stroke-linecap:round;stroke-linejoin:round;stroke:rgb(0%,0%,0%);stroke-opacity:1;stroke-miterlimit:10;" d="M 396.355469 64.328125 C 394.832031 65.003906 393.308594 65.683594 391.785156 66.359375 " transform="matrix(1,0,0,1,3,3)"/>
<path style="fill:none;stroke-width:1;stroke-linecap:round;stroke-linejoin:round;stroke:rgb(0%,0%,0%);stroke-opacity:1;stroke-miterlimit:10;" d="M 400.105469 74.097656 C 398.519531 74.613281 396.933594 75.128906 395.351562 75.644531 " transform="matrix(1,0,0,1,3,3)"/>
<path style="fill:none;stroke-width:1;stroke-linecap:round;stroke-linejoin:round;stroke:rgb(0%,0%,0%);stroke-opacity:1;stroke-miterlimit:10;" d="M 402.816406 84.207031 C 401.183594 84.554688 399.554688 84.902344 397.925781 85.25 " transform="matrix(1,0,0,1,3,3)"/>
<path style="fill:none;stroke-width:1;stroke-linecap:round;stroke-linejoin:round;stroke:rgb(0%,0%,0%);stroke-opacity:1;stroke-miterlimit:10;" d="M 404.453125 94.546875 C 402.792969 94.722656 401.136719 94.894531 399.480469 95.070312 " transform="matrix(1,0,0,1,3,3)"/>
<path style="fill:none;stroke-width:1;stroke-linecap:round;stroke-linejoin:round;stroke:rgb(0%,0%,0%);stroke-opacity:1;stroke-miterlimit:10;" d="M 405 105 C 401.667969 105 398.332031 105 395 105 " transform="matrix(1,0,0,1,3,3)"/>
<path style="fill:none;stroke-width:1;stroke-linecap:round;stroke-linejoin:round;stroke:rgb(0%,0%,0%);stroke-opacity:1;stroke-miterlimit:10;" d="M 404.453125 115.453125 C 402.792969 115.277344 401.136719 115.105469 399.480469 114.929688 " transform="matrix(1,0,0,1,3,3)"/>
<path style="fill:none;stroke-width:1;stroke-linecap:round;stroke-linejoin:round;stroke:rgb(0%,0%,0%);stroke-opacity:1;stroke-miterlimit:10;" d="M 402.816406 125.792969 C 401.183594 125.445312 399.554688 125.097656 397.925781 124.75 " transform="matrix(1,0,0,1,3,3)"/>
<path style="fill:none;stroke-width:1;stroke-linecap:round;stroke-linejoin:round;stroke:rgb(0%,0%,0%);stroke-opacity:1;stroke-miterlimit:10;" d="M 400.105469 135.902344 C 398.519531 135.386719 396.933594 134.871094 395.351562 134.355469 " transform="matrix(1,0,0,1,3,3)"/>
<path style="fill:none;stroke-width:1;stroke-linecap:round;stroke-linejoin:round;stroke:rgb(0%,0%,0%);stroke-opacity:1;stroke-miterlimit:10;" d="M 396.355469 145.671875 C 394.832031 144.996094 393.308594 144.316406 391.785156 143.640625 " transform="matrix(1,0,0,1,3,3)"/>
<path style="fill:none;stroke-width:1;stroke-linecap:round;stroke-linejoin:round;stroke:rgb(0%,0%,0%);stroke-opacity:1;stroke-miterlimit:10;" d="M 391.601562 155 C 388.714844 153.332031 385.828125 151.667969 382.941406 150 " transform="matrix(1,0,0,1,3,3)"/>
<path style="fill:none;stroke-width:1;stroke-linecap:round;stroke-linejoin:round;stroke:rgb(0%,0%,0%);stroke-opacity:1;stroke-miterlimit:10;" d="M 385.902344 163.777344 C 384.554688 162.800781 383.203125 161.820312 381.855469 160.839844 " transform="matrix(1,0,0,1,3,3)"/>
<path style="fill:none;stroke-width:1;stroke-linecap:round;stroke-linejoin:round;stroke:rgb(0%,0%,0%);stroke-opacity:1;stroke-miterlimit:10;" d="M 379.316406 171.914062 C 378.074219 170.796875 376.835938 169.683594 375.597656 168.566406 " transform="matrix(1,0,0,1,3,3)"/>
<path style="fill:none;stroke-width:1;stroke-linecap:round;stroke-linejoin:round;stroke:rgb(0%,0%,0%);stroke-opacity:1;stroke-miterlimit:10;" d="M 371.914062 179.316406 C 370.796875 178.074219 369.683594 176.835938 368.566406 175.597656 " transform="matrix(1,0,0,1,3,3)"/>
<path style="fill:none;stroke-width:1;stroke-linecap:round;stroke-linejoin:round;stroke:rgb(0%,0%,0%);stroke-opacity:1;stroke-miterlimit:10;" d="M 363.777344 185.902344 C 362.800781 184.554688 361.820312 183.203125 360.839844 181.855469 " transform="matrix(1,0,0,1,3,3)"/>
<path style="fill:none;stroke-width:1;stroke-linecap:round;stroke-linejoin:round;stroke:rgb(0%,0%,0%);stroke-opacity:1;stroke-miterlimit:10;" d="M 355 191.601562 C 353.332031 188.714844 351.667969 185.828125 350 182.941406 " transform="matrix(1,0,0,1,3,3)"/>
<path style="fill:none;stroke-width:1;stroke-linecap:round;stroke-linejoin:round;stroke:rgb(0%,0%,0%);stroke-opacity:1;stroke-miterlimit:10;" d="M 345.671875 196.355469 C 344.996094 194.832031 344.316406 193.308594 343.640625 191.785156 " transform="matrix(1,0,0,1,3,3)"/>
<path style="fill:none;stroke-width:1;stroke-linecap:round;stroke-linejoin:round;stroke:rgb(0%,0%,0%);stroke-opacity:1;stroke-miterlimit:10;" d="M 335.902344 200.105469 C 335.386719 198.519531 334.871094 196.933594 334.355469 195.351562 " transform="matrix(1,0,0,1,3,3)"/>
<path style="fill:none;stroke-width:1;stroke-linecap:round;stroke-linejoin:round;stroke:rgb(0%,0%,0%);stroke-opacity:1;stroke-miterlimit:10;" d="M 325.792969 202.816406 C 325.445312 201.183594 325.097656 199.554688 324.75 197.925781 " transform="matrix(1,0,0,1,3,3)"/>
<path style="fill:none;stroke-width:1;stroke-linecap:round;stroke-linejoin:round;stroke:rgb(0%,0%,0%);stroke-opacity:1;stroke-miterlimit:10;" d="M 315.453125 204.453125 C 315.277344 202.792969 315.105469 201.136719 314.929688 199.480469 " transform="matrix(1,0,0,1,3,3)"/>
<path style="fill:none;stroke-width:1;stroke-linecap:round;stroke-linejoin:round;stroke:rgb(0%,0%,0%);stroke-opacity:1;stroke-miterlimit:10;" d="M 305 205 C 305 201.667969 305 198.332031 305 195 " transform="matrix(1,0,0,1,3,3)"/>
<path style="fill:none;stroke-width:1;stroke-linecap:round;stroke-linejoin:round;stroke:rgb(0%,0%,0%);stroke-opacity:1;stroke-miterlimit:10;" d="M 294.546875 204.453125 C 294.722656 202.792969 294.894531 201.136719 295.070312 199.480469 " transform="matrix(1,0,0,1,3,3)"/>
<path style="fill:none;stroke-width:1;stroke-linecap:round;stroke-linejoin:round;stroke:rgb(0%,0%,0%);stroke-opacity:1;stroke-miterlimit:10;" d="M 284.207031 202.816406 C 284.554688 201.183594 284.902344 199.554688 285.25 197.925781 " transform="matrix(1,0,0,1,3,3)"/>
<path style="fill:none;stroke-width:1;stroke-linecap:round;stroke-linejoin:round;stroke:rgb(0%,0%,0%);stroke-opacity:1;stroke-miterlimit:10;" d="M 274.097656 200.105469 C 274.613281 198.519531 275.128906 196.933594 275.644531 195.351562 " transform="matrix(1,0,0,1,3,3)"/>
<path style="fill:none;stroke-width:1;stroke-linecap:round;stroke-linejoin:round;stroke:rgb(0%,0%,0%);stroke-opacity:1;stroke-miterlimit:10;" d="M 264.328125 196.355469 C 265.003906 194.832031 265.683594 193.308594 266.359375 191.785156 " transform="matrix(1,0,0,1,3,3)"/>
<path style="fill:none;stroke-width:1;stroke-linecap:round;stroke-linejoin:round;stroke:rgb(0%,0%,0%);stroke-opacity:1;stroke-miterlimit:10;" d="M 255 191.601562 C 256.667969 188.714844 258.332031 185.828125 260 182.941406 " transform="matrix(1,0,0,1,3,3)"/>
<path style="fill:none;stroke-width:1;stroke-linecap:round;stroke-linejoin:round;stroke:rgb(0%,0%,0%);stroke-opacity:1;stroke-miterlimit:10;" d="M 246.222656 185.902344 C 247.199219 184.554688 248.179688 183.203125 249.160156 181.855469 " transform="matrix(1,0,0,1,3,3)"/>
<path style="fill:none;stroke-width:1;stroke-linecap:round;stroke-linejoin:round;stroke:rgb(0%,0%,0%);stroke-opacity:1;stroke-miterlimit:10;" d="M 238.085938 179.316406 C 239.203125 178.074219 240.316406 176.835938 241.433594 175.597656 " transform="matrix(1,0,0,1,3,3)"/>
<path style="fill:none;stroke-width:1;stroke-linecap:round;stroke-linejoin:round;stroke:rgb(0%,0%,0%);stroke-opacity:1;stroke-miterlimit:10;" d="M 230.683594 171.914062 C 231.925781 170.796875 233.164062 169.683594 234.402344 168.566406 " transform="matrix(1,0,0,1,3,3)"/>
<path style="fill:none;stroke-width:1;stroke-linecap:round;stroke-linejoin:round;stroke:rgb(0%,0%,0%);stroke-opacity:1;stroke-miterlimit:10;" d="M 224.097656 163.777344 C 225.445312 162.800781 226.796875 161.820312 228.144531 160.839844 " transform="matrix(1,0,0,1,3,3)"/>
<path style="fill:none;stroke-width:1;stroke-linecap:round;stroke-linejoin:round;stroke:rgb(0%,0%,0%);stroke-opacity:1;stroke-miterlimit:10;" d="M 218.398438 155 C 221.285156 153.332031 224.171875 151.667969 227.058594 150 " transform="matrix(1,0,0,1,3,3)"/>
<path style="fill:none;stroke-width:1;stroke-linecap:round;stroke-linejoin:round;stroke:rgb(0%,0%,0%);stroke-opacity:1;stroke-miterlimit:10;" d="M 213.644531 145.671875 C 215.167969 144.996094 216.691406 144.316406 218.214844 143.640625 " transform="matrix(1,0,0,1,3,3)"/>
<path style="fill:none;stroke-width:1;stroke-linecap:round;stroke-linejoin:round;stroke:rgb(0%,0%,0%);stroke-opacity:1;stroke-miterlimit:10;" d="M 209.894531 135.902344 C 211.480469 135.386719 213.066406 134.871094 214.648438 134.355469 " transform="matrix(1,0,0,1,3,3)"/>
<path style="fill:none;stroke-width:1;stroke-linecap:round;stroke-linejoin:round;stroke:rgb(0%,0%,0%);stroke-opacity:1;stroke-miterlimit:10;" d="M 207.183594 125.792969 C 208.816406 125.445312 210.445312 125.097656 212.074219 124.75 " transform="matrix(1,0,0,1,3,3)"/>
<path style="fill:none;stroke-width:1;stroke-linecap:round;stroke-linejoin:round;stroke:rgb(0%,0%,0%);stroke-opacity:1;stroke-miterlimit:10;" d="M 205.546875 115.453125 C 207.207031 115.277344 208.863281 115.105469 210.519531 114.929688 " transform="matrix(1,0,0,1,3,3)"/>
<path style="fill:none;stroke-width:1;stroke-linecap:round;stroke-linejoin:round;stroke:rgb(0%,0%,0%);stroke-opacity:1;stroke-miterlimit:10;" d="M 205 105 C 208.332031 105 211.667969 105 215 105 " transform="matrix(1,0,0,1,3,3)"/>
<path style="fill:none;stroke-width:1;stroke-linecap:round;stroke-linejoin:round;stroke:rgb(0%,0%,0%);stroke-opacity:1;stroke-miterlimit:10;" d="M 205.546875 94.546875 C 207.207031 94.722656 208.863281 94.894531 210.519531 95.070312 " transform="matrix(1,0,0,1,3,3)"/>
<path style="fill:none;stroke-width:1;stroke-linecap:round;stroke-linejoin:round;stroke:rgb(0%,0%,0%);stroke-opacity:1;stroke-miterlimit:10;" d="M 207.183594 84.207031 C 208.816406 84.554688 210.445312 84.902344 212.074219 85.25 " transform="matrix(1,0,0,1,3,3)"/>
<path style="fill:none;stroke-width:1;stroke-linecap:round;stroke-linejoin:round;stroke:rgb(0%,0%,0%);stroke-opacity:1;stroke-miterlimit:10;" d="M 209.894531 74.097656 C 211.480469 74.613281 213.066406 75.128906 214.648438 75.644531 " transform="matrix(1,0,0,1,3,3)"/>
<path style="fill:none;stroke-width:1;stroke-linecap:round;stroke-linejoin:round;stroke:rgb(0%,0%,0%);stroke-opacity:1;stroke-miterlimit:10;" d="M 213.644531 64.328125 C 215.167969 65.003906 216.691406 65.683594 218.214844 66.359375 " transform="matrix(1,0,0,1,3,3)"/>
<path style="fill:none;stroke-width:1;stroke-linecap:round;stroke-linejoin:round;stroke:rgb(0%,0%,0%);stroke-opacity:1;stroke-miterlimit:10;" d="M 218.398438 55 C 221.285156 56.667969 224.171875 58.332031 227.058594 60 " transform="matrix(1,0,0,1,3,3)"/>
<path style="fill:none;stroke-width:1;stroke-linecap:round;stroke-linejoin:round;stroke:rgb(0%,0%,0%);stroke-opacity:1;stroke-miterlimit:10;" d="M 224.097656 46.222656 C 225.445312 47.199219 226.796875 48.179688 228.144531 49.160156 " transform="matrix(1,0,0,1,3,3)"/>
<path style="fill:none;stroke-width:1;stroke-linecap:round;stroke-linejoin:round;stroke:rgb(0%,0%,0%);stroke-opacity:1;stroke-miterlimit:10;" d="M 230.683594 38.085938 C 231.925781 39.203125 233.164062 40.316406 234.402344 41.433594 " transform="matrix(1,0,0,1,3,3)"/>
<path style="fill:none;stroke-width:1;stroke-linecap:round;stroke-linejoin:round;stroke:rgb(0%,0%,0%);stroke-opacity:1;stroke-miterlimit:10;" d="M 238.085938 30.683594 C 239.203125 31.925781 240.316406 33.164062 241.433594 34.402344 " transform="matrix(1,0,0,1,3,3)"/>
<path style="fill:none;stroke-width:1;stroke-linecap:round;stroke-linejoin:round;stroke:rgb(0%,0%,0%);stroke-opacity:1;stroke-miterlimit:10;" d="M 246.222656 24.097656 C 247.199219 25.445312 248.179688 26.796875 249.160156 28.144531 " transform="matrix(1,0,0,1,3,3)"/>
<path style="fill:none;stroke-width:1;stroke-linecap:round;stroke-linejoin:round;stroke:rgb(0%,0%,0%);stroke-opacity:1;stroke-miterlimit:10;" d="M 255 18.398438 C 256.667969 21.285156 258.332031 24.171875 260 27.058594 " transform="matrix(1,0,0,1,3,3)"/>
<path style="fill:none;stroke-width:1;stroke-linecap:round;stroke-linejoin:round;stroke:rgb(0%,0%,0%);stroke-opacity:1;stroke-miterlimit:10;" d="M 264.328125 13.644531 C 265.003906 15.167969 265.683594 16.691406 266.359375 18.214844 " transform="matrix(1,0,0,1,3,3)"/>
<path style="fill:none;stroke-width:1;stroke-linecap:round;stroke-linejoin:round;stroke:rgb(0%,0%,0%);stroke-opacity:1;stroke-miterlimit:10;" d="M 274.097656 9.894531 C 274.613281 11.480469 275.128906 13.066406 275.644531 14.648438 " transform="matrix(1,0,0,1,3,3)"/>
<path style="fill:none;stroke-width:1;stroke-linecap:round;stroke-linejoin:round;stroke:rgb(0%,0%,0%);stroke-opacity:1;stroke-miterlimit:10;" d="M 284.207031 7.183594 C 284.554688 8.816406 284.902344 10.445312 285.25 12.074219 " transform="matrix(1,0,0,1,3,3)"/>
<path style="fill:none;stroke-width:1;stroke-linecap:round;stroke-linejoin:round;stroke:rgb(0%,0%,0%);stroke-opacity:1;stroke-miterlimit:10;" d="M 294.546875 5.546875 C 294.722656 7.207031 294.894531 8.863281 295.070312 10.519531 " transform="matrix(1,0,0,1,3,3)"/>
</g>
</svg>
