<?xml version="1.0" encoding="UTF-8"?>
<svg xmlns="http://www.w3.org/2000/svg" xmlns:xlink="http://www.w3.org/1999/xlink" width="406" height="206" viewBox="0 0 406 206" version="1.1">
<g id="surface765">
<path style=" stroke:none;fill-rule:nonzero;fill:rgb(80%,0%,0%);fill-opacity:1;" d="M 125.222656 103 C 125.222656 89.738281 119.953125 77.019531 110.578125 67.644531 C 101.199219 58.269531 88.484375 53 75.222656 53 C 61.960938 53 49.242188 58.269531 39.867188 67.644531 C 30.488281 77.019531 25.222656 89.738281 25.222656 103 C 25.222656 116.261719 30.488281 128.980469 39.867188 138.355469 C 49.242188 147.730469 61.960938 153 75.222656 153 C 88.484375 153 101.199219 147.730469 110.578125 138.355469 C 119.953125 128.980469 125.222656 116.261719 125.222656 103 Z M 180.777344 103 C 180.777344 116.261719 175.511719 128.980469 166.132812 138.355469 C 156.757812 147.730469 144.039062 153 130.777344 153 C 117.515625 153 104.800781 147.730469 95.421875 138.355469 C 86.046875 128.980469 80.777344 116.261719 80.777344 103 C 80.777344 89.738281 86.046875 77.019531 95.421875 67.644531 C 104.800781 58.269531 117.515625 53 130.777344 53 C 144.039062 53 156.757812 58.269531 166.132812 67.644531 C 175.511719 77.019531 180.777344 89.738281 180.777344 103 Z M 180.777344 103 "/>
<path style="fill:none;stroke-width:1;stroke-linecap:round;stroke-linejoin:round;stroke:rgb(0%,0%,0%);stroke-opacity:1;stroke-miterlimit:10;" d="M 122.222656 100 C 122.222656 86.738281 116.953125 74.019531 107.578125 64.644531 C 98.199219 55.269531 85.484375 50 72.222656 50 C 58.960938 50 46.242188 55.269531 36.867188 64.644531 C 27.488281 74.019531 22.222656 86.738281 22.222656 100 C 22.222656 113.261719 27.488281 125.980469 36.867188 135.355469 C 46.242188 144.730469 58.960938 150 72.222656 150 C 85.484375 150 98.199219 144.730469 107.578125 135.355469 C 116.953125 125.980469 122.222656 113.261719 122.222656 100 " transform="matrix(1,0,0,1,3,3)"/>
<path style="fill:none;stroke-width:1;stroke-linecap:round;stroke-linejoin:round;stroke:rgb(0%,0%,0%);stroke-opacity:1;stroke-miterlimit:10;" d="M 177.777344 100 C 177.777344 86.738281 172.511719 74.019531 163.132812 64.644531 C 153.757812 55.269531 141.039062 50 127.777344 50 C 114.515625 50 101.800781 55.269531 92.421875 64.644531 C 83.046875 74.019531 77.777344 86.738281 77.777344 100 C 77.777344 113.261719 83.046875 125.980469 92.421875 135.355469 C 101.800781 144.730469 114.515625 150 127.777344 150 C 141.039062 150 153.757812 144.730469 163.132812 135.355469 C 172.511719 125.980469 177.777344 113.261719 177.777344 100 " transform="matrix(1,0,0,1,3,3)"/>
<path style="fill:none;stroke-width:1;stroke-linecap:round;stroke-linejoin:round;stroke:rgb(0%,0%,0%);stroke-opacity:1;stroke-miterlimit:10;" d="M 0 200 C 33.332031 200 66.667969 200 100 200 C 100 133.332031 100 66.667969 100 0 C 66.667969 0 33.332031 0 0 0 C 0 66.667969 0 133.332031 0 200 " transform="matrix(1,0,0,1,3,3)"/>
<path style=" stroke:none;fill-rule:nonzero;fill:rgb(0%,0%,80%);fill-opacity:1;" d="M 325.222656 103 C 325.222656 116.261719 319.953125 128.980469 310.578125 138.355469 C 301.199219 147.730469 288.484375 153 275.222656 153 C 261.960938 153 249.242188 147.730469 239.867188 138.355469 C 230.488281 128.980469 225.222656 116.261719 225.222656 103 C 225.222656 89.738281 230.488281 77.019531 239.867188 67.644531 C 249.242188 58.269531 261.960938 53 275.222656 53 C 288.484375 53 301.199219 58.269531 310.578125 67.644531 C 319.953125 77.019531 325.222656 89.738281 325.222656 103 Z M 380.777344 103 C 380.777344 89.738281 375.511719 77.019531 366.132812 67.644531 C 356.757812 58.269531 344.039062 53 330.777344 53 C 317.515625 53 304.800781 58.269531 295.421875 67.644531 C 286.046875 77.019531 280.777344 89.738281 280.777344 103 C 280.777344 116.261719 286.046875 128.980469 295.421875 138.355469 C 304.800781 147.730469 317.515625 153 330.777344 153 C 344.039062 153 356.757812 147.730469 366.132812 138.355469 C 375.511719 128.980469 380.777344 116.261719 380.777344 103 Z M 380.777344 103 "/>
<path style="fill:none;stroke-width:1;stroke-linecap:round;stroke-linejoin:round;stroke:rgb(0%,0%,0%);stroke-opacity:1;stroke-miterlimit:10;" d="M 322.222656 100 C 322.222656 86.738281 316.953125 74.019531 307.578125 64.644531 C 298.199219 55.269531 285.484375 50 272.222656 50 C 258.960938 50 246.242188 55.269531 236.867188 64.644531 C 227.488281 74.019531 222.222656 86.738281 222.222656 100 C 222.222656 113.261719 227.488281 125.980469 236.867188 135.355469 C 246.242188 144.730469 258.960938 150 272.222656 150 C 285.484375 150 298.199219 144.730469 307.578125 135.355469 C 316.953125 125.980469 322.222656 113.261719 322.222656 100 " transform="matrix(1,0,0,1,3,3)"/>
<path style="fill:none;stroke-width:1;stroke-linecap:round;stroke-linejoin:round;stroke:rgb(0%,0%,0%);stroke-opacity:1;stroke-miterlimit:10;" d="M 377.777344 100 C 377.777344 86.738281 372.511719 74.019531 363.132812 64.644531 C 353.757812 55.269531 341.039062 50 327.777344 50 C 314.515625 50 301.800781 55.269531 292.421875 64.644531 C 283.046875 74.019531 277.777344 86.738281 277.777344 100 C 277.777344 113.261719 283.046875 125.980469 292.421875 135.355469 C 301.800781 144.730469 314.515625 150 327.777344 150 C 341.039062 150 353.757812 144.730469 363.132812 135.355469 C 372.511719 125.980469 377.777344 113.261719 377.777344 100 " transform="matrix(1,0,0,1,3,3)"/>
<path style="fill:none;stroke-width:1;stroke-linecap:round;stroke-linejoin:round;stroke:rgb(0%,0%,0%);stroke-opacity:1;stroke-miterlimit:10;" d="M 300 200 C 333.332031 200 366.667969 200 400 200 C 400 133.332031 400 66.667969 400 0 C 366.667969 0 333.332031 0 300 0 C 300 66.667969 300 133.332031 300 200 " transform="matrix(1,0,0,1,3,3)"/>
</g>
</svg>
