<?xml version="1.0" encoding="UTF-8"?>
<svg xmlns="http://www.w3.org/2000/svg" xmlns:xlink="http://www.w3.org/1999/xlink" width="506" height="106" viewBox="0 0 506 106" version="1.1">
<g id="surface454">
<path style="fill:none;stroke-width:1;stroke-linecap:round;stroke-linejoin:round;stroke:rgb(0%,0%,0%);stroke-opacity:1;stroke-miterlimit:10;" d="M 50 50 C 65.152344 50 80.304688 50 95.453125 50 " transform="matrix(1,0,0,1,3,3)"/>
<path style="fill:none;stroke-width:1;stroke-linecap:round;stroke-linejoin:round;stroke:rgb(0%,0%,0%);stroke-opacity:1;stroke-miterlimit:10;" d="M 24.742188 79.289062 C 25.085938 69.527344 25.085938 59.761719 24.742188 50 C 25.085938 40.238281 25.085938 30.472656 24.742188 20.710938 C 46.425781 34.523438 70.355469 44.4375 95.453125 50 C 70.355469 55.5625 46.425781 65.476562 24.742188 79.289062 " transform="matrix(1,0,0,1,3,3)"/>
<path style=" stroke:none;fill-rule:nonzero;fill:rgb(0%,0%,0%);fill-opacity:1;" d="M 27.742188 82.289062 C 28.085938 72.527344 28.085938 62.761719 27.742188 53 C 28.085938 43.238281 28.085938 33.472656 27.742188 23.710938 C 49.425781 37.523438 73.355469 47.4375 98.453125 53 C 73.355469 58.5625 49.425781 68.476562 27.742188 82.289062 Z M 27.742188 82.289062 "/>
<path style="fill:none;stroke-width:1;stroke-linecap:round;stroke-linejoin:round;stroke:rgb(0%,0%,0%);stroke-opacity:1;stroke-miterlimit:10;" d="M 150 50 C 165.152344 50 180.304688 50 195.453125 50 " transform="matrix(1,0,0,1,3,3)"/>
<path style="fill:none;stroke-width:1;stroke-linecap:round;stroke-linejoin:round;stroke:rgb(0%,0%,0%);stroke-opacity:1;stroke-miterlimit:10;" d="M 124.742188 79.289062 C 127.441406 69.613281 129.800781 59.84375 131.816406 50 C 129.800781 40.15625 127.441406 30.386719 124.742188 20.710938 C 146.425781 34.523438 170.355469 44.4375 195.453125 50 C 170.355469 55.5625 146.425781 65.476562 124.742188 79.289062 " transform="matrix(1,0,0,1,3,3)"/>
<path style=" stroke:none;fill-rule:nonzero;fill:rgb(0%,0%,0%);fill-opacity:1;" d="M 127.742188 82.289062 C 130.441406 72.613281 132.800781 62.84375 134.816406 53 C 132.800781 43.15625 130.441406 33.386719 127.742188 23.710938 C 149.425781 37.523438 173.355469 47.4375 198.453125 53 C 173.355469 58.5625 149.425781 68.476562 127.742188 82.289062 Z M 127.742188 82.289062 "/>
<path style="fill:none;stroke-width:1;stroke-linecap:round;stroke-linejoin:round;stroke:rgb(0%,0%,0%);stroke-opacity:1;stroke-miterlimit:10;" d="M 250 50 C 265.152344 50 280.304688 50 295.453125 50 " transform="matrix(1,0,0,1,3,3)"/>
<path style="fill:none;stroke-width:1;stroke-linecap:round;stroke-linejoin:round;stroke:rgb(0%,0%,0%);stroke-opacity:1;stroke-miterlimit:10;" d="M 224.742188 79.289062 C 229.796875 69.695312 234.515625 59.925781 238.886719 50 C 234.515625 40.074219 229.796875 30.304688 224.742188 20.710938 C 246.425781 34.523438 270.355469 44.4375 295.453125 50 C 270.355469 55.5625 246.425781 65.476562 224.742188 79.289062 " transform="matrix(1,0,0,1,3,3)"/>
<path style=" stroke:none;fill-rule:nonzero;fill:rgb(0%,0%,0%);fill-opacity:1;" d="M 227.742188 82.289062 C 232.796875 72.695312 237.515625 62.925781 241.886719 53 C 237.515625 43.074219 232.796875 33.304688 227.742188 23.710938 C 249.425781 37.523438 273.355469 47.4375 298.453125 53 C 273.355469 58.5625 249.425781 68.476562 227.742188 82.289062 Z M 227.742188 82.289062 "/>
<path style="fill:none;stroke-width:1;stroke-linecap:round;stroke-linejoin:round;stroke:rgb(0%,0%,0%);stroke-opacity:1;stroke-miterlimit:10;" d="M 350 50 C 365.152344 50 380.304688 50 395.453125 50 " transform="matrix(1,0,0,1,3,3)"/>
<path style="fill:none;stroke-width:1;stroke-linecap:round;stroke-linejoin:round;stroke:rgb(0%,0%,0%);stroke-opacity:1;stroke-miterlimit:10;" d="M 324.742188 79.289062 C 332.152344 69.777344 339.230469 60.007812 345.957031 50 C 339.230469 39.992188 332.152344 30.222656 324.742188 20.710938 C 346.425781 34.523438 370.355469 44.4375 395.453125 50 C 370.355469 55.5625 346.425781 65.476562 324.742188 79.289062 " transform="matrix(1,0,0,1,3,3)"/>
<path style=" stroke:none;fill-rule:nonzero;fill:rgb(0%,0%,0%);fill-opacity:1;" d="M 327.742188 82.289062 C 335.152344 72.777344 342.230469 63.007812 348.957031 53 C 342.230469 42.992188 335.152344 33.222656 327.742188 23.710938 C 349.425781 37.523438 373.355469 47.4375 398.453125 53 C 373.355469 58.5625 349.425781 68.476562 327.742188 82.289062 Z M 327.742188 82.289062 "/>
<path style="fill:none;stroke-width:1;stroke-linecap:round;stroke-linejoin:round;stroke:rgb(0%,0%,0%);stroke-opacity:1;stroke-miterlimit:10;" d="M 450 50 C 465.152344 50 480.304688 50 495.453125 50 " transform="matrix(1,0,0,1,3,3)"/>
<path style="fill:none;stroke-width:1;stroke-linecap:round;stroke-linejoin:round;stroke:rgb(0%,0%,0%);stroke-opacity:1;stroke-miterlimit:10;" d="M 424.742188 79.289062 C 434.511719 69.859375 443.945312 60.089844 453.027344 50 C 443.945312 39.910156 434.511719 30.140625 424.742188 20.710938 C 446.425781 34.523438 470.355469 44.4375 495.453125 50 C 470.355469 55.5625 446.425781 65.476562 424.742188 79.289062 " transform="matrix(1,0,0,1,3,3)"/>
<path style=" stroke:none;fill-rule:nonzero;fill:rgb(0%,0%,0%);fill-opacity:1;" d="M 427.742188 82.289062 C 437.511719 72.859375 446.945312 63.089844 456.027344 53 C 446.945312 42.910156 437.511719 33.140625 427.742188 23.710938 C 449.425781 37.523438 473.355469 47.4375 498.453125 53 C 473.355469 58.5625 449.425781 68.476562 427.742188 82.289062 Z M 427.742188 82.289062 "/>
</g>
</svg>
