<?xml version="1.0" encoding="UTF-8"?>
<svg xmlns="http://www.w3.org/2000/svg" xmlns:xlink="http://www.w3.org/1999/xlink" width="506" height="106" viewBox="0 0 506 106" version="1.1">
<g id="surface391">
<path style="fill:none;stroke-width:1;stroke-linecap:round;stroke-linejoin:round;stroke:rgb(0%,0%,0%);stroke-opacity:1;stroke-miterlimit:10;" d="M 50 50 C 65.152344 50 80.304688 50 95.453125 50 " transform="matrix(1,0,0,1,3,3)"/>
<path style="fill:none;stroke-width:1;stroke-linecap:round;stroke-linejoin:round;stroke:rgb(0%,0%,0%);stroke-opacity:1;stroke-miterlimit:10;" d="M 24.742188 79.289062 C 27.441406 69.613281 29.800781 59.84375 31.816406 50 C 29.800781 40.15625 27.441406 30.386719 24.742188 20.710938 C 46.425781 34.523438 70.355469 44.4375 95.453125 50 C 70.355469 55.5625 46.425781 65.476562 24.742188 79.289062 " transform="matrix(1,0,0,1,3,3)"/>
<path style=" stroke:none;fill-rule:nonzero;fill:rgb(0%,0%,0%);fill-opacity:1;" d="M 27.742188 82.289062 C 30.441406 72.613281 32.800781 62.84375 34.816406 53 C 32.800781 43.15625 30.441406 33.386719 27.742188 23.710938 C 49.425781 37.523438 73.355469 47.4375 98.453125 53 C 73.355469 58.5625 49.425781 68.476562 27.742188 82.289062 Z M 27.742188 82.289062 "/>
<path style="fill:none;stroke-width:1;stroke-linecap:round;stroke-linejoin:round;stroke:rgb(0%,0%,0%);stroke-opacity:1;stroke-miterlimit:10;" d="M 150 50 C 165.152344 50 180.304688 50 195.453125 50 " transform="matrix(1,0,0,1,3,3)"/>
<path style="fill:none;stroke-width:1;stroke-linecap:round;stroke-linejoin:round;stroke:rgb(0%,0%,0%);stroke-opacity:1;stroke-miterlimit:10;" d="M 124.742188 79.289062 C 127.78125 69.703125 130.144531 59.914062 131.816406 50 C 130.144531 40.085938 127.78125 30.296875 124.742188 20.710938 C 146.425781 34.523438 170.355469 44.4375 195.453125 50 C 170.355469 55.5625 146.425781 65.476562 124.742188 79.289062 " transform="matrix(1,0,0,1,3,3)"/>
<path style=" stroke:none;fill-rule:nonzero;fill:rgb(0%,0%,0%);fill-opacity:1;" d="M 127.742188 82.289062 C 130.78125 72.703125 133.144531 62.914062 134.816406 53 C 133.144531 43.085938 130.78125 33.296875 127.742188 23.710938 C 149.425781 37.523438 173.355469 47.4375 198.453125 53 C 173.355469 58.5625 149.425781 68.476562 127.742188 82.289062 Z M 127.742188 82.289062 "/>
<path style="fill:none;stroke-width:1;stroke-linecap:round;stroke-linejoin:round;stroke:rgb(0%,0%,0%);stroke-opacity:1;stroke-miterlimit:10;" d="M 250 50 C 265.152344 50 280.304688 50 295.453125 50 " transform="matrix(1,0,0,1,3,3)"/>
<path style="fill:none;stroke-width:1;stroke-linecap:round;stroke-linejoin:round;stroke:rgb(0%,0%,0%);stroke-opacity:1;stroke-miterlimit:10;" d="M 224.742188 79.289062 C 228.453125 69.902344 230.835938 60.046875 231.816406 50 C 230.835938 39.953125 228.453125 30.097656 224.742188 20.710938 C 246.425781 34.523438 270.355469 44.4375 295.453125 50 C 270.355469 55.5625 246.425781 65.476562 224.742188 79.289062 " transform="matrix(1,0,0,1,3,3)"/>
<path style=" stroke:none;fill-rule:nonzero;fill:rgb(0%,0%,0%);fill-opacity:1;" d="M 227.742188 82.289062 C 231.453125 72.902344 233.835938 63.046875 234.816406 53 C 233.835938 42.953125 231.453125 33.097656 227.742188 23.710938 C 249.425781 37.523438 273.355469 47.4375 298.453125 53 C 273.355469 58.5625 249.425781 68.476562 227.742188 82.289062 Z M 227.742188 82.289062 "/>
<path style="fill:none;stroke-width:1;stroke-linecap:round;stroke-linejoin:round;stroke:rgb(0%,0%,0%);stroke-opacity:1;stroke-miterlimit:10;" d="M 350 50 C 365.152344 50 380.304688 50 395.453125 50 " transform="matrix(1,0,0,1,3,3)"/>
<path style="fill:none;stroke-width:1;stroke-linecap:round;stroke-linejoin:round;stroke:rgb(0%,0%,0%);stroke-opacity:1;stroke-miterlimit:10;" d="M 324.742188 79.289062 C 329.796875 70.382812 332.25 60.234375 331.816406 50 C 332.25 39.765625 329.796875 29.617188 324.742188 20.710938 C 346.425781 34.523438 370.355469 44.4375 395.453125 50 C 370.355469 55.5625 346.425781 65.476562 324.742188 79.289062 " transform="matrix(1,0,0,1,3,3)"/>
<path style=" stroke:none;fill-rule:nonzero;fill:rgb(0%,0%,0%);fill-opacity:1;" d="M 327.742188 82.289062 C 332.796875 73.382812 335.25 63.234375 334.816406 53 C 335.25 42.765625 332.796875 32.617188 327.742188 23.710938 C 349.425781 37.523438 373.355469 47.4375 398.453125 53 C 373.355469 58.5625 349.425781 68.476562 327.742188 82.289062 Z M 327.742188 82.289062 "/>
<path style="fill:none;stroke-width:1;stroke-linecap:round;stroke-linejoin:round;stroke:rgb(0%,0%,0%);stroke-opacity:1;stroke-miterlimit:10;" d="M 450 50 C 465.152344 50 480.304688 50 495.453125 50 " transform="matrix(1,0,0,1,3,3)"/>
<path style="fill:none;stroke-width:1;stroke-linecap:round;stroke-linejoin:round;stroke:rgb(0%,0%,0%);stroke-opacity:1;stroke-miterlimit:10;" d="M 424.742188 79.289062 C 432.507812 71.679688 435.25 60.3125 431.816406 50 C 435.25 39.6875 432.507812 28.320312 424.742188 20.710938 C 446.425781 34.523438 470.355469 44.4375 495.453125 50 C 470.355469 55.5625 446.425781 65.476562 424.742188 79.289062 " transform="matrix(1,0,0,1,3,3)"/>
<path style=" stroke:none;fill-rule:nonzero;fill:rgb(0%,0%,0%);fill-opacity:1;" d="M 427.742188 82.289062 C 435.507812 74.679688 438.25 63.3125 434.816406 53 C 438.25 42.6875 435.507812 31.320312 427.742188 23.710938 C 449.425781 37.523438 473.355469 47.4375 498.453125 53 C 473.355469 58.5625 449.425781 68.476562 427.742188 82.289062 Z M 427.742188 82.289062 "/>
</g>
</svg>
