<?xml version="1.0" encoding="UTF-8"?>
<svg xmlns="http://www.w3.org/2000/svg" xmlns:xlink="http://www.w3.org/1999/xlink" width="506" height="106" viewBox="0 0 506 106" version="1.1">
<g id="surface265">
<path style="fill:none;stroke-width:1;stroke-linecap:round;stroke-linejoin:round;stroke:rgb(0%,0%,0%);stroke-opacity:1;stroke-miterlimit:10;" d="M 50 50 C 65.152344 50 80.304688 50 95.453125 50 " transform="matrix(1,0,0,1,3,3)"/>
<path style="fill:none;stroke-width:1;stroke-linecap:round;stroke-linejoin:round;stroke:rgb(0%,0%,0%);stroke-opacity:1;stroke-miterlimit:10;" d="M 24.742188 62.46875 C 27.246094 58.394531 29.605469 54.238281 31.816406 50 C 29.605469 45.761719 27.246094 41.605469 24.742188 37.53125 C 47.40625 45.78125 71.335938 50 95.453125 50 C 71.335938 50 47.40625 54.21875 24.742188 62.46875 " transform="matrix(1,0,0,1,3,3)"/>
<path style=" stroke:none;fill-rule:nonzero;fill:rgb(0%,0%,0%);fill-opacity:1;" d="M 27.742188 65.46875 C 30.246094 61.394531 32.605469 57.238281 34.816406 53 C 32.605469 48.761719 30.246094 44.605469 27.742188 40.53125 C 50.40625 48.78125 74.335938 53 98.453125 53 C 74.335938 53 50.40625 57.21875 27.742188 65.46875 Z M 27.742188 65.46875 "/>
<path style="fill:none;stroke-width:1;stroke-linecap:round;stroke-linejoin:round;stroke:rgb(0%,0%,0%);stroke-opacity:1;stroke-miterlimit:10;" d="M 150 50 C 165.152344 50 180.304688 50 195.453125 50 " transform="matrix(1,0,0,1,3,3)"/>
<path style="fill:none;stroke-width:1;stroke-linecap:round;stroke-linejoin:round;stroke:rgb(0%,0%,0%);stroke-opacity:1;stroke-miterlimit:10;" d="M 124.742188 68.945312 C 127.320312 62.714844 129.679688 56.394531 131.816406 50 C 129.679688 43.605469 127.320312 37.285156 124.742188 31.054688 C 147.027344 41.445312 170.960938 47.855469 195.453125 50 C 170.960938 52.144531 147.027344 58.554688 124.742188 68.945312 " transform="matrix(1,0,0,1,3,3)"/>
<path style=" stroke:none;fill-rule:nonzero;fill:rgb(0%,0%,0%);fill-opacity:1;" d="M 127.742188 71.945312 C 130.320312 65.714844 132.679688 59.394531 134.816406 53 C 132.679688 46.605469 130.320312 40.285156 127.742188 34.054688 C 150.027344 44.445312 173.960938 50.855469 198.453125 53 C 173.960938 55.144531 150.027344 61.554688 127.742188 71.945312 Z M 127.742188 71.945312 "/>
<path style="fill:none;stroke-width:1;stroke-linecap:round;stroke-linejoin:round;stroke:rgb(0%,0%,0%);stroke-opacity:1;stroke-miterlimit:10;" d="M 250 50 C 265.152344 50 280.304688 50 295.453125 50 " transform="matrix(1,0,0,1,3,3)"/>
<path style="fill:none;stroke-width:1;stroke-linecap:round;stroke-linejoin:round;stroke:rgb(0%,0%,0%);stroke-opacity:1;stroke-miterlimit:10;" d="M 224.742188 75.738281 C 227.398438 67.242188 229.757812 58.660156 231.816406 50 C 229.757812 41.339844 227.398438 32.757812 224.742188 24.261719 C 246.632812 36.902344 270.5625 45.609375 295.453125 50 C 270.5625 54.390625 246.632812 63.097656 224.742188 75.738281 " transform="matrix(1,0,0,1,3,3)"/>
<path style=" stroke:none;fill-rule:nonzero;fill:rgb(0%,0%,0%);fill-opacity:1;" d="M 227.742188 78.738281 C 230.398438 70.242188 232.757812 61.660156 234.816406 53 C 232.757812 44.339844 230.398438 35.757812 227.742188 27.261719 C 249.632812 39.902344 273.5625 48.609375 298.453125 53 C 273.5625 57.390625 249.632812 66.097656 227.742188 78.738281 Z M 227.742188 78.738281 "/>
<path style="fill:none;stroke-width:1;stroke-linecap:round;stroke-linejoin:round;stroke:rgb(0%,0%,0%);stroke-opacity:1;stroke-miterlimit:10;" d="M 350 50 C 365.152344 50 380.304688 50 395.453125 50 " transform="matrix(1,0,0,1,3,3)"/>
<path style="fill:none;stroke-width:1;stroke-linecap:round;stroke-linejoin:round;stroke:rgb(0%,0%,0%);stroke-opacity:1;stroke-miterlimit:10;" d="M 324.742188 82.972656 C 327.484375 72.066406 329.84375 61.070312 331.816406 50 C 329.84375 38.929688 327.484375 27.933594 324.742188 17.027344 C 346.210938 32.058594 370.140625 43.21875 395.453125 50 C 370.140625 56.78125 346.210938 67.941406 324.742188 82.972656 " transform="matrix(1,0,0,1,3,3)"/>
<path style=" stroke:none;fill-rule:nonzero;fill:rgb(0%,0%,0%);fill-opacity:1;" d="M 327.742188 85.972656 C 330.484375 75.066406 332.84375 64.070312 334.816406 53 C 332.84375 41.929688 330.484375 30.933594 327.742188 20.027344 C 349.210938 35.058594 373.140625 46.21875 398.453125 53 C 373.140625 59.78125 349.210938 70.941406 327.742188 85.972656 Z M 327.742188 85.972656 "/>
<path style="fill:none;stroke-width:1;stroke-linecap:round;stroke-linejoin:round;stroke:rgb(0%,0%,0%);stroke-opacity:1;stroke-miterlimit:10;" d="M 450 50 C 465.152344 50 480.304688 50 495.453125 50 " transform="matrix(1,0,0,1,3,3)"/>
<path style="fill:none;stroke-width:1;stroke-linecap:round;stroke-linejoin:round;stroke:rgb(0%,0%,0%);stroke-opacity:1;stroke-miterlimit:10;" d="M 424.742188 90.824219 C 427.574219 77.304688 429.933594 63.6875 431.816406 50 C 429.933594 36.3125 427.574219 22.695312 424.742188 9.175781 C 445.753906 26.804688 469.683594 40.621094 495.453125 50 C 469.683594 59.378906 445.753906 73.195312 424.742188 90.824219 " transform="matrix(1,0,0,1,3,3)"/>
<path style=" stroke:none;fill-rule:nonzero;fill:rgb(0%,0%,0%);fill-opacity:1;" d="M 427.742188 93.824219 C 430.574219 80.304688 432.933594 66.6875 434.816406 53 C 432.933594 39.3125 430.574219 25.695312 427.742188 12.175781 C 448.753906 29.804688 472.683594 43.621094 498.453125 53 C 472.683594 62.378906 448.753906 76.195312 427.742188 93.824219 Z M 427.742188 93.824219 "/>
</g>
</svg>
