<?xml version="1.0" encoding="UTF-8"?>
<svg xmlns="http://www.w3.org/2000/svg" xmlns:xlink="http://www.w3.org/1999/xlink" width="206" height="206" viewBox="0 0 206 206" version="1.1">
<g id="surface52">
<path style="fill:none;stroke-width:1;stroke-linecap:round;stroke-linejoin:round;stroke:rgb(0%,0%,0%);stroke-opacity:1;stroke-miterlimit:10;" d="M 100 100 C 130.304688 69.695312 160.605469 39.394531 190.910156 9.089844 " transform="matrix(1,0,0,1,3,3)"/>
<path style="fill:none;stroke-width:1;stroke-linecap:round;stroke-linejoin:round;stroke:rgb(0%,0%,0%);stroke-opacity:1;stroke-miterlimit:10;" d="M 186.222656 20.40625 C 185.433594 19.003906 184.59375 17.632812 183.710938 16.289062 C 182.367188 15.40625 180.996094 14.566406 179.59375 13.777344 C 183.609375 12.886719 187.441406 11.300781 190.910156 9.089844 C 188.699219 12.558594 187.113281 16.390625 186.222656 20.40625 " transform="matrix(1,0,0,1,3,3)"/>
<path style=" stroke:none;fill-rule:nonzero;fill:rgb(0%,0%,0%);fill-opacity:1;" d="M 189.222656 23.40625 C 188.433594 22.003906 187.59375 20.632812 186.710938 19.289062 C 185.367188 18.40625 183.996094 17.566406 182.59375 16.777344 C 186.609375 15.886719 190.441406 14.300781 193.910156 12.089844 C 191.699219 15.558594 190.113281 19.390625 189.222656 23.40625 Z M 189.222656 23.40625 "/>
<path style="fill:none;stroke-width:1;stroke-linecap:round;stroke-linejoin:round;stroke:rgb(0%,0%,0%);stroke-opacity:1;stroke-miterlimit:10;" d="M 9.089844 9.089844 C 24.242188 24.242188 39.394531 39.394531 54.546875 54.546875 " transform="matrix(1,0,0,1,3,3)"/>
<path style="fill:none;stroke-width:1;stroke-linecap:round;stroke-linejoin:round;stroke:rgb(0%,0%,0%);stroke-opacity:1;stroke-miterlimit:10;" d="M 43.230469 49.859375 C 44.632812 49.070312 46.003906 48.230469 47.34375 47.34375 C 48.230469 46.003906 49.070312 44.632812 49.859375 43.230469 C 50.75 47.246094 52.335938 51.078125 54.546875 54.546875 C 51.078125 52.335938 47.246094 50.75 43.230469 49.859375 " transform="matrix(1,0,0,1,3,3)"/>
<path style=" stroke:none;fill-rule:nonzero;fill:rgb(0%,0%,0%);fill-opacity:1;" d="M 46.230469 52.859375 C 47.632812 52.070312 49.003906 51.230469 50.34375 50.34375 C 51.230469 49.003906 52.070312 47.632812 52.859375 46.230469 C 53.75 50.246094 55.335938 54.078125 57.546875 57.546875 C 54.078125 55.335938 50.246094 53.75 46.230469 52.859375 Z M 46.230469 52.859375 "/>
<path style="fill:none;stroke-width:1;stroke-linecap:round;stroke-linejoin:round;stroke:rgb(0%,0%,0%);stroke-opacity:1;stroke-miterlimit:10;" d="M 9.089844 100 C 9.089844 124.109375 18.667969 147.234375 35.71875 164.28125 C 52.765625 181.332031 75.890625 190.910156 100 190.910156 C 124.109375 190.910156 147.234375 181.332031 164.28125 164.28125 C 181.332031 147.234375 190.910156 124.109375 190.910156 100 " transform="matrix(1,0,0,1,3,3)"/>
<path style="fill:none;stroke-width:1;stroke-linecap:round;stroke-linejoin:round;stroke:rgb(0%,0%,0%);stroke-opacity:1;stroke-miterlimit:10;" d="M 195.59375 111.3125 C 194.046875 110.882812 192.484375 110.503906 190.910156 110.183594 C 189.335938 110.503906 187.769531 110.882812 186.222656 111.3125 C 188.433594 107.84375 190.019531 104.015625 190.910156 100 C 191.800781 104.015625 193.386719 107.84375 195.59375 111.3125 " transform="matrix(1,0,0,1,3,3)"/>
<path style=" stroke:none;fill-rule:nonzero;fill:rgb(0%,0%,0%);fill-opacity:1;" d="M 198.59375 114.3125 C 197.046875 113.882812 195.484375 113.503906 193.910156 113.183594 C 192.335938 113.503906 190.769531 113.882812 189.222656 114.3125 C 191.433594 110.84375 193.019531 107.015625 193.910156 103 C 194.800781 107.015625 196.386719 110.84375 198.59375 114.3125 Z M 198.59375 114.3125 "/>
<path style="fill:none;stroke-width:1;stroke-linecap:round;stroke-linejoin:round;stroke:rgb(0%,0%,0%);stroke-opacity:1;stroke-miterlimit:10;" d="M 190.910156 100 C 190.910156 124.109375 181.332031 147.234375 164.28125 164.28125 C 147.234375 181.332031 124.109375 190.910156 100 190.910156 C 75.890625 190.910156 52.765625 181.332031 35.71875 164.28125 C 18.667969 147.234375 9.089844 124.109375 9.089844 100 " transform="matrix(1,0,0,1,3,3)"/>
<path style="fill:none;stroke-width:1;stroke-linecap:round;stroke-linejoin:round;stroke:rgb(0%,0%,0%);stroke-opacity:1;stroke-miterlimit:10;" d="M 13.777344 111.3125 C 12.230469 110.882812 10.664062 110.503906 9.089844 110.183594 C 7.515625 110.503906 5.953125 110.882812 4.40625 111.3125 C 6.613281 107.84375 8.199219 104.015625 9.089844 100 C 9.980469 104.015625 11.566406 107.84375 13.777344 111.3125 " transform="matrix(1,0,0,1,3,3)"/>
<path style=" stroke:none;fill-rule:nonzero;fill:rgb(0%,0%,0%);fill-opacity:1;" d="M 16.777344 114.3125 C 15.230469 113.882812 13.664062 113.503906 12.089844 113.183594 C 10.515625 113.503906 8.953125 113.882812 7.40625 114.3125 C 9.613281 110.84375 11.199219 107.015625 12.089844 103 C 12.980469 107.015625 14.566406 110.84375 16.777344 114.3125 Z M 16.777344 114.3125 "/>
</g>
</svg>
