<?xml version="1.0" encoding="UTF-8"?>
<svg xmlns="http://www.w3.org/2000/svg" xmlns:xlink="http://www.w3.org/1999/xlink" width="506" height="106" viewBox="0 0 506 106" version="1.1">
<g id="surface328">
<path style="fill:none;stroke-width:1;stroke-linecap:round;stroke-linejoin:round;stroke:rgb(0%,0%,0%);stroke-opacity:1;stroke-miterlimit:10;" d="M 50 50 C 65.152344 50 80.304688 50 95.453125 50 " transform="matrix(1,0,0,1,3,3)"/>
<path style="fill:none;stroke-width:1;stroke-linecap:round;stroke-linejoin:round;stroke:rgb(0%,0%,0%);stroke-opacity:1;stroke-miterlimit:10;" d="M 24.742188 79.289062 C 27.441406 69.613281 29.800781 59.84375 31.816406 50 C 29.800781 40.15625 27.441406 30.386719 24.742188 20.710938 C 47.417969 32.511719 71.078125 42.3125 95.453125 50 C 71.078125 57.6875 47.417969 67.488281 24.742188 79.289062 " transform="matrix(1,0,0,1,3,3)"/>
<path style=" stroke:none;fill-rule:nonzero;fill:rgb(0%,0%,0%);fill-opacity:1;" d="M 27.742188 82.289062 C 30.441406 72.613281 32.800781 62.84375 34.816406 53 C 32.800781 43.15625 30.441406 33.386719 27.742188 23.710938 C 50.417969 35.511719 74.078125 45.3125 98.453125 53 C 74.078125 60.6875 50.417969 70.488281 27.742188 82.289062 Z M 27.742188 82.289062 "/>
<path style="fill:none;stroke-width:1;stroke-linecap:round;stroke-linejoin:round;stroke:rgb(0%,0%,0%);stroke-opacity:1;stroke-miterlimit:10;" d="M 150 50 C 165.152344 50 180.304688 50 195.453125 50 " transform="matrix(1,0,0,1,3,3)"/>
<path style="fill:none;stroke-width:1;stroke-linecap:round;stroke-linejoin:round;stroke:rgb(0%,0%,0%);stroke-opacity:1;stroke-miterlimit:10;" d="M 124.742188 79.289062 C 127.441406 69.613281 129.800781 59.84375 131.816406 50 C 129.800781 40.15625 127.441406 30.386719 124.742188 20.710938 C 146.425781 34.523438 170.355469 44.4375 195.453125 50 C 170.355469 55.5625 146.425781 65.476562 124.742188 79.289062 " transform="matrix(1,0,0,1,3,3)"/>
<path style=" stroke:none;fill-rule:nonzero;fill:rgb(0%,0%,0%);fill-opacity:1;" d="M 127.742188 82.289062 C 130.441406 72.613281 132.800781 62.84375 134.816406 53 C 132.800781 43.15625 130.441406 33.386719 127.742188 23.710938 C 149.425781 37.523438 173.355469 47.4375 198.453125 53 C 173.355469 58.5625 149.425781 68.476562 127.742188 82.289062 Z M 127.742188 82.289062 "/>
<path style="fill:none;stroke-width:1;stroke-linecap:round;stroke-linejoin:round;stroke:rgb(0%,0%,0%);stroke-opacity:1;stroke-miterlimit:10;" d="M 250 50 C 265.152344 50 280.304688 50 295.453125 50 " transform="matrix(1,0,0,1,3,3)"/>
<path style="fill:none;stroke-width:1;stroke-linecap:round;stroke-linejoin:round;stroke:rgb(0%,0%,0%);stroke-opacity:1;stroke-miterlimit:10;" d="M 224.742188 79.289062 C 227.441406 69.613281 229.800781 59.84375 231.816406 50 C 229.800781 40.15625 227.441406 30.386719 224.742188 20.710938 C 245.335938 36.511719 269.722656 46.613281 295.453125 50 C 269.722656 53.386719 245.335938 63.488281 224.742188 79.289062 " transform="matrix(1,0,0,1,3,3)"/>
<path style=" stroke:none;fill-rule:nonzero;fill:rgb(0%,0%,0%);fill-opacity:1;" d="M 227.742188 82.289062 C 230.441406 72.613281 232.800781 62.84375 234.816406 53 C 232.800781 43.15625 230.441406 33.386719 227.742188 23.710938 C 248.335938 39.511719 272.722656 49.613281 298.453125 53 C 272.722656 56.386719 248.335938 66.488281 227.742188 82.289062 Z M 227.742188 82.289062 "/>
<path style="fill:none;stroke-width:1;stroke-linecap:round;stroke-linejoin:round;stroke:rgb(0%,0%,0%);stroke-opacity:1;stroke-miterlimit:10;" d="M 350 50 C 365.152344 50 380.304688 50 395.453125 50 " transform="matrix(1,0,0,1,3,3)"/>
<path style="fill:none;stroke-width:1;stroke-linecap:round;stroke-linejoin:round;stroke:rgb(0%,0%,0%);stroke-opacity:1;stroke-miterlimit:10;" d="M 324.742188 79.289062 C 327.441406 69.613281 329.800781 59.84375 331.816406 50 C 329.800781 40.15625 327.441406 30.386719 324.742188 20.710938 C 344.136719 38.480469 369.175781 48.851562 395.453125 50 C 369.175781 51.148438 344.136719 61.519531 324.742188 79.289062 " transform="matrix(1,0,0,1,3,3)"/>
<path style=" stroke:none;fill-rule:nonzero;fill:rgb(0%,0%,0%);fill-opacity:1;" d="M 327.742188 82.289062 C 330.441406 72.613281 332.800781 62.84375 334.816406 53 C 332.800781 43.15625 330.441406 33.386719 327.742188 23.710938 C 347.136719 41.480469 372.175781 51.851562 398.453125 53 C 372.175781 54.148438 347.136719 64.519531 327.742188 82.289062 Z M 327.742188 82.289062 "/>
<path style="fill:none;stroke-width:1;stroke-linecap:round;stroke-linejoin:round;stroke:rgb(0%,0%,0%);stroke-opacity:1;stroke-miterlimit:10;" d="M 450 50 C 465.152344 50 480.304688 50 495.453125 50 " transform="matrix(1,0,0,1,3,3)"/>
<path style="fill:none;stroke-width:1;stroke-linecap:round;stroke-linejoin:round;stroke:rgb(0%,0%,0%);stroke-opacity:1;stroke-miterlimit:10;" d="M 424.742188 79.289062 C 427.441406 69.613281 429.800781 59.84375 431.816406 50 C 429.800781 40.15625 427.441406 30.386719 424.742188 20.710938 C 442.828125 40.445312 468.714844 51.167969 495.453125 50 C 468.714844 48.832031 442.828125 59.554688 424.742188 79.289062 " transform="matrix(1,0,0,1,3,3)"/>
<path style=" stroke:none;fill-rule:nonzero;fill:rgb(0%,0%,0%);fill-opacity:1;" d="M 427.742188 82.289062 C 430.441406 72.613281 432.800781 62.84375 434.816406 53 C 432.800781 43.15625 430.441406 33.386719 427.742188 23.710938 C 445.828125 43.445312 471.714844 54.167969 498.453125 53 C 471.714844 51.832031 445.828125 62.554688 427.742188 82.289062 Z M 427.742188 82.289062 "/>
</g>
</svg>
