<?xml version="1.0" encoding="UTF-8"?>
<svg xmlns="http://www.w3.org/2000/svg" xmlns:xlink="http://www.w3.org/1999/xlink" width="206" height="206" viewBox="0 0 206 206" version="1.1">
<g id="surface99">
<path style="fill:none;stroke-width:1;stroke-linecap:round;stroke-linejoin:round;stroke:rgb(0%,0%,0%);stroke-opacity:1;stroke-miterlimit:10;" d="M 100 100 C 130.304688 69.695312 160.605469 39.394531 190.910156 9.089844 " transform="matrix(1,0,0,1,3,3)"/>
<path style="fill:none;stroke-width:1;stroke-linecap:round;stroke-linejoin:round;stroke:rgb(0%,0%,0%);stroke-opacity:1;stroke-miterlimit:10;" d="M 186.222656 20.40625 C 185.433594 19.003906 184.59375 17.632812 183.710938 16.289062 C 182.367188 15.40625 180.996094 14.566406 179.59375 13.777344 C 183.609375 12.886719 187.441406 11.300781 190.910156 9.089844 C 188.699219 12.558594 187.113281 16.390625 186.222656 20.40625 " transform="matrix(1,0,0,1,3,3)"/>
<path style=" stroke:none;fill-rule:nonzero;fill:rgb(0%,0%,0%);fill-opacity:1;" d="M 189.222656 23.40625 C 188.433594 22.003906 187.59375 20.632812 186.710938 19.289062 C 185.367188 18.40625 183.996094 17.566406 182.59375 16.777344 C 186.609375 15.886719 190.441406 14.300781 193.910156 12.089844 C 191.699219 15.558594 190.113281 19.390625 189.222656 23.40625 Z M 189.222656 23.40625 "/>
<path style="fill:none;stroke-width:1;stroke-linecap:round;stroke-linejoin:round;stroke:rgb(0%,0%,0%);stroke-opacity:1;stroke-miterlimit:10;" d="M 103.3125 103.3125 C 101.105469 101.105469 98.894531 98.894531 96.6875 96.6875 " transform="matrix(1,0,0,1,3,3)"/>
<path style=" stroke:none;fill-rule:nonzero;fill:rgb(0%,0%,0%);fill-opacity:1;" d="M 106.3125 106.3125 C 104.105469 104.105469 101.894531 101.894531 99.6875 99.6875 Z M 106.3125 106.3125 "/>
<path style="fill:none;stroke-width:1;stroke-linecap:round;stroke-linejoin:round;stroke:rgb(0%,0%,0%);stroke-opacity:1;stroke-miterlimit:10;" d="M 9.089844 9.089844 C 24.242188 24.242188 39.394531 39.394531 54.546875 54.546875 " transform="matrix(1,0,0,1,3,3)"/>
<path style="fill:none;stroke-width:1;stroke-linecap:round;stroke-linejoin:round;stroke:rgb(0%,0%,0%);stroke-opacity:1;stroke-miterlimit:10;" d="M 47.34375 47.34375 C 48.496094 46.191406 49.359375 44.78125 49.859375 43.230469 C 50.75 47.246094 52.335938 51.078125 54.546875 54.546875 C 52.144531 52.144531 49.746094 49.746094 47.34375 47.34375 " transform="matrix(1,0,0,1,3,3)"/>
<path style=" stroke:none;fill-rule:nonzero;fill:rgb(0%,0%,0%);fill-opacity:1;" d="M 50.34375 50.34375 C 51.496094 49.191406 52.359375 47.78125 52.859375 46.230469 C 53.75 50.246094 55.335938 54.078125 57.546875 57.546875 C 55.144531 55.144531 52.746094 52.746094 50.34375 50.34375 Z M 50.34375 50.34375 "/>
<path style="fill:none;stroke-width:1;stroke-linecap:round;stroke-linejoin:round;stroke:rgb(0%,0%,0%);stroke-opacity:1;stroke-miterlimit:10;" d="M 16.289062 16.289062 C 17.441406 15.136719 18.851562 14.277344 20.40625 13.777344 C 16.390625 12.886719 12.558594 11.300781 9.089844 9.089844 C 11.492188 11.492188 13.890625 13.890625 16.289062 16.289062 " transform="matrix(1,0,0,1,3,3)"/>
<path style=" stroke:none;fill-rule:nonzero;fill:rgb(0%,0%,0%);fill-opacity:1;" d="M 19.289062 19.289062 C 20.441406 18.136719 21.851562 17.277344 23.40625 16.777344 C 19.390625 15.886719 15.558594 14.300781 12.089844 12.089844 C 14.492188 14.492188 16.890625 16.890625 19.289062 19.289062 Z M 19.289062 19.289062 "/>
<path style="fill:none;stroke-width:1;stroke-linecap:round;stroke-linejoin:round;stroke:rgb(0%,0%,0%);stroke-opacity:1;stroke-miterlimit:10;" d="M 9.089844 100 C 9.089844 124.109375 18.667969 147.234375 35.71875 164.28125 C 52.765625 181.332031 75.890625 190.910156 100 190.910156 C 124.109375 190.910156 147.234375 181.332031 164.28125 164.28125 C 181.332031 147.234375 190.910156 124.109375 190.910156 100 " transform="matrix(1,0,0,1,3,3)"/>
<path style="fill:none;stroke-width:1;stroke-linecap:round;stroke-linejoin:round;stroke:rgb(0%,0%,0%);stroke-opacity:1;stroke-miterlimit:10;" d="M 190.910156 100 C 190.910156 99.378906 191.15625 98.78125 191.59375 98.34375 C 192.035156 97.902344 192.628906 97.65625 193.253906 97.65625 C 193.875 97.65625 194.46875 97.902344 194.910156 98.34375 C 195.347656 98.78125 195.59375 99.378906 195.59375 100 " transform="matrix(1,0,0,1,3,3)"/>
<path style="fill:none;stroke-width:1;stroke-linecap:round;stroke-linejoin:round;stroke:rgb(0%,0%,0%);stroke-opacity:1;stroke-miterlimit:10;" d="M 9.089844 100 C 9.089844 99.378906 8.84375 98.78125 8.40625 98.34375 C 7.964844 97.902344 7.371094 97.65625 6.746094 97.65625 C 6.125 97.65625 5.53125 97.902344 5.089844 98.34375 C 4.652344 98.78125 4.40625 99.378906 4.40625 100 " transform="matrix(1,0,0,1,3,3)"/>
</g>
</svg>
