<?xml version="1.0" encoding="UTF-8"?>
<svg xmlns="http://www.w3.org/2000/svg" xmlns:xlink="http://www.w3.org/1999/xlink" width="206" height="206" viewBox="0 0 206 206" version="1.1">
<g id="surface697">
<path style="fill:none;stroke-width:1;stroke-linecap:round;stroke-linejoin:round;stroke:rgb(0%,0%,0%);stroke-opacity:1;stroke-miterlimit:10;" d="M 122.222656 100 C 122.222656 86.738281 116.953125 74.019531 107.578125 64.644531 C 98.199219 55.269531 85.484375 50 72.222656 50 C 58.960938 50 46.242188 55.269531 36.867188 64.644531 C 27.488281 74.019531 22.222656 86.738281 22.222656 100 C 22.222656 113.261719 27.488281 125.980469 36.867188 135.355469 C 46.242188 144.730469 58.960938 150 72.222656 150 C 85.484375 150 98.199219 144.730469 107.578125 135.355469 C 116.953125 125.980469 122.222656 113.261719 122.222656 100 " transform="matrix(1,0,0,1,3,3)"/>
<path style="fill:none;stroke-width:1;stroke-linecap:round;stroke-linejoin:round;stroke:rgb(0%,0%,0%);stroke-opacity:1;stroke-miterlimit:10;" d="M 177.777344 100 C 177.777344 86.738281 172.511719 74.019531 163.132812 64.644531 C 153.757812 55.269531 141.039062 50 127.777344 50 C 114.515625 50 101.800781 55.269531 92.421875 64.644531 C 83.046875 74.019531 77.777344 86.738281 77.777344 100 C 77.777344 113.261719 83.046875 125.980469 92.421875 135.355469 C 101.800781 144.730469 114.515625 150 127.777344 150 C 141.039062 150 153.757812 144.730469 163.132812 135.355469 C 172.511719 125.980469 177.777344 113.261719 177.777344 100 " transform="matrix(1,0,0,1,3,3)"/>
</g>
</svg>
