<?xml version="1.0" encoding="UTF-8"?>
<svg xmlns="http://www.w3.org/2000/svg" xmlns:xlink="http://www.w3.org/1999/xlink" width="206" height="206" viewBox="0 0 206 206" version="1.1">
<g id="surface141">
<path style="fill:none;stroke-width:1;stroke-linecap:round;stroke-linejoin:round;stroke:rgb(0%,0%,0%);stroke-opacity:1;stroke-miterlimit:10;" d="M 100 100 C 130.304688 69.695312 160.605469 39.394531 190.910156 9.089844 " transform="matrix(1,0,0,1,3,3)"/>
<path style="fill:none;stroke-width:1;stroke-linecap:round;stroke-linejoin:round;stroke:rgb(0%,0%,0%);stroke-opacity:1;stroke-miterlimit:10;" d="M 189.402344 12.726562 C 189.148438 12.277344 188.878906 11.835938 188.59375 11.40625 C 188.164062 11.121094 187.722656 10.851562 187.273438 10.597656 C 188.5625 10.3125 189.792969 9.800781 190.910156 9.089844 C 190.199219 10.207031 189.6875 11.4375 189.402344 12.726562 " transform="matrix(1,0,0,1,3,3)"/>
<path style=" stroke:none;fill-rule:nonzero;fill:rgb(0%,0%,0%);fill-opacity:1;" d="M 192.402344 15.726562 C 192.148438 15.277344 191.878906 14.835938 191.59375 14.40625 C 191.164062 14.121094 190.722656 13.851562 190.273438 13.597656 C 191.5625 13.3125 192.792969 12.800781 193.910156 12.089844 C 193.199219 13.207031 192.6875 14.4375 192.402344 15.726562 Z M 192.402344 15.726562 "/>
<path style="fill:none;stroke-width:1;stroke-linecap:round;stroke-linejoin:round;stroke:rgb(0%,0%,0%);stroke-opacity:1;stroke-miterlimit:10;" d="M 9.089844 9.089844 C 24.242188 24.242188 39.394531 39.394531 54.546875 54.546875 " transform="matrix(1,0,0,1,3,3)"/>
<path style="fill:none;stroke-width:1;stroke-linecap:round;stroke-linejoin:round;stroke:rgb(0%,0%,0%);stroke-opacity:1;stroke-miterlimit:10;" d="M 47.273438 51.53125 C 48.171875 51.023438 49.054688 50.488281 49.917969 49.917969 C 50.488281 49.054688 51.023438 48.171875 51.53125 47.273438 C 52.105469 49.855469 53.125 52.316406 54.546875 54.546875 C 52.316406 53.125 49.855469 52.105469 47.273438 51.53125 " transform="matrix(1,0,0,1,3,3)"/>
<path style=" stroke:none;fill-rule:nonzero;fill:rgb(0%,0%,0%);fill-opacity:1;" d="M 50.273438 54.53125 C 51.171875 54.023438 52.054688 53.488281 52.917969 52.917969 C 53.488281 52.054688 54.023438 51.171875 54.53125 50.273438 C 55.105469 52.855469 56.125 55.316406 57.546875 57.546875 C 55.316406 56.125 52.855469 55.105469 50.273438 54.53125 Z M 50.273438 54.53125 "/>
<path style="fill:none;stroke-width:1;stroke-linecap:round;stroke-linejoin:round;stroke:rgb(0%,0%,0%);stroke-opacity:1;stroke-miterlimit:10;" d="M 9.089844 100 C 9.089844 124.109375 18.667969 147.234375 35.71875 164.28125 C 52.765625 181.332031 75.890625 190.910156 100 190.910156 C 124.109375 190.910156 147.234375 181.332031 164.28125 164.28125 C 181.332031 147.234375 190.910156 124.109375 190.910156 100 " transform="matrix(1,0,0,1,3,3)"/>
<path style="fill:none;stroke-width:1;stroke-linecap:round;stroke-linejoin:round;stroke:rgb(0%,0%,0%);stroke-opacity:1;stroke-miterlimit:10;" d="M 196.933594 114.546875 C 194.941406 113.992188 192.933594 113.503906 190.910156 113.089844 C 188.882812 113.503906 186.875 113.992188 184.882812 114.546875 C 187.726562 110.085938 189.765625 105.164062 190.910156 100 C 192.054688 105.164062 194.09375 110.085938 196.933594 114.546875 " transform="matrix(1,0,0,1,3,3)"/>
<path style=" stroke:none;fill-rule:nonzero;fill:rgb(0%,0%,0%);fill-opacity:1;" d="M 199.933594 117.546875 C 197.941406 116.992188 195.933594 116.503906 193.910156 116.089844 C 191.882812 116.503906 189.875 116.992188 187.882812 117.546875 C 190.726562 113.085938 192.765625 108.164062 193.910156 103 C 195.054688 108.164062 197.09375 113.085938 199.933594 117.546875 Z M 199.933594 117.546875 "/>
</g>
</svg>
