<?xml version="1.0" encoding="UTF-8"?>
<svg xmlns="http://www.w3.org/2000/svg" xmlns:xlink="http://www.w3.org/1999/xlink" width="606" height="206" viewBox="0 0 606 206" version="1.1">
<g id="surface723">
<path style=" stroke:none;fill-rule:nonzero;fill:rgb(80%,0%,0%);fill-opacity:1;" d="M 125.222656 103 C 125.222656 89.738281 119.953125 77.019531 110.578125 67.644531 C 101.199219 58.269531 88.484375 53 75.222656 53 C 61.960938 53 49.242188 58.269531 39.867188 67.644531 C 30.488281 77.019531 25.222656 89.738281 25.222656 103 C 25.222656 116.261719 30.488281 128.980469 39.867188 138.355469 C 49.242188 147.730469 61.960938 153 75.222656 153 C 88.484375 153 101.199219 147.730469 110.578125 138.355469 C 119.953125 128.980469 125.222656 116.261719 125.222656 103 Z M 125.222656 103 "/>
<path style="fill:none;stroke-width:1;stroke-linecap:round;stroke-linejoin:round;stroke:rgb(0%,0%,0%);stroke-opacity:1;stroke-miterlimit:10;" d="M 122.222656 100 C 122.222656 86.738281 116.953125 74.019531 107.578125 64.644531 C 98.199219 55.269531 85.484375 50 72.222656 50 C 58.960938 50 46.242188 55.269531 36.867188 64.644531 C 27.488281 74.019531 22.222656 86.738281 22.222656 100 C 22.222656 113.261719 27.488281 125.980469 36.867188 135.355469 C 46.242188 144.730469 58.960938 150 72.222656 150 C 85.484375 150 98.199219 144.730469 107.578125 135.355469 C 116.953125 125.980469 122.222656 113.261719 122.222656 100 " transform="matrix(1,0,0,1,3,3)"/>
<path style="fill:none;stroke-width:1;stroke-linecap:round;stroke-linejoin:round;stroke:rgb(0%,0%,0%);stroke-opacity:1;stroke-miterlimit:10;" d="M 177.777344 100 C 177.777344 86.738281 172.511719 74.019531 163.132812 64.644531 C 153.757812 55.269531 141.039062 50 127.777344 50 C 114.515625 50 101.800781 55.269531 92.421875 64.644531 C 83.046875 74.019531 77.777344 86.738281 77.777344 100 C 77.777344 113.261719 83.046875 125.980469 92.421875 135.355469 C 101.800781 144.730469 114.515625 150 127.777344 150 C 141.039062 150 153.757812 144.730469 163.132812 135.355469 C 172.511719 125.980469 177.777344 113.261719 177.777344 100 " transform="matrix(1,0,0,1,3,3)"/>
<path style=" stroke:none;fill-rule:nonzero;fill:rgb(0%,0%,80%);fill-opacity:1;" d="M 380.777344 103 C 380.777344 89.738281 375.511719 77.019531 366.132812 67.644531 C 356.757812 58.269531 344.039062 53 330.777344 53 C 317.515625 53 304.800781 58.269531 295.421875 67.644531 C 286.046875 77.019531 280.777344 89.738281 280.777344 103 C 280.777344 116.261719 286.046875 128.980469 295.421875 138.355469 C 304.800781 147.730469 317.515625 153 330.777344 153 C 344.039062 153 356.757812 147.730469 366.132812 138.355469 C 375.511719 128.980469 380.777344 116.261719 380.777344 103 Z M 380.777344 103 "/>
<path style="fill:none;stroke-width:1;stroke-linecap:round;stroke-linejoin:round;stroke:rgb(0%,0%,0%);stroke-opacity:1;stroke-miterlimit:10;" d="M 322.222656 100 C 322.222656 86.738281 316.953125 74.019531 307.578125 64.644531 C 298.199219 55.269531 285.484375 50 272.222656 50 C 258.960938 50 246.242188 55.269531 236.867188 64.644531 C 227.488281 74.019531 222.222656 86.738281 222.222656 100 C 222.222656 113.261719 227.488281 125.980469 236.867188 135.355469 C 246.242188 144.730469 258.960938 150 272.222656 150 C 285.484375 150 298.199219 144.730469 307.578125 135.355469 C 316.953125 125.980469 322.222656 113.261719 322.222656 100 " transform="matrix(1,0,0,1,3,3)"/>
<path style="fill:none;stroke-width:1;stroke-linecap:round;stroke-linejoin:round;stroke:rgb(0%,0%,0%);stroke-opacity:1;stroke-miterlimit:10;" d="M 377.777344 100 C 377.777344 86.738281 372.511719 74.019531 363.132812 64.644531 C 353.757812 55.269531 341.039062 50 327.777344 50 C 314.515625 50 301.800781 55.269531 292.421875 64.644531 C 283.046875 74.019531 277.777344 86.738281 277.777344 100 C 277.777344 113.261719 283.046875 125.980469 292.421875 135.355469 C 301.800781 144.730469 314.515625 150 327.777344 150 C 341.039062 150 353.757812 144.730469 363.132812 135.355469 C 372.511719 125.980469 377.777344 113.261719 377.777344 100 " transform="matrix(1,0,0,1,3,3)"/>
<path style=" stroke:none;fill-rule:nonzero;fill:rgb(49.803922%,0%,49.803922%);fill-opacity:1;" d="M 525.222656 103 C 525.222656 89.738281 519.953125 77.019531 510.578125 67.644531 C 501.199219 58.269531 488.484375 53 475.222656 53 C 461.960938 53 449.242188 58.269531 439.867188 67.644531 C 430.488281 77.019531 425.222656 89.738281 425.222656 103 C 425.222656 116.261719 430.488281 128.980469 439.867188 138.355469 C 449.242188 147.730469 461.960938 153 475.222656 153 C 488.484375 153 501.199219 147.730469 510.578125 138.355469 C 519.953125 128.980469 525.222656 116.261719 525.222656 103 Z M 580.777344 103 C 580.777344 89.738281 575.511719 77.019531 566.132812 67.644531 C 556.757812 58.269531 544.039062 53 530.777344 53 C 517.515625 53 504.800781 58.269531 495.421875 67.644531 C 486.046875 77.019531 480.777344 89.738281 480.777344 103 C 480.777344 116.261719 486.046875 128.980469 495.421875 138.355469 C 504.800781 147.730469 517.515625 153 530.777344 153 C 544.039062 153 556.757812 147.730469 566.132812 138.355469 C 575.511719 128.980469 580.777344 116.261719 580.777344 103 Z M 580.777344 103 "/>
<path style="fill:none;stroke-width:1;stroke-linecap:round;stroke-linejoin:round;stroke:rgb(0%,0%,0%);stroke-opacity:1;stroke-miterlimit:10;" d="M 522.222656 100 C 522.222656 86.738281 516.953125 74.019531 507.578125 64.644531 C 498.199219 55.269531 485.484375 50 472.222656 50 C 458.960938 50 446.242188 55.269531 436.867188 64.644531 C 427.488281 74.019531 422.222656 86.738281 422.222656 100 C 422.222656 113.261719 427.488281 125.980469 436.867188 135.355469 C 446.242188 144.730469 458.960938 150 472.222656 150 C 485.484375 150 498.199219 144.730469 507.578125 135.355469 C 516.953125 125.980469 522.222656 113.261719 522.222656 100 " transform="matrix(1,0,0,1,3,3)"/>
<path style="fill:none;stroke-width:1;stroke-linecap:round;stroke-linejoin:round;stroke:rgb(0%,0%,0%);stroke-opacity:1;stroke-miterlimit:10;" d="M 577.777344 100 C 577.777344 86.738281 572.511719 74.019531 563.132812 64.644531 C 553.757812 55.269531 541.039062 50 527.777344 50 C 514.515625 50 501.800781 55.269531 492.421875 64.644531 C 483.046875 74.019531 477.777344 86.738281 477.777344 100 C 477.777344 113.261719 483.046875 125.980469 492.421875 135.355469 C 501.800781 144.730469 514.515625 150 527.777344 150 C 541.039062 150 553.757812 144.730469 563.132812 135.355469 C 572.511719 125.980469 577.777344 113.261719 577.777344 100 " transform="matrix(1,0,0,1,3,3)"/>
</g>
</svg>
